<svg width="357" height="388" viewBox="0 0 357 388" fill="none" xmlns="http://www.w3.org/2000/svg">
<path d="M198.806 358.559C186.497 352.226 181.592 337.172 179.857 323.15C179.564 320.822 178.95 318.401 179.65 316.166C180.349 313.931 182.506 312.107 184.576 312.736C186.297 313.256 187.304 315.134 188.453 316.616C189.982 318.615 192.003 320.101 194.279 320.899C195.765 321.419 197.528 321.582 198.749 320.527C200.42 319.076 200.177 316.267 199.834 313.954C199.135 309.665 198.449 305.377 197.778 301.088C197.294 298.8 197.152 296.441 197.357 294.104C197.671 291.776 198.82 289.448 200.748 288.486C202.676 287.524 205.382 288.307 206.16 290.496C206.39 291.437 206.562 292.393 206.674 293.359C206.882 294.314 207.46 295.299 208.338 295.415C209.216 295.532 209.98 294.717 210.516 293.918C212.344 291.178 213.372 287.896 214.3 284.645C215.228 281.393 216.099 278.08 217.699 275.162C219.298 272.244 221.74 269.73 224.76 268.954C227.78 268.178 231.35 269.652 232.614 272.764C233.878 275.876 232.657 279.515 231.186 282.511C228.952 286.946 226.141 291.007 222.839 294.57C222.181 295.14 221.706 295.922 221.483 296.804C221.261 298.434 222.847 299.722 224.339 299.971C226.01 300.25 227.709 299.753 229.401 299.66C231.093 299.567 233.014 300.033 233.914 301.623C235.149 303.827 233.714 306.644 232.179 308.607C229.095 312.519 225.417 315.826 221.304 318.385C219.833 319.293 218.27 320.147 217.192 321.574C216.114 323.002 215.678 325.222 216.692 326.712C217.706 328.201 219.755 328.364 221.34 327.728C222.925 327.092 224.246 325.858 225.71 324.934C228.451 323.196 232.264 322.715 234.57 325.121C235.29 325.962 235.82 326.973 236.118 328.074C236.417 329.176 236.476 330.338 236.291 331.468C235.911 333.721 235.117 335.866 233.956 337.777C230.259 344.685 224.942 350.405 218.548 354.353C212.158 358.155 205.975 360.01 198.813 358.566" fill="#F5F5F5"/>
<path d="M200.755 349.2C201.702 341.214 203.071 333.293 204.854 325.478L206.225 319.324C206.674 317.299 207.124 315.297 207.653 313.372C208.72 309.679 209.974 306.052 211.408 302.508C212.758 299.109 214.15 295.928 215.471 292.971C216.792 290.014 218.084 287.283 219.355 284.854C221.339 281.002 223.602 277.327 226.124 273.866C227.016 272.64 227.737 271.716 228.23 271.096C228.466 270.801 228.658 270.568 228.794 270.389C228.93 270.211 228.994 270.157 229.001 270.164C228.95 270.254 228.892 270.339 228.83 270.421L228.287 271.15C227.816 271.786 227.116 272.702 226.245 273.967C223.779 277.462 221.557 281.153 219.598 285.009C218.348 287.446 217.077 290.177 215.764 293.134C214.45 296.091 213.079 299.272 211.744 302.671C210.322 306.215 209.083 309.842 208.031 313.535C207.481 315.452 207.039 317.415 206.603 319.464L205.232 325.625C203.453 333.425 202.078 341.326 201.112 349.293" fill="#E0E0E0"/>
<path d="M207.774 313.341C207.619 313.039 207.497 312.719 207.41 312.387C207.196 311.774 206.917 310.835 206.589 309.74C205.932 307.49 205.118 304.347 204.233 300.886C203.347 297.425 202.498 294.298 201.805 292.071C201.462 290.954 201.177 290.046 200.977 289.433C200.857 289.114 200.763 288.784 200.698 288.447C200.871 288.736 201.012 289.046 201.119 289.37C201.369 289.968 201.691 290.86 202.069 291.962C202.833 294.182 203.726 297.293 204.618 300.77C205.511 304.246 206.26 307.288 206.86 309.647C207.139 310.718 207.367 311.618 207.574 312.34C207.668 312.667 207.734 313.002 207.774 313.341Z" fill="#E0E0E0"/>
<path d="M234.299 302.741C233.954 302.897 233.595 303.014 233.228 303.09C232.514 303.284 231.536 303.563 230.308 303.951C227.845 304.727 224.482 305.876 220.819 307.35C217.156 308.825 213.893 310.322 211.537 311.471C210.366 312.037 209.43 312.526 208.781 312.86C208.454 313.053 208.113 313.214 207.76 313.341C208.055 313.094 208.373 312.88 208.709 312.705C209.338 312.324 210.259 311.797 211.415 311.153C213.722 309.927 216.977 308.382 220.647 306.9C223.78 305.627 226.971 304.531 230.208 303.618C231.45 303.261 232.464 303.028 233.171 302.881C233.542 302.796 233.92 302.749 234.299 302.741Z" fill="#E0E0E0"/>
<path d="M201.005 348.603C200.914 348.501 200.832 348.389 200.763 348.269L200.127 347.283C199.577 346.414 198.813 345.149 197.892 343.566C196.036 340.4 193.608 335.938 190.988 330.972C188.367 326.005 185.99 321.528 184.183 318.331L182.041 314.536L181.47 313.504C181.395 313.39 181.335 313.264 181.292 313.132C181.292 313.132 181.385 313.232 181.534 313.457C181.684 313.683 181.92 314.047 182.17 314.451C182.72 315.312 183.484 316.577 184.412 318.168C186.261 321.334 188.696 325.788 191.316 330.755C193.937 335.721 196.314 340.198 198.114 343.403L200.256 347.19C200.484 347.601 200.677 347.966 200.827 348.222C200.903 348.339 200.964 348.467 201.005 348.603Z" fill="#E0E0E0"/>
<path d="M235.406 329.164C235.305 329.259 235.192 329.338 235.07 329.397L234.078 329.971L230.394 332.058C227.28 333.827 223.011 336.318 218.298 339.042C213.586 341.766 209.295 344.257 206.16 345.949C204.59 346.794 203.304 347.501 202.419 347.912L201.348 348.424C201.23 348.492 201.106 348.544 200.977 348.579C201.079 348.486 201.192 348.408 201.312 348.346L202.312 347.772L205.996 345.677C209.102 343.915 213.372 341.424 218.084 338.693C222.797 335.961 227.095 333.486 230.222 331.794C231.793 330.949 233.078 330.242 233.964 329.831L234.992 329.319C235.122 329.244 235.261 329.192 235.406 329.164Z" fill="#E0E0E0"/>
<path d="M109.528 191.99C109.528 191.99 101.045 193.271 105.808 213.462C110.57 233.654 114.611 244.067 114.611 244.067C114.611 244.067 115.247 248.638 111.855 248.498C108.464 248.359 101.545 245.394 99.196 249.344C96.7684 253.473 98.8962 258.439 104.194 263.646C109.492 268.853 120.787 280.718 121.801 281.797C122.815 282.875 123.558 285.095 121.23 285.397C118.902 285.7 102.395 283.597 101.952 292.172C101.509 300.747 118.524 312.604 120.359 313.939C122.194 315.273 122.501 316.313 122.073 317.477C121.644 318.641 116.175 317.361 111.455 316.965C106.736 316.569 101.195 317.027 101.317 321.993C101.438 326.96 110.377 339.531 136.438 348.874L148.783 352.343L157.901 342.581C176.251 320.395 178.257 304.665 176.094 300.289C173.93 295.912 168.954 298.512 164.998 301.398C161.043 304.285 156.902 308.382 156.016 307.606C155.131 306.83 154.902 305.76 155.888 303.61C156.873 301.46 166.219 281.983 161.907 274.782C157.594 267.58 144.228 278.305 142.086 279.29C139.944 280.276 139.558 277.932 139.944 276.473C140.33 275.014 144.685 258.625 146.927 251.214C149.169 243.804 148.74 238.356 144.742 236.09C140.886 233.91 136.253 240.242 133.368 242.197C130.484 244.153 128.956 239.869 128.956 239.869C128.956 239.869 127.699 228.656 122.601 208.558C117.503 188.459 109.371 192.06 109.371 192.06" fill="#EBEBEB"/>
<path d="M148.776 355.68C145.085 340.936 138.923 314.552 133.532 291.9C128.142 269.249 123.244 248.824 119.616 234.034C117.803 226.646 116.332 220.671 115.332 216.52C114.833 214.463 114.44 212.857 114.169 211.755L113.869 210.513C113.804 210.234 113.783 210.087 113.783 210.087C113.783 210.087 113.833 210.218 113.912 210.498C113.99 210.777 114.097 211.204 114.24 211.732C114.533 212.834 114.954 214.424 115.482 216.473C116.553 220.594 118.067 226.561 119.909 233.949C123.601 248.693 128.549 269.187 133.939 291.792C139.33 314.396 145.442 340.804 149.069 355.594" fill="#E0E0E0"/>
<path d="M108.721 253.954C109.006 254.082 109.279 254.24 109.535 254.427C110.042 254.753 110.77 255.25 111.677 255.871C113.455 257.12 115.875 258.912 118.51 260.938L125.236 266.153L127.285 267.705C127.543 267.879 127.783 268.085 127.999 268.318C127.711 268.191 127.436 268.032 127.178 267.844C126.671 267.518 125.942 267.022 125.036 266.393C123.272 265.128 120.873 263.289 118.238 261.271L111.477 256.111L109.421 254.559C109.168 254.385 108.934 254.182 108.721 253.954Z" fill="#E0E0E0"/>
<path d="M129.034 267.673C128.941 267.611 132.119 262.032 136.124 255.211C140.13 248.39 143.464 242.911 143.557 242.973C143.65 243.035 140.472 248.623 136.46 255.444C132.447 262.265 129.127 267.72 129.034 267.673Z" fill="#E0E0E0"/>
<path d="M135.874 302.811C136.072 302.543 136.3 302.303 136.553 302.097L138.473 300.266C140.094 298.714 142.329 296.572 144.714 294.104C147.098 291.636 149.197 289.332 150.697 287.648C151.411 286.872 151.996 286.181 152.475 285.653C152.691 285.393 152.93 285.157 153.189 284.947C153.031 285.244 152.839 285.518 152.618 285.762C152.232 286.266 151.654 286.98 150.925 287.85C149.497 289.596 147.412 291.947 145.013 294.414C142.614 296.882 140.358 299.008 138.687 300.498C137.845 301.274 137.159 301.833 136.674 302.229C136.428 302.454 136.16 302.649 135.874 302.811Z" fill="#E0E0E0"/>
<path d="M114.99 294.795C115.278 294.832 115.561 294.908 115.832 295.02L118.096 295.796C119.995 296.455 122.615 297.394 125.5 298.45C128.384 299.505 130.99 300.498 132.868 301.235L135.089 302.12C135.365 302.214 135.631 302.342 135.881 302.5C135.593 302.469 135.31 302.395 135.039 302.283L132.775 301.507C130.876 300.847 128.256 299.908 125.371 298.845C122.487 297.782 119.881 296.797 118.003 296.067L115.782 295.175C115.504 295.087 115.237 294.959 114.99 294.795Z" fill="#E0E0E0"/>
<path d="M117.403 326.649C117.77 326.709 118.132 326.808 118.481 326.944L121.38 327.907C123.822 328.737 127.185 329.909 130.898 331.236C134.61 332.563 137.959 333.773 140.38 334.681L143.236 335.767C143.591 335.891 143.937 336.044 144.271 336.225C143.901 336.166 143.537 336.068 143.186 335.93L140.287 334.968C137.845 334.138 134.482 332.966 130.769 331.639C127.056 330.312 123.708 329.094 121.294 328.194L118.438 327.1C118.081 326.984 117.735 326.833 117.403 326.649Z" fill="#E0E0E0"/>
<path d="M143.685 335.799C143.937 335.463 144.216 335.154 144.521 334.875L146.884 332.462C148.876 330.421 151.618 327.588 154.567 324.368C157.516 321.148 160.122 318.16 161.992 315.987L164.206 313.411C164.466 313.082 164.75 312.776 165.055 312.495C164.847 312.86 164.608 313.203 164.341 313.52C163.856 314.164 163.128 315.072 162.199 316.189C160.379 318.424 157.808 321.45 154.845 324.671C151.882 327.891 149.133 330.7 147.077 332.687C146.049 333.672 145.213 334.472 144.621 335.015C144.329 335.304 144.017 335.566 143.685 335.799Z" fill="#E0E0E0"/>
<path d="M72.6852 71.5783L65.7166 69.2503C65.7166 69.2503 63.8887 75.6135 57.7769 73.6657C56.5937 73.3116 55.541 72.5665 54.7645 71.5335C53.988 70.5005 53.5262 69.2308 53.4429 67.9C53.3514 66.7778 53.5078 65.648 53.899 64.6047C54.2902 63.5614 54.9049 62.6346 55.692 61.9015C57.4842 60.1788 60.6258 59.1312 65.0597 61.6222L69.9649 44.5502L63.0748 42.2222L60.2188 52.2248C60.2188 52.2248 49.7658 51.6583 46.4457 63.2285C43.2684 74.302 51.6651 79.9746 55.5778 81.3015C58.548 82.3103 68.9796 84.9798 72.6852 71.5783Z" fill="#F5F5F5"/>
<path d="M64.0081 38.6689L71.0012 41.0405L73.0387 33.9439L66.0456 31.5723L64.0081 38.6689Z" fill="#F5F5F5"/>
<path d="M91.9132 52.3024L94.705 51.5264C94.6197 51.1818 94.5991 50.8221 94.6444 50.4687C94.6896 50.1153 94.7997 49.7754 94.9683 49.4692C95.1368 49.163 95.3602 48.8967 95.6253 48.6862C95.8904 48.4757 96.1917 48.3253 96.5114 48.2439C96.9765 48.0913 97.4738 48.0997 97.9344 48.2679C98.3949 48.4362 98.7959 48.7559 99.0818 49.1829C99.3245 49.5374 99.4866 49.9493 99.5548 50.3849C99.6231 50.8205 99.5956 51.2675 99.4745 51.6894C99.2103 52.6749 98.3606 53.7458 96.39 53.9243L98.0536 60.7608L100.81 59.9848L99.8386 55.9807C100.884 55.2955 101.693 54.2558 102.14 53.0218C102.588 51.7877 102.65 50.4279 102.316 49.1519C101.245 44.7131 97.3182 44.7364 95.7688 45.1787C94.5693 45.4814 90.5638 46.9635 91.9132 52.3024Z" fill="#EBEBEB"/>
<path d="M101.782 60.9819L98.9702 61.801L99.6738 64.6538L102.486 63.8347L101.782 60.9819Z" fill="#EBEBEB"/>
<path d="M322.4 130.841L325.113 131.905C325.227 131.571 325.401 131.265 325.625 131.005C325.849 130.746 326.119 130.537 326.418 130.393C326.718 130.248 327.041 130.17 327.368 130.163C327.696 130.156 328.021 130.221 328.326 130.353C328.783 130.512 329.183 130.822 329.472 131.239C329.761 131.655 329.924 132.159 329.939 132.681C329.956 133.126 329.876 133.569 329.704 133.973C329.533 134.378 329.276 134.733 328.954 135.009C328.24 135.653 326.962 136.002 325.248 134.931L323.028 141.581L325.713 142.637L327.012 138.757C328.231 138.839 329.44 138.484 330.455 137.746C331.47 137.009 332.235 135.93 332.631 134.675C334.059 130.36 330.839 127.962 329.318 127.365C328.154 126.868 324.085 125.619 322.4 130.841Z" fill="#EBEBEB"/>
<path d="M325.311 143.985L322.585 142.912L321.664 145.677L324.389 146.75L325.311 143.985Z" fill="#EBEBEB"/>
<path d="M34.4576 164.613L40.1696 162.207C40.1696 162.207 38.3132 156.969 43.2898 154.773C44.2423 154.335 45.2963 154.229 46.3066 154.47C47.3168 154.71 48.2336 155.285 48.9304 156.116C49.5233 156.806 49.9578 157.639 50.1985 158.547C50.4392 159.454 50.4793 160.411 50.3156 161.338C49.9586 163.496 48.3878 165.994 44.2537 166.856L49.2517 180.924L54.9637 178.55L52.0363 170.309C52.0363 170.309 59.1763 164.737 55.8277 155.192C52.579 146.067 44.268 147.106 41.0764 148.449C38.6131 149.481 30.445 153.648 34.4576 164.613Z" fill="#F5F5F5"/>
<path d="M56.0459 181.414L50.2827 183.827L52.3567 189.678L58.1199 187.264L56.0459 181.414Z" fill="#F5F5F5"/>
<path d="M324.634 188.289L320.565 189.988C320.565 189.988 321.878 193.705 318.351 195.257C317.676 195.564 316.93 195.638 316.215 195.468C315.5 195.299 314.85 194.895 314.353 194.31C313.933 193.821 313.625 193.23 313.455 192.587C313.285 191.944 313.258 191.266 313.375 190.609C313.632 189.057 314.745 187.319 317.659 186.729L314.16 176.726L310.133 178.41L312.204 184.253C310.738 185.472 309.682 187.18 309.197 189.115C308.711 191.05 308.825 193.104 309.519 194.962C311.811 201.426 317.68 200.697 319.965 199.742C321.693 199.005 327.476 196.056 324.634 188.289Z" fill="#F5F5F5"/>
<path d="M309.336 176.383L313.421 174.673L311.952 170.531L307.868 172.241L309.336 176.383Z" fill="#F5F5F5"/>
<path d="M336.13 359.885C336.13 360.002 265.551 360.087 178.507 360.087C91.4634 360.087 20.8702 360.002 20.8702 359.885C20.8702 359.769 91.4349 359.684 178.507 359.684C265.579 359.684 336.13 359.777 336.13 359.885Z" fill="#263238"/>
<path d="M66.145 339.733C66.859 336.877 65.0954 334.014 63.1676 331.973C61.2398 329.932 58.9336 328.054 57.9268 325.315C56.2989 320.876 58.4837 315.134 55.7134 311.432C54.0784 309.259 51.151 308.53 49.7015 306.202C49.0314 304.919 48.5882 303.511 48.3949 302.05C46.8543 294.678 43.5176 287.891 38.7345 282.402C38.4121 288.969 39.7216 295.509 42.5258 301.336C43.6468 303.664 45.032 305.93 45.3818 308.53C45.9887 312.744 43.8182 317.066 44.7749 321.225C45.8674 325.959 50.7583 329.133 50.9867 334.006C51.1867 338.127 47.8808 341.766 48.1307 345.863C48.331 347.618 48.9162 349.295 49.8372 350.752C52.7646 356.052 57.0772 359.699 63.6031 359.583L71.5999 359.886L66.145 339.733Z" fill="#90CAF9"/>
<g opacity="0.3">
<path opacity="0.3" d="M66.145 339.733C66.859 336.877 65.0954 334.014 63.1676 331.973C61.2398 329.932 58.9336 328.054 57.9268 325.315C56.2989 320.876 58.4837 315.134 55.7134 311.432C54.0784 309.259 51.151 308.53 49.7015 306.202C49.0314 304.919 48.5882 303.511 48.3949 302.05C46.8543 294.678 43.5176 287.891 38.7345 282.402C38.4121 288.969 39.7216 295.509 42.5258 301.336C43.6468 303.664 45.032 305.93 45.3818 308.53C45.9887 312.744 43.8182 317.066 44.7749 321.225C45.8674 325.959 50.7583 329.133 50.9867 334.006C51.1867 338.127 47.8808 341.766 48.1307 345.863C48.331 347.618 48.9162 349.295 49.8372 350.752C52.7646 356.052 57.0772 359.699 63.6031 359.583L71.5999 359.886L66.145 339.733Z" fill="black"/>
</g>
<path d="M73.2136 360.064C73.9459 360.187 74.6924 360.171 75.4198 360.017C76.303 359.871 77.1711 359.632 78.0116 359.304C79.1725 358.865 80.2582 358.22 81.2246 357.395C81.8061 356.886 82.2604 356.227 82.5455 355.478C82.7844 354.638 82.9095 353.765 82.9168 352.886C82.9329 351.946 82.9973 351.009 83.1096 350.077C83.26 349.085 83.5901 348.135 84.0806 347.283C85.0231 345.483 86.5939 343.776 87.0937 341.331C87.5935 338.887 87.2508 336.326 86.8795 333.719C86.5082 331.111 86.1655 328.287 87.0652 325.555C87.9648 322.824 89.6784 320.379 90.5566 317.322C91.4348 314.265 91.0207 310.897 91.2064 307.614C91.2612 305.947 91.6153 304.307 92.2488 302.787C92.8914 301.235 93.791 299.8 94.4908 298.186C95.9188 294.911 96.1615 291.202 96.5471 287.562C96.7399 285.731 96.9255 283.876 97.1183 282.014C97.2398 280.131 97.5389 278.267 98.0108 276.45C98.5525 274.619 99.1914 272.823 99.9243 271.072C100.302 270.167 100.612 269.23 100.853 268.271C100.987 267.278 101.073 266.278 101.11 265.276C101.195 263.268 101.123 261.256 100.895 259.262C100.681 257.26 100.346 255.273 100.146 253.263C100.146 253.139 100.146 253.023 100.146 252.914L100.103 252.518L99.7815 252.689C98.0933 253.63 96.6274 254.982 95.4975 256.639C94.3893 258.261 93.4975 260.045 92.8486 261.939C91.5134 265.671 91.035 269.582 90.3638 273.315C89.6927 277.048 88.8359 280.718 87.0794 283.822C86.2012 285.374 85.1374 286.786 84.2234 288.292C83.231 289.761 82.5529 291.452 82.2385 293.243C81.7601 296.921 83.6237 300.149 83.2381 303.408C83.0642 305.005 82.5772 306.542 81.8101 307.917C81.0961 309.306 80.2322 310.594 79.4182 311.882C78.5932 313.146 77.8762 314.489 77.2762 315.894C76.7115 317.27 76.3778 318.744 76.2909 320.247C76.0981 323.181 76.4765 325.959 76.2909 328.582C76.068 331.082 75.396 333.51 74.3131 335.729C73.3492 337.863 72.2711 339.795 71.3714 341.673C70.9216 342.604 70.5004 343.52 70.1576 344.443C69.8333 345.33 69.5941 346.25 69.4436 347.19C69.2047 348.831 69.1854 350.502 69.3865 352.149C69.5963 354.446 70.3871 356.635 71.6713 358.473C71.8676 358.751 72.085 359.011 72.3211 359.249C72.4787 359.429 72.6534 359.59 72.8423 359.73C73.1422 359.971 73.2992 360.08 73.2992 360.08C72.7285 359.589 72.2089 359.032 71.7499 358.419C70.524 356.574 69.7835 354.401 69.6079 352.133C69.426 350.507 69.4597 348.861 69.7078 347.244C69.8582 346.327 70.0975 345.43 70.4218 344.567C70.7836 343.634 71.1912 342.722 71.6428 341.836C72.5495 339.973 73.6348 338.049 74.6201 335.899C75.7354 333.646 76.4294 331.175 76.6622 328.628C76.8764 325.951 76.5051 323.157 76.705 320.302C76.797 318.847 77.1232 317.421 77.6689 316.088C78.2727 314.712 78.9896 313.398 79.8109 312.162C80.6249 310.873 81.4888 309.585 82.2314 308.165C83.0464 306.738 83.5676 305.137 83.7593 303.47C84.1449 300.002 82.2956 296.758 82.774 293.336C83.087 291.624 83.7427 290.008 84.6947 288.602C85.6015 287.12 86.6725 285.708 87.5507 284.117C89.3714 280.928 90.2496 277.187 90.9136 273.439C91.5776 269.691 92.0703 265.811 93.3841 262.148C94.0159 260.308 94.8837 258.573 95.9616 256.996C97.0485 255.406 98.4584 254.11 100.081 253.209L99.7172 252.984C99.7172 253.1 99.7173 253.217 99.753 253.341C99.9529 255.374 100.288 257.36 100.467 259.347C100.692 261.31 100.762 263.291 100.674 265.268C100.638 266.239 100.557 267.208 100.431 268.17C100.2 269.098 99.8996 270.004 99.5316 270.878C98.7948 272.648 98.1512 274.461 97.6038 276.31C97.1279 278.155 96.8265 280.048 96.7042 281.96C96.5185 283.83 96.3257 285.684 96.1401 287.516C95.7545 291.171 95.5047 294.818 94.1409 297.976C93.4269 299.528 92.5701 301.01 91.9061 302.593C91.2526 304.17 90.8888 305.87 90.8351 307.599C90.6566 310.951 91.0564 314.233 90.221 317.198C89.3857 320.162 87.6506 322.63 86.7724 325.431C85.8942 328.232 86.2155 331.197 86.6011 333.796C86.9866 336.396 87.3722 338.957 86.8581 341.262C86.344 343.566 84.8732 345.289 83.9164 347.136C83.412 348.025 83.0747 349.014 82.924 350.046C82.8161 350.988 82.7589 351.936 82.7526 352.886C82.7537 353.743 82.6383 354.596 82.4099 355.416C82.1454 356.127 81.7206 356.754 81.1747 357.239C80.2341 358.064 79.1752 358.714 78.0402 359.164C77.2107 359.511 76.3523 359.771 75.4769 359.94C74.942 360.045 74.3998 360.103 73.8562 360.111C73.4063 360.064 73.2136 360.064 73.2136 360.064Z" fill="#263238"/>
<path d="M98.4749 257.71C98.4367 257.793 98.4103 257.882 98.3963 257.973L98.225 258.749C98.0679 259.44 97.8751 260.472 97.5752 261.76C97.2754 263.048 96.5399 264.507 95.9188 266.3C95.1912 268.318 94.5573 270.374 94.0195 272.461C93.4055 274.789 92.87 277.35 92.2988 280.113C91.8134 283.055 90.953 285.91 89.7427 288.594C89.0858 290.007 88.3147 291.435 87.7649 293.002C87.1884 294.603 86.8021 296.277 86.6153 297.984C86.2092 301.519 85.6325 305.029 84.8875 308.499C83.2881 315.615 81.7601 322.397 80.3678 328.574C78.9755 334.751 77.6618 340.276 76.5765 344.948C75.4912 349.619 74.6701 353.344 74.0704 356.006C73.7919 357.278 73.5706 358.279 73.4135 359.016C73.3492 359.335 73.2921 359.591 73.2493 359.792C73.2414 359.883 73.2414 359.974 73.2493 360.064C73.2907 359.984 73.322 359.897 73.3421 359.808C73.3921 359.598 73.4635 359.35 73.5491 359.032C73.7276 358.31 73.9775 357.309 74.2988 356.044C74.9414 353.406 75.8482 349.658 76.9692 345.041C78.0902 340.423 79.3968 334.836 80.8605 328.698C82.3242 322.56 83.8093 315.731 85.423 308.607C86.1632 305.129 86.7257 301.608 87.108 298.062C87.2904 296.395 87.6646 294.761 88.2218 293.196C88.7859 291.644 89.507 290.255 90.1639 288.827C91.5919 285.995 92.156 282.953 92.72 280.214C93.2841 277.474 93.7839 274.882 94.3694 272.57C94.9549 270.258 95.5689 268.193 96.1829 266.409C96.797 264.624 97.4753 263.149 97.768 261.815C98.0608 260.48 98.1964 259.487 98.3249 258.773C98.3725 258.452 98.4154 258.193 98.4535 257.997C98.4749 257.803 98.4892 257.71 98.4749 257.71Z" fill="#263238"/>
<path d="M74.6273 360.103C79.8466 356.727 81.346 346.484 79.1683 340.323C76.9906 334.161 73.1779 328.527 72.5924 321.955C72.1354 316.903 73.6634 311.719 72.5924 306.784C71.1287 300.118 65.1454 294.958 65.2168 288.106C65.2525 284.264 67.2659 280.648 67.1017 276.807C66.9089 272.104 63.5817 268.364 61.5254 264.22C58.3695 257.865 58.1624 250.361 57.0843 243.268C56.0062 236.176 53.5143 228.524 47.7023 225.025C46.8455 231.07 45.3818 235.213 45.8388 243.4C46.0102 246.341 49.1518 251.936 49.5802 258.416C49.8372 262.296 50.0086 266.129 50.2299 269.978C50.4512 273.827 50.6654 277.552 51.9007 281.059C52.8503 283.752 54.3711 286.197 55.078 288.975C56.3989 294.197 54.6567 299.839 55.7277 305.147C56.6345 309.632 59.4905 313.489 60.076 318.036C60.8899 324.422 57.0914 331.065 59.0335 337.157C60.0046 340.183 62.2894 342.589 62.9391 345.731C63.446 348.152 62.8963 350.721 63.3532 353.15C64.0672 357.076 70.9645 360.134 74.6416 359.878" fill="#90CAF9"/>
<path d="M49.1303 230.992C49.1206 231.106 49.1206 231.22 49.1303 231.333C49.1303 231.589 49.2017 231.915 49.2446 232.327C49.366 233.204 49.5016 234.484 49.7729 236.145C50.0443 237.805 50.8582 239.683 51.4865 241.949C52.1149 244.215 52.8146 246.807 53.4001 249.709C53.9855 252.611 54.4996 255.847 55.0208 259.316C55.5421 262.785 56.1133 266.564 57.6983 270.18C58.4123 271.988 59.2549 273.804 59.8403 275.744C60.4402 277.73 60.8096 279.789 60.9399 281.874C61.2318 286.299 61.7443 290.702 62.475 295.066C64.0744 304.021 65.5952 312.55 66.9803 320.317C68.3655 328.085 69.7578 335.015 70.8716 340.881C71.9855 346.748 72.8994 351.435 73.5349 354.741L74.2489 358.504C74.3345 358.908 74.3988 359.226 74.4559 359.474C74.4752 359.588 74.5039 359.7 74.5416 359.808C74.5542 359.695 74.5542 359.58 74.5416 359.467C74.4988 359.21 74.4488 358.892 74.3845 358.481C74.2274 357.581 74.0061 356.308 73.7276 354.694C73.1279 351.381 72.2996 346.647 71.2215 340.804C70.1434 334.96 68.8653 327.953 67.4444 320.216C66.0236 312.48 64.5884 303.92 62.9819 294.973C62.2507 290.609 61.7359 286.205 61.4397 281.781C61.3038 279.653 60.9224 277.552 60.3044 275.527C59.669 273.556 58.8336 271.732 58.0982 269.932C56.5274 266.37 55.9562 262.653 55.4135 259.2C54.8709 255.746 54.3497 252.503 53.7285 249.585C53.1073 246.667 52.429 244.06 51.7293 241.825C51.0296 239.59 50.2513 237.697 49.9372 236.075C49.623 234.453 49.4731 233.149 49.3231 232.288C49.2517 231.884 49.1946 231.558 49.1518 231.302C49.1503 231.199 49.1431 231.095 49.1303 230.992Z" fill="#263238"/>
<path d="M300.93 68.8855H298.074C298.076 69.2376 298.013 69.5865 297.888 69.9116C297.764 70.2366 297.581 70.5313 297.35 70.7781C297.119 71.0248 296.844 71.2187 296.543 71.3481C296.242 71.4776 295.92 71.54 295.596 71.5317C295.118 71.5503 294.646 71.4063 294.247 71.1198C293.847 70.8332 293.54 70.4184 293.368 69.9331C293.218 69.529 293.158 69.092 293.192 68.6577C293.227 68.2234 293.356 67.8042 293.568 67.4344C294.054 66.5653 295.11 65.7815 297.024 66.1462V59.1622H294.218V63.244C293.067 63.6124 292.058 64.3813 291.347 65.4326C290.637 66.4839 290.263 67.7596 290.284 69.064C290.284 73.5803 294.011 74.6279 295.61 74.6279C296.831 74.659 300.987 74.3408 300.93 68.8855Z" fill="#90CAF9"/>
<path d="M294.197 57.75H297.045V54.8555H294.197V57.75Z" fill="#90CAF9"/>
<path d="M316.502 64.7572C316.511 64.6255 316.511 64.4932 316.502 64.3615C316.502 64.0821 316.502 63.7019 316.502 63.213C316.502 62.9647 316.502 62.6775 316.466 62.3671C316.431 62.0567 316.388 61.7153 316.338 61.3583C316.288 61.0014 316.238 60.5823 316.181 60.1711L315.881 58.8519C315.35 56.58 314.482 54.4175 313.31 52.4499C311.609 49.5358 309.315 47.0846 306.606 45.2847C303.896 43.4847 300.843 42.3839 297.681 42.067C296.731 41.9758 295.777 41.9551 294.825 42.0049C294.347 42.0049 293.854 42.0049 293.397 42.1058L291.926 42.3463C289.908 42.754 287.955 43.4781 286.128 44.4959C284.221 45.5926 282.469 46.9801 280.923 48.6164C279.341 50.3592 278.019 52.3594 277.003 54.5451C275.911 56.7983 275.196 59.2445 274.89 61.7696C274.801 62.4094 274.751 63.0549 274.74 63.7019C274.692 64.3498 274.68 65.0002 274.704 65.6496C274.86 69.8124 276.057 73.8503 278.167 77.3284V77.0879C277.175 79.7806 276.197 82.4267 275.24 85.0031L275.068 85.4764L275.518 85.3367L283.301 83.0087L283.115 82.9622C285.736 85.1188 288.79 86.5707 292.026 87.1991C293.527 87.5033 295.057 87.6049 296.581 87.5018C297.316 87.4899 298.049 87.4146 298.773 87.2767L299.837 87.0983C300.187 87.0284 300.551 86.912 300.865 86.8267C305.661 85.5058 309.868 82.3726 312.732 77.988C313.8 76.3728 314.658 74.6049 315.281 72.7345C315.417 72.3232 315.545 71.9585 315.667 71.555C315.788 71.1515 315.852 70.779 315.931 70.4298C316.009 70.0806 316.095 69.7236 316.166 69.3977C316.238 69.0718 316.259 68.7536 316.302 68.451C316.366 67.8535 316.466 67.3258 316.488 66.899C316.509 66.4722 316.488 66.0609 316.488 65.735C316.488 65.4091 316.488 65.2073 316.488 65.0288C316.488 64.8503 316.488 64.7883 316.488 64.7883C316.477 64.868 316.477 64.9491 316.488 65.0288C316.488 65.2073 316.488 65.4401 316.438 65.735C316.388 66.0299 316.395 66.4411 316.366 66.8912C316.338 67.3413 316.231 67.869 316.145 68.4432C315.464 72.7381 313.65 76.7256 310.924 79.9215C308.197 83.1174 304.676 85.3841 300.787 86.4464C300.451 86.5318 300.116 86.6404 299.773 86.7103L298.723 86.881C298.015 87.0094 297.299 87.0795 296.581 87.0905C295.085 87.1762 293.585 87.0694 292.112 86.7723C288.951 86.1402 285.97 84.7131 283.408 82.6052L283.322 82.5276H283.215L275.425 84.8556L275.697 85.1893L278.631 77.2819L278.674 77.1577L278.61 77.0413C277.204 74.7294 276.206 72.1531 275.668 69.4443C275.422 68.1875 275.274 66.9103 275.226 65.6263C275.202 64.9924 275.214 64.3575 275.261 63.7251C275.266 63.0936 275.313 62.4633 275.404 61.8395C275.678 59.3735 276.353 56.98 277.396 54.7701C278.388 52.6341 279.677 50.6764 281.216 48.9656C282.728 47.3593 284.445 45.9977 286.314 44.9227C288.1 43.9131 290.012 43.1941 291.99 42.7887L293.418 42.5481C293.897 42.4705 294.375 42.4783 294.846 42.4395C295.777 42.3913 296.71 42.4095 297.638 42.4938C300.748 42.7897 303.756 43.852 306.432 45.5999C309.108 47.3479 311.382 49.7356 313.082 52.5818C314.26 54.5151 315.143 56.643 315.695 58.8829L316.016 60.1866C316.081 60.5979 316.138 60.9626 316.195 61.3506C316.252 61.7386 316.295 62.049 316.345 62.3594C316.395 62.6698 316.381 62.9491 316.402 63.1975C316.402 63.6786 316.459 64.0588 316.481 64.3382C316.467 64.4782 316.474 64.6197 316.502 64.7572Z" fill="#263238"/>
<path d="M103.58 156.271H144.813C144.813 156.271 144.813 118.643 180.792 117.975C199.477 117.618 209.166 130.927 213.108 141.116C217.677 152.95 216.292 166.436 210.166 177.417C203.176 189.949 188.11 202.544 160.322 197.22L160.057 297.068H200.834V237.875C200.834 237.875 258.018 221.812 258.018 153.291C258.018 87.7578 209.259 73.6036 183.048 72.6879C168.468 72.1835 163.185 71.5006 145.149 74.2864C122.165 77.856 103.094 106.863 103.58 156.271Z" fill="#90CAF9"/>
<path d="M201.327 317.881H159.943V359.885H201.327V317.881Z" fill="#90CAF9"/>
<path opacity="0.1" d="M201.327 317.881H159.943V359.885H201.327V317.881Z" fill="black"/>
<path opacity="0.1" d="M103.58 156.271H144.813C144.813 156.271 144.813 118.643 180.792 117.975C199.477 117.618 209.166 130.927 213.108 141.116C217.677 152.95 216.292 166.436 210.166 177.417C203.176 189.949 188.11 202.544 160.322 197.22L160.057 297.068H200.834V237.875C200.834 237.875 258.018 221.812 258.018 153.291C258.018 87.7578 209.259 73.6036 183.048 72.6879C168.468 72.1835 163.185 71.5006 145.149 74.2864C122.165 77.856 103.094 106.863 103.58 156.271Z" fill="black"/>
<path d="M86.494 156.271H127.735C127.735 156.271 127.735 118.643 163.713 117.975C182.398 117.618 192.087 130.927 196.022 141.116C200.598 152.95 199.213 166.436 193.087 177.417C186.097 189.949 170.767 201.341 142.978 196.041V297.068H183.755V237.875C183.755 237.875 240.939 221.812 240.939 153.291C240.939 87.7578 186.861 72.5404 163.72 72.5404C146.02 72.5637 85.7157 77.2119 86.494 156.271Z" fill="#90CAF9"/>
<path opacity="0.3" d="M86.494 156.271H127.735C127.735 156.271 127.735 118.643 163.713 117.975C182.398 117.618 192.087 130.927 196.022 141.116C200.598 152.95 199.213 166.436 193.087 177.417C186.097 189.949 170.767 201.341 142.978 196.041V297.068H183.755V237.875C183.755 237.875 240.939 221.812 240.939 153.291C240.939 87.7578 186.861 72.5404 163.72 72.5404C146.02 72.5637 85.7157 77.2119 86.494 156.271Z" fill="black"/>
<path d="M184.248 317.881H142.864V359.885H184.248V317.881Z" fill="#90CAF9"/>
<path opacity="0.3" d="M184.248 317.881H142.864V359.885H184.248V317.881Z" fill="black"/>
<path d="M168.368 118.177C168.164 118.196 167.959 118.196 167.754 118.177C167.347 118.177 166.762 118.03 165.998 118.022C163.838 117.907 161.673 118.005 159.529 118.317C156.35 118.754 153.223 119.553 150.197 120.699C148.414 121.377 146.677 122.191 144.999 123.136C143.186 124.12 141.479 125.32 139.908 126.713C138.349 128.118 136.951 129.723 135.746 131.493C134.603 133.129 133.561 134.845 132.626 136.63C131.064 139.67 129.826 142.893 128.934 146.237C128.33 148.494 127.914 150.806 127.692 153.144C127.606 153.966 127.585 154.618 127.563 155.053C127.564 155.276 127.545 155.5 127.506 155.72C127.488 155.498 127.488 155.275 127.506 155.053C127.506 154.61 127.506 153.958 127.57 153.128C127.735 150.765 128.115 148.425 128.706 146.144C129.564 142.761 130.787 139.5 132.347 136.429C133.284 134.624 134.331 132.89 135.482 131.237C136.697 129.438 138.112 127.81 139.694 126.387C141.283 124.975 143.012 123.76 144.849 122.763C146.537 121.801 148.286 120.971 150.083 120.28C153.136 119.138 156.293 118.357 159.5 117.952C161.658 117.664 163.837 117.609 166.005 117.789C166.594 117.83 167.181 117.908 167.761 118.022C167.967 118.058 168.17 118.11 168.368 118.177Z" fill="#263238"/>
<path d="M230.501 110.192C230.501 110.192 230.451 110.138 230.365 110.021C230.279 109.905 230.151 109.703 230.008 109.478L228.644 107.383C228.351 106.933 228.037 106.413 227.666 105.877L226.381 104.178L224.91 102.215C224.375 101.532 223.746 100.872 223.118 100.151C222.49 99.4288 221.847 98.6606 221.119 97.9234C220.39 97.1862 219.612 96.4335 218.812 95.6575C218.413 95.2695 218.02 94.8815 217.591 94.4702L216.263 93.3295C215.357 92.5535 214.457 91.7775 213.479 91.0015C209.215 87.6861 204.693 84.7831 199.963 82.3258L196.2 80.4789L192.466 78.9269C191.245 78.376 190.003 77.988 188.803 77.5534C187.603 77.1188 186.433 76.6765 185.233 76.3739L181.82 75.4039C180.713 75.0857 179.614 74.8917 178.564 74.6279C177.515 74.364 176.501 74.1312 175.508 73.9993L172.652 73.5492C170.846 73.2156 169.189 73.1457 167.747 72.9905C167.033 72.9284 166.319 72.8431 165.727 72.812L164.027 72.7655L161.671 72.6801H161.057H160.85C160.919 72.6685 160.988 72.6685 161.057 72.6801H161.671H164.027H165.734C166.355 72.6801 167.033 72.7732 167.761 72.8276C169.189 72.9595 170.874 73.0138 172.681 73.332L175.537 73.751C176.529 73.8752 177.543 74.1545 178.6 74.364C179.657 74.5736 180.742 74.7908 181.877 75.14L185.304 76.1023C186.49 76.3972 187.661 76.8783 188.874 77.274C190.088 77.6698 191.323 78.05 192.544 78.6398L196.3 80.1918L200.084 82.0464C204.839 84.5094 209.379 87.4338 213.65 90.7842C214.636 91.5602 215.535 92.3905 216.442 93.1588L217.77 94.2064C218.198 94.5944 218.591 94.9824 218.991 95.4014L221.29 97.7294C222.004 98.5054 222.647 99.2814 223.282 99.9876C223.918 100.694 224.524 101.384 225.06 102.075L226.488 104.054L227.759 105.777C228.123 106.32 228.43 106.847 228.716 107.329C229.273 108.236 229.708 108.95 230.015 109.463L230.351 110.029C230.407 110.076 230.457 110.131 230.501 110.192Z" fill="#263238"/>
<path d="M226.202 206.416C226.117 206.584 226.014 206.74 225.895 206.881L224.91 208.146C224.503 208.713 223.989 209.388 223.353 210.141C222.718 210.893 222.04 211.778 221.211 212.694C220.383 213.609 219.498 214.634 218.491 215.666C217.484 216.698 216.392 217.784 215.228 218.917C210.124 223.76 204.528 227.954 198.549 231.419C197.164 232.195 195.857 232.971 194.594 233.568C193.33 234.166 192.152 234.779 191.066 235.275C189.981 235.772 188.981 236.183 188.11 236.548C187.239 236.913 186.475 237.208 185.847 237.425L184.419 237.929C184.253 238.001 184.081 238.053 183.905 238.084C184.059 237.989 184.222 237.911 184.39 237.852L185.818 237.277C186.44 237.037 187.189 236.726 188.053 236.338C188.917 235.95 189.917 235.562 190.988 235.012C192.059 234.461 193.244 233.941 194.479 233.266C195.715 232.59 197.035 231.876 198.413 231.093C201.134 229.463 204.068 227.554 207.031 225.35C209.995 223.146 212.658 220.826 215.028 218.638C216.192 217.52 217.306 216.473 218.298 215.418C219.291 214.362 220.219 213.408 221.04 212.492C221.861 211.576 222.582 210.73 223.225 209.986C223.868 209.241 224.396 208.589 224.824 208.045L225.824 206.812C225.94 206.669 226.067 206.536 226.202 206.416Z" fill="#263238"/>
<path d="M183.034 293.545C182.927 293.545 182.841 281.083 182.841 265.71C182.841 250.338 182.927 237.867 183.034 237.867C183.141 237.867 183.22 250.33 183.22 265.71C183.22 281.09 183.134 293.545 183.034 293.545Z" fill="#263238"/>
<path d="M184.605 357.038C184.498 357.038 184.419 348.292 184.419 337.506C184.419 326.719 184.498 317.966 184.605 317.966C184.712 317.966 184.79 326.711 184.79 337.506C184.79 348.3 184.705 357.038 184.605 357.038Z" fill="#263238"/>
<path d="M225.196 150.319C224.482 151.871 227.145 153.144 228.68 153.648C230.246 154.066 231.867 154.187 233.471 154.005C235.613 153.881 237.805 153.664 239.654 152.515C241.274 151.425 242.568 149.848 243.381 147.975C244.183 146.109 244.817 144.162 245.273 142.163C245.273 142.163 228.401 143.358 225.196 150.319Z" fill="#90CAF9"/>
<g opacity="0.4">
<path opacity="0.4" d="M225.196 150.319C224.482 151.871 227.145 153.144 228.68 153.648C230.246 154.066 231.867 154.187 233.471 154.005C235.613 153.881 237.805 153.664 239.654 152.515C241.274 151.425 242.568 149.848 243.381 147.975C244.183 146.109 244.817 144.162 245.273 142.163C245.273 142.163 228.401 143.358 225.196 150.319Z" fill="black"/>
</g>
<path d="M272.848 145.353C275.629 147.497 278.963 148.632 282.373 148.596C284.007 148.695 285.619 148.143 286.907 147.044C287.456 146.493 287.871 145.795 288.435 145.267C288.82 144.91 289.27 144.639 289.634 144.258C289.826 144.079 289.974 143.85 290.065 143.592C290.156 143.335 290.187 143.057 290.155 142.784C290.014 142.11 289.667 141.508 289.17 141.077C287.235 139.882 284.922 139.928 282.694 139.983C280.465 140.088 278.262 140.556 276.161 141.372C274.433 142.008 272.627 142.924 271.748 144.631" fill="#90CAF9"/>
<g opacity="0.4">
<path opacity="0.4" d="M290.155 142.784C289.903 142.129 289.459 141.584 288.892 141.232C286.957 140.037 284.922 139.928 282.694 139.983C280.465 140.087 278.262 140.556 276.161 141.372C274.433 142.008 272.627 142.924 271.748 144.631L272.848 145.353C275.629 147.497 278.963 148.632 282.373 148.596C284.007 148.695 285.619 148.143 286.907 147.044C287.456 146.493 287.871 145.795 288.435 145.267C288.82 144.91 289.27 144.639 289.634 144.258C289.826 144.079 289.974 143.85 290.065 143.592C290.156 143.335 290.187 143.057 290.155 142.784Z" fill="black"/>
</g>
<path d="M239.904 173.203L275.497 173.715C275.569 173.715 275.641 173.697 275.705 173.661C275.77 173.625 275.826 173.574 275.869 173.511C275.912 173.447 275.941 173.374 275.953 173.296C275.965 173.218 275.961 173.139 275.94 173.064L271.763 158.909C271.763 158.909 272.377 151.832 273.226 143.327C274.519 130.407 276.239 114.165 276.261 114.212C273.826 106.793 259.46 105.536 259.46 105.536L243.088 106.591L242.517 105.544L237.805 107.926C236.777 108.446 235.789 109.053 234.849 109.742C231.736 112 224.239 117.192 222.868 122.973C219.705 136.359 225.06 151.297 225.06 151.297L228.501 148.371C229.368 147.645 230.28 146.984 231.229 146.392L238.126 166.483C237.716 166.764 237.368 167.141 237.109 167.587C236.849 168.033 236.685 168.536 236.627 169.059C236.57 170.689 237.341 172.644 239.904 173.203Z" fill="#90CAF9"/>
<g opacity="0.3">
<path opacity="0.3" d="M255.176 149.52C256.305 142.924 255.712 136.141 255.105 129.468C253.134 134.9 253.206 141.108 251.114 146.493C250.857 147.062 250.67 147.664 250.557 148.286C250.502 148.598 250.517 148.919 250.599 149.224C250.68 149.529 250.828 149.808 251.028 150.04C251.599 150.606 252.456 150.296 253.213 150.202C253.89 150.062 254.55 149.833 255.176 149.52Z" fill="black"/>
</g>
<g opacity="0.4">
<path opacity="0.4" d="M242.046 164.791C244.902 165.87 247.944 163.86 250.964 163.503C252.963 163.27 254.962 163.767 256.947 164.116C260.961 164.822 265.044 164.932 269.085 164.442C269.705 164.405 270.312 164.234 270.87 163.938C271.159 163.724 271.395 163.437 271.558 163.102C271.721 162.766 271.806 162.393 271.806 162.013C265.08 161.237 258.361 160.818 251.635 160.065C249.961 159.755 248.246 159.816 246.594 160.244C244.566 160.927 243.024 162.657 241.596 164.372" fill="black"/>
</g>
<path d="M289.127 140.239C286.221 133.123 275.975 113.443 275.975 113.443L268.043 124.253L269.892 145.477C269.892 145.477 274.083 140.394 285.8 140.293C286.651 140.33 287.484 140.574 288.238 141.006C288.992 141.438 289.647 142.048 290.155 142.792L289.127 140.239Z" fill="#90CAF9"/>
<path d="M241.496 136.475C240.93 134.966 240.481 133.409 240.154 131.819C239.71 130.27 239.386 128.684 239.183 127.078C239.74 128.589 240.187 130.146 240.518 131.734C240.962 133.283 241.289 134.868 241.496 136.475Z" fill="#263238"/>
<path d="M267.443 122.818C267.701 123.016 267.94 123.242 268.157 123.493C268.788 124.155 269.379 124.86 269.928 125.603C271.774 128.056 273.072 130.941 273.719 134.031C274.055 135.739 274.13 137.495 273.94 139.23C273.762 140.821 273.483 142.218 273.298 143.397C273.112 144.577 272.998 145.539 272.941 146.206C272.939 146.553 272.906 146.899 272.841 147.238C272.79 146.892 272.776 146.54 272.798 146.191C272.829 145.24 272.91 144.291 273.041 143.35C273.191 142.163 273.441 140.751 273.605 139.191C273.77 137.496 273.686 135.783 273.355 134.116C272.715 131.084 271.475 128.24 269.721 125.782C268.414 123.873 267.386 122.88 267.443 122.818Z" fill="#263238"/>
<path d="M260.175 171.496C259.926 171.616 259.665 171.7 259.396 171.744C259.091 171.832 258.781 171.897 258.468 171.938C258.104 171.993 257.69 172.078 257.226 172.101C256.138 172.21 255.043 172.21 253.956 172.101C252.625 171.953 251.31 171.667 250.029 171.248C248.754 170.802 247.52 170.228 246.344 169.533C245.391 168.954 244.485 168.287 243.638 167.538C243.267 167.228 242.967 166.902 242.696 166.63C242.462 166.401 242.24 166.158 242.032 165.901C241.833 165.701 241.662 165.471 241.525 165.218C241.575 165.164 242.339 166.095 243.802 167.313C244.658 168.02 245.562 168.653 246.509 169.207C247.671 169.871 248.885 170.424 250.136 170.86C251.395 171.272 252.685 171.563 253.991 171.729C255.058 171.853 256.132 171.89 257.204 171.837C259.039 171.729 260.16 171.434 260.175 171.496Z" fill="#263238"/>
<path d="M271.163 167.088C271.331 167.439 271.426 167.826 271.441 168.221C271.555 169.167 271.49 170.128 271.249 171.046C271.003 171.984 270.506 172.822 269.821 173.451C269.299 173.925 268.899 174.072 268.878 174.033C268.857 173.995 269.192 173.739 269.642 173.257C270.22 172.603 270.639 171.803 270.863 170.929C271.434 168.881 271.027 167.096 271.163 167.088Z" fill="#263238"/>
<path d="M269.228 169.82C269.383 170.618 269.321 171.448 269.05 172.208C268.778 172.969 268.309 173.627 267.7 174.103C267.621 174.018 268.285 173.25 268.7 172.062C269.114 170.875 269.121 169.828 269.228 169.82Z" fill="#263238"/>
<path d="M262.859 144.289C262.481 144.985 262.056 145.649 261.588 146.276C261.219 146.977 260.801 147.646 260.339 148.278C260.476 147.459 260.8 146.691 261.281 146.043C261.662 145.323 262.205 144.719 262.859 144.289Z" fill="#263238"/>
<path d="M238.426 125.495C237.882 125.148 237.355 124.769 236.848 124.362C234.309 122.549 231.427 121.379 228.416 120.94C227.785 120.89 227.158 120.799 226.538 120.668C227.17 120.573 227.812 120.573 228.444 120.668C231.538 120.955 234.5 122.154 237.012 124.137C237.539 124.516 238.015 124.973 238.426 125.495Z" fill="#263238"/>
<path d="M275.975 113.187C274.697 114.306 273.504 115.533 272.405 116.858C271.394 118.272 270.489 119.772 269.699 121.343C269.784 120.815 269.95 120.306 270.192 119.838C270.709 118.674 271.356 117.585 272.12 116.594C272.885 115.605 273.763 114.727 274.733 113.979C275.102 113.639 275.522 113.371 275.975 113.187Z" fill="#263238"/>
<path d="M261.281 106.793C261.346 106.905 261.399 107.025 261.438 107.15C261.578 107.501 261.69 107.865 261.774 108.236C262.075 109.619 262.075 111.059 261.774 112.442C261.329 114.507 260.313 116.373 258.861 117.789C257.028 119.476 254.693 120.381 252.292 120.334C249.888 120.343 247.547 119.508 245.616 117.952C244.078 116.675 242.829 115.032 241.967 113.149C241.387 111.887 240.978 110.541 240.754 109.152C240.688 108.778 240.645 108.399 240.625 108.019C240.605 107.886 240.605 107.749 240.625 107.616C240.625 107.616 240.704 108.159 240.904 109.121C241.181 110.471 241.621 111.775 242.21 113.001C243.081 114.828 244.318 116.419 245.83 117.657C247.691 119.154 249.941 119.97 252.256 119.985C254.571 120.031 256.823 119.172 258.604 117.564C260.006 116.2 261.001 114.411 261.46 112.427C261.777 111.088 261.821 109.689 261.588 108.33C261.452 107.305 261.238 106.809 261.281 106.793Z" fill="#263238"/>
<g opacity="0.3">
<path opacity="0.3" d="M263.78 145.663C263.78 145.275 263.723 144.817 263.409 144.623C263.309 144.568 263.199 144.54 263.088 144.54C262.976 144.54 262.866 144.568 262.766 144.623C262.567 144.74 262.39 144.898 262.245 145.089C261.406 146.038 260.757 147.166 260.339 148.402L263.837 148.068C263.816 147.285 263.802 146.462 263.78 145.663Z" fill="black"/>
</g>
<g opacity="0.3">
<path opacity="0.3" d="M275.397 137.662C275.045 135.487 274.168 133.451 272.855 131.765C274.369 137.135 273.862 140.169 273.012 143.847L273.198 143.335C274.176 141.185 275.661 139.835 275.397 137.662Z" fill="black"/>
</g>
<path d="M268.407 318.051L266.272 352.855L252.349 352.676L250.157 316.492L268.407 318.051Z" fill="#FFBE9D"/>
<path d="M266.665 348.277V349.285C266.665 349.285 282.373 356.145 282.523 359.373L251.328 359.187L251.814 347.912C256.462 350.279 261.324 350.574 266.665 348.277Z" fill="#90CAF9"/>
<path d="M254.977 351.528C254.68 351.625 254.427 351.837 254.264 352.122C254.101 352.408 254.04 352.748 254.091 353.08C254.168 353.411 254.359 353.697 254.625 353.878C254.892 354.059 255.212 354.12 255.519 354.05C255.837 353.947 256.108 353.719 256.279 353.41C256.451 353.102 256.511 352.735 256.447 352.382C256.334 352.046 256.105 351.772 255.81 351.617C255.514 351.462 255.174 351.439 254.862 351.551" fill="white"/>
<path d="M251.328 359.187L251.442 356.479L281.316 357.658C281.316 357.658 282.701 358.326 282.537 359.381L251.328 359.187Z" fill="#263238"/>
<path d="M266.779 349.378C266.779 349.541 266.008 349.611 265.258 350.155C264.508 350.698 264.101 351.373 263.966 351.311C263.83 351.249 264.059 350.286 264.98 349.666C265.901 349.045 266.815 349.2 266.779 349.378Z" fill="#263238"/>
<path d="M270.042 350.868C270.078 351.031 269.414 351.303 268.892 352.001C268.371 352.7 268.221 353.437 268.064 353.429C267.907 353.421 267.821 352.482 268.485 351.637C269.149 350.791 270.035 350.752 270.042 350.868Z" fill="#263238"/>
<path d="M271.877 355.136C271.734 355.136 271.527 354.36 271.927 353.437C272.327 352.513 273.034 352.18 273.098 352.312C273.162 352.444 272.719 352.933 272.384 353.685C272.048 354.438 272.034 355.121 271.877 355.136Z" fill="#263238"/>
<path d="M265.865 63.5156C266.672 61.3428 265.694 58.7121 263.959 57.3076C262.13 55.9993 259.9 55.5281 257.754 55.9961C255.636 56.4787 253.586 57.2614 251.656 58.3241C250.759 57.3404 249.628 56.6472 248.389 56.3219C247.15 55.9965 245.852 56.0519 244.64 56.4817C243.429 56.9115 242.351 57.699 241.527 58.7561C240.703 59.8131 240.166 61.0983 239.975 62.468C239.203 62.2568 238.393 62.278 237.631 62.5294C236.87 62.7809 236.185 63.2529 235.652 63.895C235.118 64.5371 234.756 65.325 234.603 66.1741C234.45 67.0232 234.513 67.9015 234.785 68.7148L244.438 72.4008L254.977 92.5768C256.534 94.0209 258.522 94.7999 260.569 94.7684C262.616 94.7369 264.583 93.897 266.102 92.4054C267.621 90.9139 268.589 88.8726 268.825 86.6623C269.062 84.4521 268.55 82.2239 267.386 80.3936C267.976 79.8229 268.478 79.152 268.871 78.407C269.713 77.8657 270.448 77.148 271.033 76.2954C271.617 75.4428 272.04 74.4724 272.277 73.4406C273.212 68.9476 270.013 64.0432 265.865 63.5156Z" fill="#263238"/>
<path d="M259.475 105.536C258.875 102.253 258.461 100.003 258.468 100.026C258.475 100.05 264.18 97.6207 263.766 88.9838C263.566 84.6848 262.059 77.9103 260.66 72.4162C259.403 67.4654 255.155 62.0101 250.664 63.5854L237.048 70.8022C235.684 71.2833 235.449 72.6801 235.77 74.1933V74.9693L241.061 98.7614L243.295 109.393C243.772 111.576 244.983 113.486 246.69 114.747C248.398 116.008 250.478 116.528 252.52 116.206C253.636 116.035 254.708 115.619 255.67 114.982C256.632 114.345 257.465 113.501 258.116 112.502C258.767 111.502 259.223 110.369 259.457 109.171C259.691 107.973 259.697 106.736 259.475 105.536Z" fill="#FFBE9D"/>
<path d="M260.61 78.1587C260.667 78.434 260.625 78.7227 260.492 78.9653C260.359 79.2079 260.146 79.3858 259.896 79.4623C259.77 79.5006 259.638 79.5108 259.508 79.4922C259.378 79.4736 259.253 79.4266 259.14 79.3541C259.028 79.2816 258.93 79.1851 258.852 79.0703C258.775 78.9556 258.719 78.825 258.689 78.6863C258.632 78.412 258.675 78.1243 258.808 77.883C258.941 77.6417 259.154 77.4653 259.403 77.3904C259.529 77.3509 259.661 77.3396 259.791 77.3572C259.92 77.3748 260.046 77.4209 260.158 77.4928C260.271 77.5647 260.37 77.6608 260.447 77.7753C260.525 77.8897 260.58 78.0202 260.61 78.1587Z" fill="#263238"/>
<path d="M259.989 76.5058C259.889 76.6766 259.025 76.2498 257.968 76.5058C256.911 76.7619 256.24 77.5069 256.098 77.3905C255.955 77.2741 256.098 77.0568 256.39 76.7154C256.783 76.2642 257.294 75.9554 257.854 75.8307C258.406 75.7013 258.982 75.7693 259.496 76.0247C259.896 76.2032 260.032 76.436 259.989 76.5058Z" fill="#263238"/>
<path d="M250.243 80.704C250.3 80.9783 250.257 81.266 250.124 81.5073C249.992 81.7486 249.778 81.925 249.529 81.9999C249.405 82.0389 249.276 82.0509 249.149 82.0353C249.021 82.0197 248.898 81.9767 248.785 81.9089C248.673 81.8411 248.574 81.7497 248.495 81.6401C248.415 81.5305 248.357 81.4049 248.322 81.2705C248.265 80.9951 248.307 80.7064 248.44 80.4638C248.573 80.2212 248.786 80.0433 249.036 79.9668C249.16 79.9279 249.289 79.9162 249.417 79.9323C249.545 79.9484 249.669 79.9921 249.781 80.0607C249.894 80.1293 249.992 80.2215 250.072 80.3319C250.151 80.4424 250.209 80.5689 250.243 80.704Z" fill="#263238"/>
<path d="M249.721 79.2451C249.629 79.4158 248.758 78.9812 247.701 79.2451C246.644 79.5089 245.973 80.2384 245.83 80.1297C245.687 80.0211 245.83 79.796 246.123 79.4468C246.518 78.9997 247.028 78.6939 247.587 78.57C248.138 78.4425 248.713 78.5076 249.229 78.7562C249.607 78.9424 249.771 79.152 249.721 79.2451Z" fill="#263238"/>
<path d="M255.098 86.5395C255.621 86.2256 256.178 85.9808 256.754 85.8101C257.019 85.7169 257.268 85.6005 257.276 85.391C257.238 85.0824 257.116 84.7931 256.926 84.5607L255.691 82.4965C253.963 79.5555 252.649 77.1189 252.756 77.0645C252.863 77.0102 254.355 79.3149 256.083 82.256L257.29 84.3357C257.527 84.6539 257.656 85.0514 257.654 85.4609C257.633 85.5725 257.589 85.6776 257.526 85.7688C257.463 85.86 257.383 85.935 257.29 85.9885C257.15 86.0689 257.001 86.1289 256.847 86.167C256.282 86.3772 255.694 86.5025 255.098 86.5395Z" fill="#263238"/>
<path d="M258.468 100.026C254.857 100.913 251.09 100.693 247.587 99.39C247.587 99.39 251.328 104.698 258.875 102.16L258.468 100.026Z" fill="#EB996E"/>
<path d="M249.9 77.6C249.829 77.9337 248.736 77.9259 247.494 78.2596C246.251 78.5933 245.266 79.0977 245.066 78.8338C244.981 78.7097 245.123 78.3837 245.502 78.0578C246.005 77.5975 246.602 77.2754 247.244 77.1189C247.88 76.9548 248.543 76.9548 249.179 77.1189C249.686 77.2197 249.95 77.4448 249.9 77.6Z" fill="#263238"/>
<path d="M259.582 72.843C259.41 73.1534 258.497 73.0758 257.44 73.3009C256.383 73.5259 255.548 73.9139 255.298 73.6889C255.184 73.5725 255.298 73.2776 255.605 72.9129C256.076 72.482 256.646 72.1977 257.254 72.0903C257.852 71.9594 258.472 72.0077 259.046 72.23C259.482 72.4473 259.653 72.6878 259.582 72.843Z" fill="#263238"/>
<path d="M240.411 65.246C240.569 66.0866 240.895 66.8791 241.367 67.5672C241.838 68.2553 242.444 68.822 243.14 69.2272C243.835 69.6324 244.605 69.866 245.393 69.9116C246.182 69.9571 246.969 69.8134 247.701 69.4907C248.829 68.9941 250 68.0629 251.142 68.5129C252.285 68.963 252.756 70.7323 253.848 71.3919C255.455 72.3697 257.418 70.678 259.211 70.8487C260.639 70.9806 261.717 72.1679 262.823 73.1767C263.93 74.1855 265.458 74.946 266.708 74.2165C266.421 72.9206 265.997 71.6654 265.444 70.4762C264.885 69.279 263.962 68.3299 262.831 67.7913C262.202 67.5197 261.524 67.4265 260.924 67.0929C259.632 66.3789 259.053 64.7649 258.118 63.5465C257.504 62.7788 256.73 62.1812 255.861 61.8034C254.992 61.4255 254.052 61.2782 253.12 61.3737C251.578 61.5445 250.114 62.3903 248.558 62.3205C247.408 62.2661 246.309 61.7074 245.159 61.7307C242.924 61.7307 241.246 63.9035 240.004 65.9289" fill="#263238"/>
<path d="M247.936 67.0231C246.908 66.9377 244.809 66.7049 244.117 65.9134C243.413 65.0581 242.515 64.4187 241.513 64.0592C240.51 63.6996 239.438 63.6326 238.405 63.8648C237.379 64.1971 236.478 64.8787 235.836 65.8091C235.193 66.7395 234.842 67.8695 234.835 69.0329C233.585 69.3643 232.442 70.0561 231.524 71.0355C230.607 72.0148 229.95 73.2453 229.622 74.5968C229.29 76.0118 229.279 77.4932 229.59 78.9139C229.901 80.3345 230.524 81.6519 231.407 82.7526C231.836 83.3355 232.228 83.95 232.578 84.5917C232.094 85.2445 231.669 85.9461 231.307 86.6869C229.672 90.6135 234.106 92.1189 234.106 92.1189C234.106 94.7573 236.355 94.7418 237.791 94.734C239.226 94.7263 240.018 98.8934 241.139 98.7304L240.004 85.8721C240.17 85.9424 240.347 85.9792 240.525 85.9808C243.231 86.0351 242.524 80.4634 241.653 78.9968C242.46 77.906 243.14 76.7125 243.681 75.4427C244.171 73.5016 244.206 71.4578 243.781 69.4985C244.688 69.3744 248.379 67.0541 247.936 67.0231Z" fill="#263238"/>
<path d="M240.361 86.5549C240.269 86.1464 240.083 85.7698 239.821 85.4604C239.558 85.1511 239.228 84.9189 238.861 84.7856C238.494 84.6524 238.102 84.6223 237.721 84.6983C237.34 84.7743 236.983 84.9539 236.684 85.2202C235.97 85.8876 235.591 87.005 236.02 88.8752C237.177 93.8726 241.553 91.5834 241.525 91.4437C241.496 91.3041 240.861 88.6191 240.361 86.5549Z" fill="#FFBE9D"/>
<path d="M239.683 89.9305C239.683 89.9305 239.618 90.0159 239.497 90.1168C239.328 90.2575 239.116 90.3214 238.904 90.2953C238.376 90.2332 237.769 89.5193 237.541 88.6113C237.432 88.1871 237.41 87.7421 237.476 87.3077C237.484 87.1389 237.528 86.9745 237.607 86.8286C237.685 86.6827 237.795 86.5595 237.926 86.4696C238.013 86.4188 238.113 86.4026 238.21 86.4239C238.306 86.4452 238.393 86.5025 238.455 86.586C238.547 86.7024 238.54 86.811 238.569 86.8188C238.597 86.8265 238.647 86.7024 238.569 86.5084C238.514 86.3933 238.426 86.3007 238.319 86.2445C238.168 86.1781 237.999 86.1781 237.848 86.2445C237.668 86.3371 237.513 86.4774 237.397 86.6524C237.281 86.8274 237.208 87.0314 237.184 87.2456C237.091 87.7343 237.108 88.24 237.234 88.72C237.313 89.1706 237.514 89.5856 237.81 89.9128C238.106 90.24 238.484 90.4649 238.897 90.5591C239.032 90.565 239.166 90.5381 239.289 90.4804C239.413 90.4226 239.523 90.3355 239.611 90.2254C239.704 90.0547 239.704 89.9383 239.683 89.9305Z" fill="#EB996E"/>
<path d="M265.015 79.5788C265.015 79.5788 265.437 79.2296 266.022 78.4536C266.83 77.3355 267.326 75.9888 267.45 74.5736C267.545 73.6075 267.457 72.6306 267.193 71.7024C266.888 70.6377 266.323 69.6829 265.558 68.9398C264.675 68.1015 263.605 67.5287 262.455 67.2782C261.306 67.0278 260.116 67.1084 259.003 67.512C258.789 67.5896 258.589 67.706 258.389 67.7991C258.19 67.8922 258.011 68.0319 257.825 68.1483L257.54 68.319V67.9776C257.534 67.3765 257.328 66.7979 256.961 66.348C256.586 65.9114 256.124 65.5719 255.612 65.3547C254.642 64.9155 253.568 64.8284 252.549 65.1064C250.578 65.5953 248.908 66.573 247.33 66.7748C246.092 67.0085 244.819 66.7318 243.76 65.9988C243.48 65.7897 243.238 65.5267 243.046 65.2228C242.931 65.0133 242.874 64.8969 242.889 64.8891C243.147 65.2723 243.463 65.6055 243.824 65.8746C244.866 66.5286 246.091 66.7518 247.272 66.5032C248.095 66.3351 248.899 66.075 249.671 65.7272C250.579 65.333 251.509 65.0038 252.456 64.7417C252.984 64.6029 253.527 64.5428 254.07 64.5632C254.643 64.5961 255.206 64.7379 255.733 64.9822C256.279 65.2358 256.767 65.6174 257.161 66.0997C257.584 66.625 257.821 67.2957 257.832 67.9931L257.547 67.8224L258.14 67.4499C258.361 67.3568 258.568 67.2326 258.796 67.1473C259.969 66.711 261.226 66.6197 262.441 66.8827C263.657 67.1458 264.786 67.7538 265.715 68.645C266.518 69.4351 267.106 70.4498 267.414 71.5782C267.735 72.7743 267.778 74.0379 267.54 75.2565C267.302 76.4751 266.79 77.6107 266.051 78.5622C265.815 78.8539 265.549 79.1144 265.258 79.3382C265.186 79.4288 265.105 79.5096 265.015 79.5788Z" fill="#455A64"/>
<path d="M264.087 62.0334C263.618 61.7748 263.119 61.5893 262.602 61.4825C262.012 61.3947 261.411 61.4558 260.846 61.6609C260.114 61.9043 259.478 62.4069 259.039 63.0888L258.861 63.3604L258.754 63.05C258.381 62.0961 257.781 61.2674 257.015 60.6495C256.25 60.0316 255.346 59.6468 254.398 59.5347C252.909 59.4738 251.442 59.9365 250.214 60.8539C249.168 61.595 248.056 62.219 246.894 62.7163C246.093 63.0456 245.23 63.1574 244.381 63.0422C244.154 62.9968 243.932 62.9292 243.717 62.8405C243.574 62.7706 243.495 62.7318 243.503 62.7163C243.51 62.7008 243.824 62.8172 244.402 62.8793C245.224 62.935 246.046 62.7892 246.808 62.4525C247.937 61.9174 249.02 61.2733 250.043 60.528C250.675 60.1015 251.344 59.7454 252.042 59.4648C252.809 59.1609 253.628 59.0469 254.441 59.1312C255.454 59.2513 256.417 59.6677 257.23 60.3359C258.042 61.0041 258.672 61.8992 259.054 62.9258H258.775C259.266 62.1966 259.967 61.6667 260.767 61.4204C261.375 61.2289 262.016 61.1943 262.638 61.3195C263.032 61.4008 263.409 61.5585 263.752 61.7851C263.874 61.8501 263.987 61.9337 264.087 62.0334Z" fill="#455A64"/>
<path d="M255.041 91.2498C254.984 91.2498 254.919 91.017 254.727 90.6988C254.494 90.2723 254.147 89.9334 253.733 89.7281C253.318 89.5227 252.855 89.4606 252.406 89.5503C252.056 89.6046 251.842 89.7133 251.821 89.659C251.799 89.6046 251.963 89.4184 252.349 89.271C252.854 89.0945 253.401 89.1276 253.884 89.3641C254.372 89.6002 254.758 90.0307 254.962 90.5669C255.112 90.9704 255.091 91.242 255.041 91.2498Z" fill="#263238"/>
<path d="M240.468 92.212C240.468 92.212 240.675 92.6 240.404 93.1898C240.25 93.5427 239.98 93.8197 239.647 93.9658C239.439 94.0466 239.217 94.074 238.997 94.0458C238.778 94.0175 238.568 93.9343 238.383 93.8028C238.195 93.6786 238.036 93.509 237.919 93.3071C237.801 93.1052 237.728 92.8765 237.705 92.6388C237.683 92.2555 237.787 91.8763 237.998 91.5679C238.369 91.0558 238.783 91.0402 238.783 91.0868C238.783 91.1334 238.469 91.2653 238.219 91.7309C238.074 91.9917 238.014 92.2976 238.048 92.6C238.074 92.7771 238.136 92.9458 238.228 93.0945C238.321 93.2432 238.442 93.3684 238.583 93.4614C238.722 93.5583 238.879 93.6222 239.043 93.6489C239.206 93.6756 239.373 93.6646 239.533 93.6166C239.796 93.514 240.024 93.324 240.182 93.0734C240.461 92.5922 240.411 92.212 240.468 92.212Z" fill="#90CAF9"/>
<path d="M238.062 91.9094C238.098 91.9094 238.062 92.1733 237.726 92.344C237.561 92.4184 237.38 92.4401 237.205 92.4063C237.029 92.3725 236.866 92.2847 236.734 92.1534C236.603 92.022 236.509 91.8525 236.463 91.6649C236.417 91.4773 236.422 91.2794 236.477 91.0946C236.547 90.8848 236.68 90.7069 236.855 90.5902C237.148 90.3962 237.369 90.4738 237.362 90.5204C237.355 90.567 237.191 90.6213 237.012 90.8153C236.924 90.9345 236.871 91.0793 236.858 91.2315C236.846 91.3836 236.875 91.5364 236.942 91.6706C237.009 91.8049 237.111 91.9146 237.236 91.9861C237.36 92.0575 237.501 92.0876 237.641 92.0724C237.883 92.0181 238.012 91.8784 238.062 91.9094Z" fill="#90CAF9"/>
<path d="M245.909 160.826C245.909 160.826 263.587 161.943 274.04 162.044C282.13 162.13 285.743 159.794 287.356 154.137C288.713 149.395 285.8 140.293 285.8 140.293C280.324 140.293 276.946 141.147 273.426 142.939L274.362 147.098L245.859 149.768L245.909 160.826Z" fill="#FFBE9D"/>
<path d="M280.302 151.537C279.535 150.454 278.64 149.486 277.639 148.658C276.565 147.944 275.407 147.391 274.197 147.013C274.578 146.954 274.967 146.991 275.333 147.122C276.231 147.353 277.083 147.76 277.846 148.325C278.61 148.891 279.271 149.607 279.795 150.435C280.195 151.072 280.345 151.514 280.302 151.537Z" fill="#EB996E"/>
<path d="M239.44 142.908C239.44 142.908 233.971 144.336 229.951 147.254L234.235 159.872C235.663 164.015 240.025 166.08 243.517 163.907C248.893 160.562 250.793 150.816 250.793 150.816L256.697 122.973L246.908 116.307L239.476 142.908" fill="#FFBE9D"/>
<path d="M246.873 116.307L247.273 107.15L245.081 97.8381C244.959 97.3259 244.902 96.6819 245.288 96.3715C245.479 96.2121 245.715 96.1297 245.956 96.1382C246.196 96.1467 246.427 96.2455 246.608 96.418C247.201 97.0854 250.057 105.226 250.057 105.226C250.057 105.226 254.391 102.401 255.162 102.261C255.933 102.122 256.897 104.659 256.961 104.853C256.99 105.422 256.99 105.992 256.961 106.56C256.961 106.56 259.639 106.646 259.882 107.041C260.076 107.85 260.179 108.681 260.189 109.517C260.189 109.517 261.324 109.913 261.502 110.844C261.681 111.775 262.052 113.312 261.502 113.653C260.953 113.994 259.839 114.662 259.839 114.662C259.839 114.662 259.389 119.411 259.268 119.845C259.146 120.28 256.64 122.949 256.64 122.949L246.873 116.307Z" fill="#FFBE9D"/>
<path d="M237.762 164.093C237.762 164.093 238.026 164.264 238.583 164.458C239.397 164.735 240.259 164.81 241.104 164.675C242.46 164.465 243.731 163.828 244.759 162.844C246.118 161.503 247.266 159.931 248.158 158.188C248.683 157.163 249.125 156.091 249.479 154.983C249.85 153.764 250.158 152.523 250.4 151.266C250.957 148.65 251.564 145.834 252.206 142.838C253.491 136.855 254.934 130.166 256.49 122.957V122.903H256.526C257.019 122.375 257.511 121.84 258.004 121.281C258.247 121.002 258.489 120.722 258.718 120.435C258.832 120.288 258.954 120.14 259.046 119.993C259.119 119.847 259.16 119.685 259.168 119.519C259.361 117.967 259.51 116.361 259.668 114.739V114.638L259.753 114.592L261.117 113.762C261.217 113.692 261.374 113.614 261.438 113.552C261.507 113.485 261.552 113.395 261.567 113.296C261.6 113.039 261.6 112.777 261.567 112.52C261.498 111.951 261.39 111.388 261.246 110.836C261.003 110.353 260.595 109.994 260.11 109.835L259.989 109.788V109.656C259.989 109.206 259.946 108.741 259.896 108.283C259.877 108.054 259.846 107.826 259.803 107.6C259.787 107.501 259.758 107.404 259.718 107.313C259.718 107.259 259.718 107.313 259.675 107.266C259.636 107.244 259.595 107.226 259.553 107.212C258.695 107.009 257.819 106.902 256.94 106.894H256.754V106.692C256.754 106.211 256.754 105.676 256.754 105.14C256.725 104.958 256.667 104.782 256.583 104.62C256.512 104.434 256.426 104.256 256.34 104.069C256.173 103.71 255.977 103.367 255.755 103.045C255.654 102.895 255.531 102.764 255.391 102.657C255.339 102.609 255.275 102.58 255.208 102.571C255.141 102.563 255.073 102.577 255.012 102.61C254.667 102.754 254.331 102.923 254.006 103.115C252.677 103.891 251.378 104.667 250.107 105.505L249.921 105.629L249.843 105.412C249.172 103.573 248.501 101.757 247.844 99.9798C247.515 99.0874 247.194 98.195 246.866 97.3181C246.815 97.1216 246.714 96.9447 246.575 96.8074C246.437 96.6702 246.265 96.5782 246.08 96.5421C245.909 96.4805 245.725 96.4839 245.556 96.5515C245.387 96.6192 245.245 96.7472 245.152 96.9146C245.063 97.081 245.025 97.2741 245.045 97.4655C245.045 97.6362 245.145 97.9001 245.188 98.1096C245.302 98.5597 245.409 99.002 245.516 99.4443C245.73 100.337 245.937 101.214 246.152 102.083C246.57 103.831 246.982 105.538 247.387 107.204V107.259C247.244 110.445 247.108 113.498 246.98 116.415V116.4L240.475 139.401L238.64 145.803C238.426 146.524 238.262 147.091 238.148 147.486C238.033 147.882 237.962 148.053 237.962 148.053C237.962 148.053 237.998 147.851 238.098 147.471L238.547 145.772C238.962 144.274 239.554 142.109 240.304 139.346C241.846 133.79 244.038 125.859 246.687 116.299V116.338C246.811 113.43 246.937 110.378 247.065 107.181V107.235C246.658 105.567 246.237 103.86 245.816 102.122L245.173 99.4831C245.066 99.0408 244.959 98.5907 244.845 98.1484C244.783 97.9161 244.733 97.6803 244.695 97.4422C244.669 97.1729 244.721 96.9013 244.845 96.6662C244.977 96.4242 245.181 96.2381 245.423 96.1386C245.663 96.0623 245.916 96.0537 246.16 96.1134C246.404 96.1732 246.629 96.2993 246.816 96.48C246.995 96.6627 247.128 96.8926 247.201 97.1474L248.179 99.809C248.843 101.594 249.507 103.41 250.186 105.241L249.921 105.14C251.2 104.318 252.485 103.495 253.841 102.727C254.184 102.532 254.537 102.358 254.898 102.207C255.011 102.156 255.134 102.137 255.255 102.153C255.377 102.172 255.494 102.219 255.598 102.292C255.77 102.426 255.921 102.589 256.048 102.773C256.286 103.113 256.494 103.477 256.669 103.86C256.762 104.054 256.847 104.24 256.926 104.434C257.027 104.639 257.095 104.863 257.126 105.094C257.126 105.645 257.126 106.157 257.126 106.646L256.947 106.436C257.865 106.443 258.78 106.557 259.675 106.778C259.736 106.801 259.796 106.829 259.853 106.863C259.932 106.909 259.996 106.979 260.039 107.065C260.094 107.191 260.135 107.324 260.16 107.46C260.203 107.709 260.232 107.942 260.26 108.182C260.303 108.655 260.332 109.121 260.353 109.587L260.224 109.4C260.516 109.493 260.788 109.65 261.022 109.861C261.257 110.072 261.449 110.332 261.588 110.626C261.745 111.216 261.859 111.818 261.931 112.427C261.981 112.737 261.981 113.055 261.931 113.366C261.9 113.554 261.809 113.724 261.674 113.847C261.557 113.932 261.435 114.01 261.31 114.08L259.953 114.848L260.046 114.7C259.882 116.322 259.732 117.913 259.532 119.488L259.489 119.791C259.473 119.914 259.426 120.029 259.353 120.125C259.248 120.295 259.131 120.455 259.004 120.606C258.761 120.901 258.518 121.188 258.29 121.467C257.797 122.026 257.304 122.561 256.804 123.089L256.854 122.996C255.284 130.197 253.827 136.886 252.52 142.869C251.871 145.857 251.249 148.674 250.678 151.281C250.434 152.547 250.119 153.797 249.736 155.021C249.368 156.14 248.915 157.222 248.379 158.257C247.467 160.023 246.292 161.612 244.902 162.96C243.843 163.951 242.54 164.582 241.154 164.776C240.291 164.902 239.413 164.806 238.59 164.496C238.381 164.413 238.178 164.312 237.983 164.194L237.762 164.093Z" fill="#EB996E"/>
<path d="M256.969 106.584C256.969 106.638 256.726 106.669 256.347 106.684C255.867 106.694 255.388 106.757 254.919 106.871C254.467 106.992 254.049 107.234 253.706 107.577C253.449 107.841 253.334 108.066 253.277 108.042C253.22 108.019 253.277 107.74 253.513 107.383C253.845 106.931 254.308 106.614 254.827 106.483C255.326 106.349 255.845 106.322 256.355 106.405C256.74 106.459 256.969 106.529 256.969 106.584Z" fill="#EB996E"/>
<path d="M254.898 106.669C254.805 106.63 254.798 106.39 254.898 106.133C254.998 105.877 255.141 105.699 255.234 105.738C255.326 105.777 255.341 106.017 255.234 106.273C255.126 106.529 254.969 106.708 254.898 106.669Z" fill="#EB996E"/>
<path d="M260.31 109.486C259.617 109.719 258.893 109.826 258.168 109.804C257.94 109.796 257.713 109.847 257.507 109.954C257.301 110.06 257.121 110.219 256.983 110.417C256.797 110.735 256.862 110.999 256.804 111.015C256.747 111.03 256.576 110.758 256.754 110.293C256.853 110.031 257.032 109.814 257.261 109.68C257.526 109.522 257.818 109.427 258.118 109.4C258.847 109.279 259.591 109.308 260.31 109.486Z" fill="#EB996E"/>
<path d="M259.839 112.279C259.939 112.279 259.996 112.854 259.967 113.56C259.939 114.266 259.832 114.825 259.732 114.825C259.632 114.825 259.568 114.243 259.596 113.536C259.625 112.83 259.732 112.272 259.839 112.279Z" fill="#EB996E"/>
<path d="M262.802 133.177L263.437 130.802C263.467 130.694 263.521 130.595 263.596 130.516C263.671 130.438 263.763 130.381 263.864 130.353C263.965 130.325 264.071 130.326 264.171 130.356C264.272 130.385 264.363 130.443 264.437 130.523L265.272 131.447L265.787 129.204C265.817 129.074 265.883 128.958 265.976 128.871C266.069 128.783 266.185 128.729 266.307 128.716C266.429 128.702 266.553 128.73 266.66 128.795C266.767 128.86 266.854 128.96 266.907 129.08L268.071 131.734L262.802 133.177Z" fill="white"/>
<path d="M268.086 132.75C267.287 133.17 266.439 133.467 265.565 133.635C264.72 133.935 263.84 134.102 262.952 134.132C264.596 133.414 266.324 132.949 268.086 132.75Z" fill="white"/>
<path d="M225.624 119.504C225.624 119.504 225.36 119.799 224.988 120.427C224.49 121.322 224.162 122.317 224.025 123.353C223.821 124.895 223.778 126.457 223.896 128.009C223.975 129.77 224.103 131.695 224.303 133.712C224.641 137.158 225.144 140.582 225.81 143.971C226.06 145.275 226.288 146.299 226.445 147.075C226.516 147.401 226.581 147.673 226.631 147.906C226.681 148.138 226.688 148.2 226.688 148.2C226.688 148.2 226.652 148.107 226.602 147.921C226.552 147.735 226.474 147.409 226.395 147.091C226.217 146.369 225.974 145.329 225.681 144.026C224.987 140.638 224.47 137.21 224.132 133.759C223.932 131.741 223.81 129.809 223.739 128.048C223.631 126.494 223.683 124.932 223.896 123.392C224.049 122.343 224.399 121.339 224.924 120.443C225.118 120.097 225.353 119.781 225.624 119.504Z" fill="white"/>
<path d="M240.654 108.935L240.489 109.028L240.018 109.276C239.611 109.486 239.019 109.796 238.312 110.223C236.469 111.34 234.679 112.557 232.95 113.87C230.908 115.422 229.101 116.834 227.78 117.859L226.217 119.062L225.781 119.38C225.732 119.422 225.68 119.458 225.624 119.488C225.665 119.436 225.713 119.392 225.767 119.356L226.181 119.015L227.716 117.766C229.023 116.718 230.822 115.259 232.864 113.738C234.597 112.42 236.399 111.212 238.262 110.122C238.976 109.711 239.576 109.416 239.997 109.222L240.475 109.005C240.618 108.95 240.618 108.927 240.654 108.935Z" fill="white"/>
<path d="M274.704 113.987C274.66 113.96 274.619 113.926 274.583 113.886L274.262 113.583C273.864 113.218 273.447 112.879 273.012 112.567C271.563 111.562 270.025 110.717 268.421 110.045C266.822 109.356 265.19 108.766 263.53 108.275C262.888 108.081 262.374 107.942 262.009 107.848L261.602 107.732C261.553 107.721 261.505 107.703 261.46 107.678H261.61L262.024 107.763C262.388 107.841 262.909 107.965 263.552 108.143C265.227 108.603 266.873 109.181 268.478 109.874C270.091 110.546 271.631 111.41 273.069 112.45C273.668 112.891 274.217 113.406 274.704 113.987Z" fill="white"/>
<path d="M240.854 173.219C240.757 173.2 240.663 173.166 240.575 173.118C240.327 172.999 240.088 172.859 239.861 172.699C239.477 172.448 239.141 172.118 238.874 171.726C238.607 171.335 238.413 170.89 238.305 170.417C238.109 169.463 238.206 168.465 238.583 167.577C238.692 167.301 238.831 167.041 238.997 166.801C239.111 166.638 239.19 166.561 239.197 166.568C239.002 166.899 238.828 167.244 238.676 167.6C238.344 168.472 238.267 169.434 238.455 170.355C238.659 171.265 239.168 172.059 239.883 172.582C240.475 173.048 240.868 173.188 240.854 173.219Z" fill="white"/>
<path d="M238.583 164.815C238.735 165.123 238.848 165.451 238.919 165.792C239.03 166.119 239.098 166.461 239.119 166.809C238.956 166.508 238.841 166.18 238.776 165.839C238.659 165.512 238.594 165.165 238.583 164.815Z" fill="white"/>
<path d="M248.236 338.802L270.013 338.685L269.621 256.856L269.414 173.614L239.904 173.203L234.599 184.067C232.428 188.435 231.045 193.212 230.522 198.144C230.165 201.915 232.764 214.176 233.664 217.28L241.782 245.262L248.236 338.802Z" fill="#263238"/>
<path d="M275.804 173.715L299.737 244.618C301.155 249.187 301.626 254.039 301.116 258.829C300.607 263.618 299.129 268.226 296.788 272.322L269 331.298L253.377 310.051L276.625 257.283L256.133 221.16L259.582 173.824L269.235 173.653L275.804 173.715Z" fill="#263238"/>
<path d="M267.429 197.469C267.429 197.469 267.429 197.593 267.429 197.833C267.429 198.074 267.464 198.446 267.493 198.904C267.543 199.859 267.607 201.232 267.693 203.009C267.857 206.602 268.086 211.763 268.407 218.134C268.728 224.505 269 232.102 269.356 240.56C269.528 244.781 269.714 249.212 269.899 253.806C270.035 256.134 269.978 258.462 269.999 260.79C270.021 263.118 269.999 265.57 269.999 268.007C269.999 287.508 270.056 305.162 270.078 317.958C270.078 324.337 270.078 329.505 270.078 333.098C270.078 334.875 270.078 336.256 270.078 337.219C270.078 337.669 270.078 337.995 270.078 338.289C270.078 338.584 270.078 338.654 270.078 338.654C270.078 338.654 270.078 338.53 270.078 338.289V337.219C270.078 336.256 270.078 334.891 270.035 333.098C270.035 329.505 269.978 324.345 269.935 317.966C269.885 305.17 269.821 287.516 269.749 268.015C269.749 265.578 269.749 263.173 269.749 260.798C269.749 258.423 269.792 256.08 269.656 253.814C269.478 249.228 269.299 244.797 269.135 240.575C268.807 232.133 268.507 224.536 268.264 218.141C268.021 211.747 267.843 206.61 267.707 203.017C267.65 201.248 267.607 199.867 267.579 198.904C267.579 198.446 267.579 198.128 267.579 197.833C267.579 197.539 267.429 197.469 267.429 197.469Z" fill="#455A64"/>
<path d="M266.879 175.112C266.962 175.362 267.013 175.623 267.029 175.888C267.107 176.385 267.193 177.106 267.293 178.007C267.479 179.799 267.679 182.29 267.793 185.045C267.907 187.8 267.914 190.298 267.879 192.107C267.879 193.007 267.829 193.744 267.793 194.248C267.8 194.51 267.771 194.772 267.707 195.024C267.617 194.055 267.586 193.08 267.614 192.107C267.614 190.298 267.536 187.815 267.422 185.06C267.307 182.306 267.15 179.83 267.029 178.076C266.927 177.092 266.877 176.103 266.879 175.112Z" fill="#455A64"/>
<path d="M262.081 176.711C262.117 176.765 261.71 176.967 261.595 177.595C261.563 177.766 261.572 177.942 261.621 178.108C261.67 178.274 261.757 178.423 261.874 178.542C262.015 178.685 262.191 178.781 262.381 178.818C262.571 178.855 262.767 178.832 262.945 178.752C263.116 178.656 263.259 178.51 263.357 178.33C263.456 178.15 263.506 177.944 263.502 177.735C263.495 177.561 263.448 177.392 263.364 177.244C263.28 177.096 263.163 176.974 263.023 176.889C262.733 176.736 262.409 176.675 262.088 176.711C262.088 176.711 262.159 176.61 262.345 176.548C262.613 176.477 262.895 176.507 263.145 176.633C263.344 176.723 263.516 176.872 263.643 177.062C263.769 177.253 263.843 177.478 263.859 177.712C263.887 178.001 263.831 178.292 263.699 178.545C263.567 178.797 263.366 178.999 263.123 179.12C262.88 179.242 262.608 179.278 262.346 179.223C262.083 179.168 261.843 179.025 261.66 178.814C261.508 178.65 261.4 178.444 261.349 178.218C261.297 177.992 261.303 177.755 261.367 177.533C261.439 177.243 261.6 176.988 261.824 176.812C261.967 176.703 262.074 176.687 262.081 176.711Z" fill="#455A64"/>
<path d="M250.657 175.306C250.762 175.551 250.827 175.813 250.85 176.082C250.965 176.779 250.986 177.49 250.914 178.193C250.811 179.24 250.533 180.258 250.093 181.196C249.561 182.363 248.774 183.37 247.8 184.129C246.827 184.888 245.697 185.376 244.509 185.549C243.559 185.704 242.59 185.664 241.653 185.433C241.019 185.283 240.408 185.035 239.84 184.696C239.625 184.585 239.427 184.439 239.254 184.261C240.044 184.647 240.866 184.946 241.71 185.154C242.726 185.383 243.774 185.381 244.789 185.148C245.804 184.915 246.763 184.456 247.607 183.8C248.45 183.144 249.159 182.304 249.689 181.335C250.219 180.366 250.558 179.288 250.685 178.17C250.769 177.217 250.76 176.257 250.657 175.306Z" fill="#455A64"/>
<path d="M278.674 182.104C278.208 182.162 277.736 182.101 277.296 181.925C276.218 181.556 275.249 180.881 274.49 179.97C273.725 179.063 273.199 177.947 272.969 176.742C272.857 176.25 272.857 175.736 272.969 175.244C273.034 175.244 273.041 175.81 273.255 176.68C273.544 177.803 274.071 178.837 274.792 179.7C275.513 180.564 276.41 181.233 277.41 181.654C278.153 181.972 278.681 182.026 278.674 182.104Z" fill="#455A64"/>
<path d="M287.178 258.54C286.82 258.984 286.392 259.354 285.914 259.634C285.413 259.98 284.866 260.241 284.293 260.41C283.572 260.618 282.812 260.596 282.101 260.348C280.854 259.837 279.786 258.914 279.045 257.71C278.706 257.257 278.424 256.755 278.21 256.22C278.595 256.619 278.945 257.059 279.253 257.531C280.011 258.624 281.034 259.465 282.208 259.96C282.808 260.134 283.433 260.173 284.047 260.076C284.661 259.978 285.25 259.746 285.778 259.393C286.23 259.08 286.697 258.795 287.178 258.54Z" fill="#455A64"/>
<path d="M281.723 263.064C280.879 262.114 280.126 261.074 279.474 259.96C278.723 258.922 278.068 257.807 277.517 256.631C278.367 257.577 279.123 258.618 279.774 259.735C280.531 260.766 281.184 261.882 281.723 263.064Z" fill="#455A64"/>
<path d="M245.138 200.208C245.038 200.247 244.788 199.804 244.566 199.207C244.345 198.609 244.252 198.105 244.345 198.058C244.438 198.012 244.695 198.462 244.909 199.059C245.123 199.657 245.23 200.208 245.138 200.208Z" fill="#FAFAFA"/>
<path d="M258.961 202.365C258.854 202.365 258.775 201.985 258.775 201.512C258.775 201.038 258.854 200.65 258.961 200.65C259.068 200.65 259.146 201.038 259.146 201.512C259.146 201.985 259.061 202.365 258.961 202.365Z" fill="#FAFAFA"/>
<path d="M253.277 210.529C253.177 210.529 253.063 210.063 253.027 209.466C252.992 208.868 253.027 208.387 253.142 208.379C253.256 208.371 253.363 208.845 253.399 209.442C253.434 210.04 253.377 210.521 253.277 210.529Z" fill="#FAFAFA"/>
<path d="M242.896 216.504C242.81 216.574 242.517 216.287 242.132 215.992C241.746 215.697 241.418 215.472 241.418 215.363C241.418 215.255 241.889 215.317 242.324 215.658C242.76 216 242.981 216.504 242.896 216.504Z" fill="#FAFAFA"/>
<path d="M261.195 224.117C261.11 224.054 261.195 223.721 261.438 223.341C261.681 222.96 261.902 222.743 261.988 222.805C262.074 222.867 261.988 223.209 261.745 223.581C261.502 223.954 261.281 224.179 261.195 224.117Z" fill="#FAFAFA"/>
<path d="M249.9 226.266C249.8 226.266 249.714 225.622 249.714 224.838C249.714 224.054 249.8 223.403 249.9 223.403C250 223.403 250.086 224.047 250.086 224.838C250.086 225.63 249.979 226.266 249.9 226.266Z" fill="#FAFAFA"/>
<path d="M246.201 234.973C246.144 235.058 245.773 234.88 245.373 234.562C244.973 234.243 244.659 233.917 244.752 233.824C244.845 233.731 245.188 233.917 245.587 234.236C245.987 234.554 246.266 234.88 246.201 234.973Z" fill="#FAFAFA"/>
<path d="M257.64 237.999C257.683 238.1 257.454 238.31 257.126 238.473C256.797 238.635 256.497 238.674 256.455 238.573C256.412 238.473 256.647 238.263 256.976 238.1C257.304 237.937 257.604 237.898 257.64 237.999Z" fill="#FAFAFA"/>
<path d="M249.9 252.2C249.814 252.246 249.443 251.649 249.079 250.857C248.715 250.066 248.493 249.383 248.586 249.305C248.679 249.228 249.05 249.856 249.407 250.648C249.764 251.439 249.964 252.115 249.9 252.2Z" fill="#FAFAFA"/>
<path d="M262.516 250.881C262.424 250.826 262.588 250.307 262.873 249.709C263.159 249.112 263.48 248.677 263.587 248.731C263.694 248.786 263.516 249.306 263.223 249.903C262.93 250.501 262.602 250.935 262.516 250.881Z" fill="#FAFAFA"/>
<path d="M256.983 262.901C256.876 262.901 256.89 262.272 256.776 261.543C256.662 260.814 256.49 260.232 256.59 260.177C256.69 260.123 257.033 260.674 257.147 261.481C257.261 262.288 257.083 262.924 256.983 262.901Z" fill="#FAFAFA"/>
<path d="M251.057 269.769C250.985 269.846 250.628 269.551 250.264 269.117C249.9 268.682 249.664 268.271 249.743 268.193C249.821 268.116 250.171 268.411 250.536 268.845C250.9 269.28 251.135 269.691 251.057 269.769Z" fill="#FAFAFA"/>
<path d="M265.437 272.376C265.365 272.298 265.629 271.879 266.029 271.437C266.429 270.995 266.8 270.708 266.879 270.785C266.957 270.863 266.686 271.29 266.293 271.724C265.901 272.159 265.515 272.454 265.437 272.376Z" fill="#FAFAFA"/>
<path d="M257.169 282.658C257.069 282.658 257.069 282.045 257.169 281.331C257.268 280.617 257.426 280.058 257.533 280.074C257.64 280.089 257.633 280.679 257.533 281.393C257.433 282.107 257.268 282.674 257.169 282.658Z" fill="#FAFAFA"/>
<path d="M251.606 287.648C251.514 287.702 251.2 287.298 250.892 286.747C250.585 286.197 250.428 285.708 250.514 285.653C250.6 285.599 250.914 285.995 251.228 286.546C251.542 287.097 251.692 287.586 251.606 287.648Z" fill="#FAFAFA"/>
<path d="M265.008 293.941C265.072 294.034 264.708 294.43 264.194 294.826C263.68 295.221 263.23 295.47 263.166 295.377C263.102 295.283 263.473 294.888 263.98 294.492C264.487 294.096 264.951 293.856 265.008 293.941Z" fill="#FAFAFA"/>
<path d="M253.841 302.112C253.741 302.074 253.841 301.453 253.934 300.677C254.027 299.901 253.97 299.264 254.077 299.249C254.184 299.233 254.37 299.885 254.298 300.716C254.227 301.546 253.934 302.159 253.841 302.112Z" fill="#FAFAFA"/>
<path d="M258.304 313.845C258.218 313.915 257.918 313.651 257.625 313.256C257.333 312.86 257.169 312.48 257.247 312.41C257.326 312.34 257.625 312.604 257.918 313C258.211 313.395 258.382 313.776 258.304 313.845Z" fill="#FAFAFA"/>
<path d="M253.427 321.714C253.341 321.776 252.949 321.318 252.549 320.682C252.149 320.046 251.899 319.487 251.978 319.425C252.056 319.363 252.456 319.821 252.856 320.457C253.256 321.093 253.513 321.652 253.427 321.714Z" fill="#FAFAFA"/>
<path d="M266.857 311.836C266.765 311.797 266.772 311.51 266.857 311.199C266.943 310.889 267.136 310.656 267.236 310.695C267.336 310.734 267.322 311.021 267.236 311.339C267.15 311.657 266.957 311.882 266.857 311.836Z" fill="#FAFAFA"/>
<path d="M260.931 330.576C260.838 330.522 261.017 329.971 261.16 329.28C261.303 328.589 261.353 328.007 261.46 328C261.567 327.992 261.674 328.62 261.524 329.365C261.374 330.11 261.017 330.638 260.931 330.576Z" fill="#FAFAFA"/>
<path d="M264.787 210.653C264.694 210.699 264.466 210.389 264.28 209.955C264.094 209.52 264.016 209.132 264.109 209.085C264.201 209.039 264.43 209.349 264.616 209.784C264.801 210.218 264.894 210.606 264.787 210.653Z" fill="#FAFAFA"/>
<path d="M254.898 186.488C254.955 186.581 254.455 187.016 253.92 187.637C253.384 188.258 253.02 188.832 252.927 188.778C252.835 188.723 253.077 188.002 253.641 187.365C254.205 186.729 254.827 186.387 254.898 186.488Z" fill="#FAFAFA"/>
<path d="M263.702 186.24C263.594 186.24 263.43 185.798 263.18 185.27C262.93 184.742 262.702 184.308 262.781 184.23C262.859 184.152 263.245 184.494 263.495 185.084C263.744 185.673 263.794 186.178 263.702 186.24Z" fill="#FAFAFA"/>
<path d="M236.213 194.085C236.12 194.039 236.213 193.527 236.434 192.937C236.655 192.347 236.898 191.889 236.998 191.936C237.098 191.982 236.998 192.487 236.777 193.084C236.555 193.682 236.334 194.124 236.213 194.085Z" fill="#FAFAFA"/>
<path d="M237.105 205.803C237.034 205.888 236.627 205.64 236.191 205.244C235.756 204.848 235.477 204.468 235.52 204.375C235.563 204.282 235.998 204.538 236.434 204.934C236.87 205.33 237.169 205.718 237.105 205.803Z" fill="#FAFAFA"/>
<path d="M255.141 177.184C255.048 177.184 254.848 176.936 254.705 176.54C254.562 176.144 254.52 175.764 254.612 175.764C254.705 175.764 254.905 176.012 255.048 176.408C255.191 176.804 255.234 177.145 255.141 177.184Z" fill="#FAFAFA"/>
<path d="M272.412 182.911C272.312 182.911 272.32 182.422 272.412 181.871C272.505 181.32 272.691 180.886 272.791 180.909C272.891 180.932 272.884 181.405 272.791 181.956C272.698 182.507 272.512 182.934 272.412 182.911Z" fill="#FAFAFA"/>
<path d="M276.468 191.781C276.375 191.734 276.504 191.16 276.761 190.485C277.018 189.81 277.296 189.305 277.389 189.344C277.482 189.383 277.389 189.965 277.103 190.64C276.818 191.315 276.568 191.819 276.468 191.781Z" fill="#FAFAFA"/>
<path d="M273.576 198.935C273.483 198.982 273.141 198.446 272.812 197.74C272.484 197.034 272.298 196.406 272.391 196.359C272.484 196.312 272.819 196.848 273.148 197.554C273.476 198.26 273.669 198.881 273.576 198.935Z" fill="#FAFAFA"/>
<path d="M279.76 206.09C279.667 206.051 279.76 205.601 279.917 205.089C280.074 204.577 280.324 204.189 280.423 204.228C280.523 204.266 280.423 204.716 280.266 205.229C280.109 205.741 279.888 206.129 279.76 206.09Z" fill="#FAFAFA"/>
<path d="M274.233 213.097C274.147 213.159 273.926 212.95 273.748 212.639C273.569 212.329 273.483 212.019 273.576 211.957C273.669 211.895 273.876 212.104 274.062 212.422C274.247 212.74 274.319 213.043 274.233 213.097Z" fill="#FAFAFA"/>
<path d="M275.411 227.562C275.34 227.632 274.89 227.252 274.419 226.693C273.948 226.134 273.626 225.63 273.705 225.552C273.783 225.475 274.226 225.863 274.697 226.421C275.168 226.98 275.49 227.484 275.411 227.562Z" fill="#FAFAFA"/>
<path d="M282.658 219.251C282.58 219.321 282.187 218.933 281.787 218.374C281.387 217.815 281.13 217.319 281.209 217.249C281.287 217.179 281.68 217.575 282.08 218.126C282.48 218.677 282.744 219.189 282.658 219.251Z" fill="#FAFAFA"/>
<path d="M286.635 230.713C286.542 230.666 286.707 230.084 286.999 229.417C287.292 228.749 287.599 228.237 287.713 228.284C287.828 228.33 287.649 228.92 287.356 229.587C287.064 230.255 286.728 230.767 286.635 230.713Z" fill="#FAFAFA"/>
<path d="M278.182 240.149C278.089 240.203 277.76 239.776 277.303 239.318C276.846 238.861 276.425 238.542 276.468 238.426C276.511 238.31 277.053 238.519 277.553 239.023C278.053 239.528 278.267 240.094 278.182 240.149Z" fill="#FAFAFA"/>
<path d="M278.71 249.872C278.71 249.981 278.353 250.074 277.917 250.074C277.482 250.074 277.132 249.981 277.132 249.872C277.132 249.763 277.482 249.67 277.917 249.67C278.353 249.67 278.71 249.763 278.71 249.872Z" fill="#FAFAFA"/>
<path d="M287.399 247.156C287.306 247.102 287.492 246.613 287.628 246.007C287.763 245.402 287.821 244.875 287.928 244.867C288.035 244.859 288.149 245.426 287.992 246.101C287.835 246.776 287.478 247.218 287.399 247.156Z" fill="#FAFAFA"/>
<path d="M296.032 250.423C295.939 250.462 295.675 249.911 295.446 249.205C295.218 248.498 295.11 247.893 295.203 247.862C295.296 247.831 295.567 248.367 295.796 249.073C296.024 249.779 296.131 250.384 296.032 250.423Z" fill="#FAFAFA"/>
<path d="M294.653 263.77C294.568 263.716 294.789 263.064 295.146 262.311C295.503 261.558 295.86 260.992 295.967 261.046C296.074 261.101 295.839 261.752 295.475 262.497C295.11 263.242 294.746 263.84 294.653 263.77Z" fill="#FAFAFA"/>
<path d="M286.778 271.6C286.685 271.639 286.393 271.103 286.121 270.397C285.85 269.691 285.714 269.086 285.814 269.039C285.914 268.993 286.2 269.536 286.464 270.242C286.728 270.948 286.871 271.6 286.778 271.6Z" fill="#FAFAFA"/>
<path d="M278.053 274.634C278.053 274.743 277.753 274.836 277.389 274.836C277.025 274.836 276.732 274.743 276.732 274.634C276.732 274.525 277.032 274.432 277.389 274.432C277.746 274.432 278.053 274.525 278.053 274.634Z" fill="#FAFAFA"/>
<path d="M283.051 287.12C282.958 287.12 282.758 286.693 282.608 286.103C282.458 285.514 282.43 285.001 282.53 284.978C282.63 284.955 282.823 285.405 282.972 285.995C283.122 286.585 283.151 287.058 283.051 287.12Z" fill="#FAFAFA"/>
<path d="M276.732 282.93C276.646 282.875 276.732 282.51 276.968 282.115C277.203 281.719 277.439 281.447 277.525 281.502C277.61 281.556 277.525 281.929 277.289 282.324C277.053 282.72 276.825 282.992 276.732 282.93Z" fill="#FAFAFA"/>
<path d="M276.604 296.673C276.504 296.673 276.361 296.153 276.289 295.477C276.218 294.802 276.239 294.251 276.339 294.236C276.439 294.22 276.582 294.756 276.654 295.431C276.725 296.106 276.704 296.657 276.604 296.673Z" fill="#FAFAFA"/>
</svg>
