<svg width="225" height="208" viewBox="0 0 225 208" fill="none" xmlns="http://www.w3.org/2000/svg">
<g filter="url(#filter0_d)">
<path d="M24.7887 50.9463H24.7887C24.782 51.8079 25.0418 52.6551 25.5399 53.3842C26.0382 54.1137 26.7543 54.6943 27.6037 55.0509C28.1279 55.2706 28.6963 55.3849 29.2719 55.3855C29.272 55.3855 29.2722 55.3855 29.2724 55.3855M24.7887 50.9463L39.8086 44.7402C42.5379 44.7402 44.772 46.9633 44.772 49.6796V50.9424C44.772 53.6624 42.5379 55.8855 39.8086 55.8855H29.2719L29.2724 55.3855M24.7887 50.9463V50.9424V49.6833H24.7887L24.7887 49.6804C24.785 49.0289 24.9312 48.3833 25.2185 47.7881C25.5058 47.1927 25.928 46.6609 26.4578 46.2305L26.4578 46.2305L26.4599 46.2288C27.2353 45.592 28.2339 45.2386 29.2711 45.2402H29.2719H39.8086C42.264 45.2402 44.272 47.2418 44.272 49.6796V50.9424C44.272 53.3843 42.2638 55.3855 39.8086 55.3855L29.2724 55.3855M24.7887 50.9463L29.2724 55.3855" fill="white" stroke="#1188EE"/>
<path d="M79.488 49.051L79.4903 49.051C79.9486 49.0489 80.4021 49.1138 80.835 49.2415C77.0965 51.6238 73.6277 54.3647 70.4843 57.4211L70.4765 57.4287L70.469 57.4367C70.348 57.5651 70.2341 57.6797 70.1154 57.7991C69.9754 57.9374 69.836 58.0763 69.6973 58.2157L69.9159 57.3595C69.2488 56.9951 68.6984 56.4741 68.3165 55.8512C67.9351 55.229 67.7345 54.5259 67.7321 53.8115C67.7321 53.8111 67.7321 53.8106 67.7321 53.8102L67.7321 53.1844C67.7331 52.0999 68.1892 51.0536 69.0113 50.2764C69.8341 49.4984 70.956 49.0548 72.1329 49.051L79.488 49.051ZM69.6153 58.2983C67.3182 60.617 65.2141 63.1 63.3219 65.7255C62.8534 65.0576 62.605 64.2761 62.6064 63.4783V63.4774L62.6064 62.4292C62.6064 62.4289 62.6064 62.4285 62.6064 62.4282C62.6104 61.3437 63.0686 60.2985 63.8916 59.5222C64.7156 58.745 65.838 58.302 67.0152 58.2983H69.6153ZM57.7554 75.0457C57.6979 75.1614 57.642 75.276 57.5873 75.3908L56.8528 74.8512C56.2848 74.4339 55.8277 73.9019 55.5139 73.2972C55.2002 72.6927 55.0375 72.0304 55.0365 71.3602L55.0365 71.1533C55.0365 71.1529 55.0365 71.1525 55.0365 71.1522C55.0406 69.9856 55.5335 68.8615 56.418 68.0272C57.3037 67.1918 58.5097 66.7161 59.774 66.7124C59.7742 66.7124 59.7744 66.7124 59.7747 66.7124L62.6246 66.7124C60.7741 69.3657 59.146 72.1519 57.7554 75.0457ZM56.5568 75.7541H57.4191C57.417 75.7587 57.4149 75.7633 57.4129 75.768C56.3322 78.1024 55.4072 80.4981 54.6431 82.9412C54.1775 82.6952 53.7774 82.3529 53.4739 81.9402C53.0706 81.3919 52.8558 80.7444 52.8539 80.0837V79.0368C52.8566 78.1761 53.2203 77.3451 53.8758 76.7274C54.5323 76.1088 55.4277 75.7559 56.3675 75.7541H56.5568ZM21.6645 113.602L21.6646 113.602L21.663 113.593C21.5199 112.829 21.4006 112.062 21.2921 111.287L21.9217 110.04L22.7703 110.046C23.5111 110.051 24.5746 110.057 25.8658 110.065C28.4482 110.08 31.9415 110.098 35.5851 110.11C42.4681 110.132 49.9071 110.133 52.7393 110.053C55.2848 125.289 63.7824 139.076 76.5596 148.697C89.4577 158.409 105.766 163.162 122.216 162.009C138.667 160.856 154.053 153.881 165.29 142.474C176.407 131.188 182.649 116.389 182.794 100.985L214.455 100.978C213.336 150.573 170.355 190.5 117.436 190.5H117.436C103.8 190.514 90.3154 187.812 77.8656 182.57C65.4159 177.328 54.2828 169.665 45.1944 160.086L45.1932 160.084L44.8012 159.674C44.8005 159.673 44.7998 159.673 44.7992 159.672C43.2998 158.064 41.8554 156.406 40.4662 154.697L40.4639 154.694C39.8713 153.976 39.2932 153.234 38.7199 152.488C35.9904 148.921 33.538 145.172 31.3817 141.272C31.3816 141.272 31.3815 141.271 31.3813 141.271L31.0424 140.65C29.0714 137.024 27.3609 133.277 25.9223 129.435C25.6658 128.743 25.4137 128.045 25.1737 127.347L25.1736 127.347C23.6266 122.858 22.4533 118.262 21.6645 113.602ZM21.1715 113.685C21.9649 118.373 23.145 122.995 24.7009 127.51L20.7754 111.201C20.8903 112.034 21.017 112.86 21.1715 113.685Z" fill="white" stroke="#1188EE"/>
<path d="M215 98.9982C215 99.4913 215 99.9883 215 100.493H182.296C182.296 89.4637 179.138 78.6395 173.156 69.1631C167.174 59.6866 158.59 51.9094 148.311 46.6527C138.032 41.396 126.438 38.8548 114.755 39.2975C103.071 39.7401 91.7312 43.1502 81.932 49.1676C81.1884 48.7641 80.3458 48.5516 79.488 48.5511H72.132C70.8317 48.555 69.586 49.0448 68.6677 49.9131C67.7493 50.7814 67.2331 51.9575 67.2321 53.184V53.8117C67.2344 54.6198 67.4613 55.4131 67.8902 56.1126C68.319 56.8121 68.9348 57.3933 69.6761 57.7983H67.0142C65.7138 57.8023 64.4679 58.2913 63.5484 59.1586C62.6289 60.0259 62.1105 61.201 62.1063 62.4276V63.4775C62.1046 64.4622 62.4393 65.4212 63.0609 66.2124H59.7731C58.3856 66.2163 57.056 66.738 56.0749 67.6635C55.0937 68.5889 54.5406 69.843 54.5365 71.1518V71.361C54.5375 72.112 54.72 72.853 55.07 73.5276C55.4201 74.2022 55.9285 74.7926 56.5567 75.2542H56.3665C55.3036 75.2562 54.2848 75.655 53.5328 76.3636C52.7809 77.0722 52.357 78.0327 52.3539 79.0353V80.0852C52.3561 80.8543 52.6062 81.6046 53.071 82.2365C53.5358 82.8685 54.1933 83.3521 54.9563 83.6234C52.4204 92.0421 51.8114 100.873 53.1699 109.531C48.3649 109.721 21.623 109.531 21.623 109.531L20.7832 111.193C18.0788 92.0178 21.8311 72.5254 31.5101 55.4706H39.5315C40.9201 55.4667 42.2507 54.9446 43.2326 54.0185C44.2145 53.0923 44.768 51.8373 44.7721 50.5276V49.2684C44.768 47.9587 44.2145 46.7037 43.2326 45.7775C42.2507 44.8513 40.9201 44.3293 39.5315 44.3254H39.0086C48.0692 32.7402 59.89 23.3261 73.5174 16.8426C87.1447 10.359 102.197 6.98747 117.46 7.00003C171.332 7.00003 215 48.1886 215 98.9982Z" fill="#116ED7"/>
<path d="M28.1119 45.5199L20.3696 90.6729C20.1526 90.7171 19.9645 90.7015 19.7959 90.6456C19.5554 90.5659 19.3049 90.3873 19.05 90.0742C18.53 89.4356 18.0772 88.3438 17.7033 86.8721C16.9603 83.9481 16.588 79.7775 16.4267 75.4866C16.2657 71.205 16.3158 66.8391 16.4064 63.5412C16.4516 61.8928 16.507 60.5125 16.551 59.5447C16.573 59.0608 16.5922 58.68 16.6058 58.4205C16.6126 58.2907 16.6181 58.1913 16.6218 58.1244L16.6261 58.0487L16.6272 58.0297L16.6275 58.025L16.6275 58.0239C16.6275 58.0237 16.6275 58.0236 16.1283 57.9918L16.6275 58.0236L16.6291 57.9975L16.6279 57.9715C16.3872 52.701 19.3764 49.5712 22.4954 47.7296C24.0575 46.8073 25.6399 46.2178 26.8351 45.859C27.3432 45.7065 27.7795 45.5962 28.1119 45.5199Z" fill="white" stroke="#1188EE"/>
<path d="M43.7865 153.188L42.8999 152.63C40.4935 151.117 37.2422 151.731 35.6379 154L32.4497 158.511C30.8454 160.781 31.4957 163.848 33.9021 165.361L34.7887 165.918C37.1951 167.432 40.4464 166.818 42.0507 164.548L45.2389 160.038C46.8432 157.768 46.1929 154.701 43.7865 153.188Z" fill="#116ED7"/>
<path d="M40.5817 139.7L39.546 139.053C36.7352 137.296 32.9466 138.021 31.084 140.672L26.1101 147.752C24.2475 150.403 25.0162 153.977 27.8271 155.734L28.8627 156.381C31.6736 158.138 35.4621 157.413 37.3248 154.762L42.2986 147.682C44.1612 145.031 43.3925 141.457 40.5817 139.7Z" fill="#116ED7"/>
<path d="M33.8891 126.86L32.8508 126.207C30.033 124.435 26.2259 125.153 24.3474 127.811L19.3311 134.908C17.4525 137.566 18.214 141.157 21.0318 142.929L22.07 143.582C24.8878 145.354 28.6949 144.635 30.5734 141.978L35.5897 134.88C37.4683 132.222 36.7068 128.631 33.8891 126.86Z" fill="#116ED7"/>
<path d="M29.9594 113.413L28.9212 112.76C26.1034 110.989 22.2962 111.707 20.4177 114.365L15.4014 121.462C13.5228 124.12 14.2843 127.711 17.1021 129.483L18.1403 130.135C20.9581 131.907 24.7652 131.189 26.6437 128.531L31.6601 121.434C33.5386 118.776 32.7772 115.185 29.9594 113.413Z" fill="#116ED7"/>
<path d="M73.9463 142.78C73.8443 142.868 73.7248 142.937 73.5946 142.982C73.4643 143.027 73.326 143.047 73.1875 143.041C73.0491 143.035 72.9132 143.003 72.7878 142.947C72.6624 142.892 72.5499 142.813 72.4569 142.716C71.3477 141.595 69.078 139.275 67.1132 137.422C66.2022 136.562 64.8395 134.227 64.1146 133.753C63.2035 133.159 60.9457 132.976 60.2406 132.931C60.1067 132.922 59.9723 132.937 59.8445 132.976L57.8639 133.566C57.7204 133.608 57.5882 133.678 57.4761 133.772C57.364 133.866 57.2747 133.982 57.2142 134.112L44.8553 160.434L44.281 161.655C44.2046 161.819 44.0831 161.96 43.9292 162.064C43.7753 162.168 43.5946 162.231 43.406 162.246C43.2174 162.262 43.0278 162.23 42.8571 162.153C42.6863 162.076 42.5405 161.957 42.4351 161.808L37.5509 154.971L37.1548 154.426L29.1374 143.179L29.0027 142.989L21.2705 132.154L20.3039 130.801L15.1306 123.515C15.0286 123.371 14.9681 123.205 14.9549 123.032C14.9417 122.859 14.9763 122.686 15.0554 122.529L16.0694 120.512L20.7674 111.193L21.314 110.106C21.4001 109.934 21.5364 109.789 21.7069 109.688C21.8774 109.586 22.0751 109.533 22.2766 109.534C26.4556 109.564 48.8165 109.714 53.154 109.534H53.4075C57.3449 109.329 73.9502 124.106 74.5642 124.659L74.5999 124.692C83.4531 133.245 76.4497 140.613 73.9463 142.78Z" fill="#116ED7"/>
<path d="M72.1319 57.9409L72.1306 57.9409C71.618 57.9423 71.1098 57.8569 70.6304 57.6891C70.3849 57.602 70.1501 57.4911 69.9297 57.3586L69.921 57.3534L69.9121 57.3485C69.2447 56.9831 68.6943 56.4608 68.313 55.8368C67.932 55.2131 67.7325 54.5084 67.7319 53.7928V53.1842C67.7329 52.0998 68.1891 51.0535 69.0111 50.2763C69.8339 49.4984 70.9558 49.0548 72.1327 49.051H79.4876C80.6662 49.052 81.7906 49.4945 82.6153 50.2729C83.4389 51.0504 83.8957 52.0982 83.8957 53.184V53.8105C83.8916 54.7582 83.5408 55.6797 82.8961 56.4186C82.2508 57.1581 81.3499 57.6695 80.3429 57.8597C80.0557 57.9125 79.7638 57.9396 79.471 57.9409L72.1319 57.9409Z" fill="white" stroke="#1188EE"/>
<path d="M78.153 57.7982H67.0102C65.7098 57.8022 64.4639 58.2911 63.5444 59.1584C62.6249 60.0257 62.1065 61.2009 62.1023 62.4275V63.4773C62.1006 64.4621 62.4353 65.4211 63.0569 66.2123L78.153 57.7982ZM78.153 57.7982C78.9549 57.7979 79.7443 57.9853 80.4505 58.3437L78.153 57.7982ZM63.4498 65.9029C62.8961 65.1981 62.6008 64.3478 62.6023 63.4782V63.4773V62.4283C62.6062 61.3438 63.0645 60.2984 63.8875 59.5222C64.7115 58.7449 65.8339 58.302 67.011 58.2982L78.153 58.2982L78.1532 58.2982C78.8774 58.2979 79.5892 58.4673 80.2242 58.7896L80.2262 58.7906C80.9339 59.1458 81.5222 59.6736 81.9312 60.3145C82.3399 60.9548 82.5552 61.6851 82.557 62.4277C82.557 62.428 82.557 62.4283 82.557 62.4285V63.4756C82.557 63.4758 82.557 63.476 82.557 63.4762C82.5531 64.5598 82.0953 65.6043 81.2729 66.38C80.4496 67.1565 79.3282 67.5991 78.1521 67.6028L67.0102 67.6028L67.0099 67.6028C66.3816 67.6033 65.7612 67.4769 65.1907 67.2331C64.6203 66.9893 64.1139 66.6343 63.7046 66.1934L63.7047 66.1933L63.6974 66.1858C63.6098 66.0953 63.5272 66.0009 63.4498 65.9029Z" fill="white" stroke="#1188EE"/>
<path d="M76.2833 68.0272C77.0917 68.7896 77.5729 69.794 77.6529 70.8516V71.1517V71.3598C77.6501 72.5274 77.1577 73.6528 76.2727 74.4881C75.387 75.3242 74.1804 75.8003 72.9155 75.8041H59.7742C58.7121 75.7999 57.6847 75.4633 56.8528 74.8514L56.8526 74.8512C56.2847 74.4339 55.8275 73.902 55.5137 73.2973C55.2001 72.6929 55.0374 72.0306 55.0364 71.3606V71.1526C55.0403 69.9858 55.5332 68.8616 56.4179 68.0272C57.3035 67.1918 58.5095 66.7162 59.7738 66.7124H72.9274C74.1917 66.7162 75.3977 67.1918 76.2833 68.0272Z" fill="white" stroke="#1188EE"/>
<path d="M56.3547 83.3662L56.3541 83.3662C55.9295 83.3667 55.5088 83.2942 55.113 83.1526L55.112 83.1522C54.4399 82.9133 53.8656 82.4889 53.462 81.9402C53.0588 81.3921 52.8441 80.7449 52.842 80.0843V79.0323C52.8449 78.1719 53.2086 77.3412 53.8639 76.7237C54.5203 76.1051 55.4156 75.7522 56.3552 75.7504H64.7757C65.7154 75.7522 66.6106 76.1051 67.267 76.7237C67.9223 77.3412 68.2859 78.1718 68.2889 79.0322V79.0352V80.0844C68.2859 80.9448 67.9223 81.7754 67.267 82.3929C66.6106 83.0114 65.7154 83.3643 64.7758 83.3662C64.7756 83.3662 64.7754 83.3662 64.7753 83.3662L56.3547 83.3662Z" fill="white" stroke="#1188EE"/>
<path d="M32.9492 52.1657C32.9492 52.1657 23.0402 69.3809 23.476 73.4446L20.0788 55.1368L28.4799 45.1511L32.9492 52.1657Z" fill="white"/>
</g>
<defs>
<filter id="filter0_d" x="0.37085" y="0" width="224.629" height="208" filterUnits="userSpaceOnUse" color-interpolation-filters="sRGB">
<feFlood flood-opacity="0" result="BackgroundImageFix"/>
<feColorMatrix in="SourceAlpha" type="matrix" values="0 0 0 0 0 0 0 0 0 0 0 0 0 0 0 0 0 0 127 0"/>
<feOffset dx="-2" dy="5"/>
<feGaussianBlur stdDeviation="6"/>
<feColorMatrix type="matrix" values="0 0 0 0 0.266667 0 0 0 0 0.333333 0 0 0 0 0.4 0 0 0 0.96 0"/>
<feBlend mode="normal" in2="BackgroundImageFix" result="effect1_dropShadow"/>
<feBlend mode="normal" in="SourceGraphic" in2="effect1_dropShadow" result="shape"/>
</filter>
</defs>
</svg>
