<svg id="Layer_1" enable-background="new 0 0 128 128" height="512" viewBox="0 0 128 128" width="512" xmlns="http://www.w3.org/2000/svg"><path d="m117.359 110.133h-3.148c-.493-.979-1.516-3.301-1.516-5.746 0-3.133 1.811-7.192 1.829-7.232.215-.477.026-1.039-.433-1.289-9.309-5.075-19.37-4.398-27.92-1.905-.152-.418-.373-.798-.649-1.137 2.864-2.51 5.679-5.258 8.136-8.159.797-.312 3.102-1.27 4.23-2.328 15.423-14.452 1.514-31.918-1.598-35.444-1.835-2.91-4.06-5.498-6.613-7.695-.174-.149-.449-.359-.68-.532.003-.683.001-1.791-.024-2.042-.033-.325-.094-.636-.144-.952h1.183c.552 0 1-.447 1-1v-17.11h7.319c1.59 0 2.884-1.294 2.884-2.884s-1.293-2.884-2.884-2.884h-64.662c-1.59 0-2.884 1.294-2.884 2.884s1.293 2.884 2.884 2.884h1.633l.008 19.55c-.823.379-1.395 1.21-1.394 2.175 0 .844.444 1.575 1.106 1.998l-.059.53-.729 6.435c-2.96 3.798-8.023 11.703-7.118 20.431.666 6.425 4.456 12.016 11.263 16.616.045.031.092.055.139.077.009.004.016.013.025.017 2.368 2.704 5.05 5.267 7.781 7.617-.208.29-.372.611-.496.952-8.548-2.492-18.605-3.169-27.914 1.906-.459.25-.648.812-.433 1.289.018.04 1.829 4.1 1.829 7.232 0 2.432-1.023 4.763-1.517 5.746h-3.154c-2.777 0-5.036 2.259-5.036 5.036s2.259 5.036 5.036 5.036h45.124c1.418 0 2.675-.849 3.128-2.112.469-1.308 1.717-2.187 3.107-2.187s2.638.879 3.107 2.188c.453 1.263 1.71 2.111 3.128 2.111h45.124c2.777 0 5.036-2.259 5.036-5.036s-2.257-5.036-5.034-5.036zm-76.371-92.571v17.107c0 .553.448 1 1 1h1.336c-.302 1.114-.521 2.207-.641 3.228-1.747 1.459-3.35 3.091-4.799 4.863l-.222-1.947-.057-.535c.822-.53 1.305-1.534 1.017-2.637-.177-.677-.679-1.232-1.312-1.52l-.008-19.56h3.686z" fill="#e6e7e8"/><path d="m109.612 92.743c-21.774-11.871-47.612 8.404-47.612 8.404s-25.832-20.275-47.606-8.404c0 0 1.917 4.251 1.917 7.644 0 3.516-1.917 6.747-1.917 6.747h47.612.289 47.318s-1.917-3.231-1.917-6.747c-.001-3.393 1.916-7.644 1.916-7.644z" fill="#d4fbff"/><path d="m68.319 107.133c-.511 0-.98-.287-1.205-.746-.929-1.897-2.859-3.209-5.114-3.209s-4.185 1.312-5.114 3.209c-.225.459-.694.746-1.205.746h-45.04c-2.229 0-4.036 1.807-4.036 4.036 0 2.229 1.807 4.036 4.036 4.036h45.124c.954 0 1.865-.552 2.187-1.45.595-1.661 2.183-2.849 4.048-2.849s3.453 1.188 4.048 2.849c.322.898 1.233 1.45 2.187 1.45h45.124c2.229 0 4.036-1.807 4.036-4.036 0-2.229-1.807-4.036-4.036-4.036z" fill="#fa759e"/><path d="m91.488 43.493c-1.768-2.816-3.931-5.361-6.463-7.538-.326-.281-1.032-.788-1.032-.788.008-.391.01-2.2-.015-2.443-.073-.708-.204-1.387-.362-2.053h-42.96c-.532 1.628-.883 3.259-1.022 4.738-2.545 2.077-4.787 4.509-6.665 7.213l-.005-.04s-21.406 22.085 1.975 37.888v-.149c10.364 12.066 27.061 21.331 27.061 21.331s16.728-9.521 27.059-21.83c0 0 2.954-1.1 4.145-2.216 14.893-13.954 1.03-31.02-1.716-34.113z" fill="#6dc9f7"/><path d="m62 74.166c-9.707 0-17.907 5.263-20.799 12.543 9.656 8.798 20.799 14.943 20.799 14.943s10.955-6.276 20.685-15.225c-2.991-7.134-11.104-12.261-20.685-12.261z" fill="#ffd7e5"/><circle cx="48.586" cy="51.688" fill="#d4fbff" r="11.459"/><circle cx="75.414" cy="51.688" fill="#d4fbff" r="11.459"/><path d="m67.614 62.548c0 4.136-5.614 7.489-5.614 7.489s-5.614-3.353-5.614-7.489 2.514-2.708 5.614-2.708 5.614-1.428 5.614 2.708z" fill="#fa759e"/><g fill="#0089ef"><path d="m51.461 100.36c-1.635 0-2.961-1.326-2.961-2.961v-3.279c0-1.635 1.326-2.961 2.961-2.961 1.635 0 2.961 1.326 2.961 2.961v3.28c0 1.635-1.326 2.96-2.961 2.96z"/><path d="m45.539 97.545c-1.635 0-2.961-1.326-2.961-2.961v-3.279c0-1.635 1.326-2.961 2.961-2.961 1.635 0 2.961 1.326 2.961 2.961v3.279c0 1.635-1.326 2.961-2.961 2.961z"/><path d="m72.539 100.36c1.635 0 2.961-1.326 2.961-2.961v-3.279c0-1.635-1.326-2.961-2.961-2.961-1.635 0-2.961 1.326-2.961 2.961v3.28c0 1.635 1.326 2.96 2.961 2.96z"/><path d="m78.461 97.545c1.635 0 2.961-1.326 2.961-2.961v-3.279c0-1.635-1.326-2.961-2.961-2.961-1.635 0-2.961 1.326-2.961 2.961v3.279c0 1.635 1.326 2.961 2.961 2.961z"/><path d="m37.988 12.562h48.024v18.108h-48.024z"/></g><path d="m37.988 12.562h3v18.108h-3z" fill="#fff"/><path d="m94.331 12.562h-64.662c-1.04 0-1.884-.843-1.884-1.884 0-1.04.843-1.884 1.884-1.884h64.662c1.04 0 1.884.843 1.884 1.884 0 1.041-.844 1.884-1.884 1.884z" fill="#0089ef"/><path d="m113.359 106.133h-3.148c-.493-.979-1.516-3.301-1.516-5.746 0-3.133 1.811-7.192 1.829-7.232.215-.477.026-1.039-.433-1.289-9.313-5.077-19.367-4.391-27.917-1.895-.153-.426-.377-.812-.658-1.156 2.866-2.51 5.684-5.249 8.142-8.152.797-.312 3.102-1.27 4.23-2.328 15.423-14.452 1.514-31.918-1.598-35.444-1.835-2.91-4.06-5.498-6.613-7.695-.174-.149-.449-.359-.68-.532.003-.683.001-1.791-.024-2.042-.033-.323-.078-.639-.13-.952h1.169c.552 0 1-.447 1-1v-17.108h7.319c1.59 0 2.884-1.294 2.884-2.884s-1.293-2.884-2.884-2.884h-64.662c-1.59 0-2.884 1.294-2.884 2.884s1.293 2.884 2.884 2.884h1.633l.008 19.55c-.823.379-1.395 1.21-1.394 2.175 0 .844.444 1.575 1.106 1.998l-.059.53-.729 6.435c-2.96 3.798-8.023 11.703-7.118 20.431.666 6.425 4.456 12.016 11.263 16.616.045.031.092.055.139.077.009.004.016.013.026.017 2.369 2.706 5.055 5.26 7.787 7.61-.213.296-.38.622-.505.97-8.548-2.495-18.599-3.181-27.91 1.895-.459.25-.648.812-.433 1.289.018.04 1.829 4.1 1.829 7.232 0 2.432-1.023 4.763-1.517 5.746h-3.154c-2.777 0-5.036 2.259-5.036 5.036s2.259 5.036 5.036 5.036h45.124c1.418 0 2.675-.849 3.128-2.112.469-1.308 1.717-2.187 3.107-2.187s2.638.879 3.107 2.188c.453 1.263 1.71 2.111 3.128 2.111h45.124c2.777 0 5.036-2.259 5.036-5.036s-2.259-5.036-5.036-5.036zm-5.021-12.929c-.352.894-.881 2.378-1.244 3.999h-17.841c-.552 0-1 .447-1 1s.448 1 1 1h17.51c-.041.399-.069.796-.069 1.185 0 .5.04.992.101 1.472h-11.193c-.552 0-1 .447-1 1s.448 1 1 1h11.6c.242.875.534 1.656.801 2.274h-39.684c-.131 0-.251-.073-.307-.186-.994-2.031-2.877-3.388-5.05-3.7.895-.53 3.02-1.816 5.809-3.691.499 1.617 1.99 2.804 3.768 2.804 1.988 0 3.623-1.477 3.903-3.388.593.355 1.279.572 2.019.572 2.184 0 3.961-1.777 3.961-3.961v-2.625c7.954-2.376 17.265-3.13 25.916 1.245zm-27.916-1.899v3.278c0 1.081-.88 1.961-1.961 1.961s-1.961-.88-1.961-1.961v-.463-2.815c0-1.081.88-1.961 1.961-1.961s1.961.88 1.961 1.961zm-5.922 3.278v2.817c0 1.081-.88 1.961-1.961 1.961s-1.961-.88-1.961-1.961v-3.279c0-1.081.88-1.961 1.961-1.961s1.961.88 1.961 1.961zm-45.715-83.905c0-.487.396-.884.884-.884h64.662c.487 0 .884.396.884.884s-.396.884-.884.884h-64.662c-.487 0-.884-.396-.884-.884zm8.203 2.884v17.107c0 .553.448 1 1 1h1.337c-.303 1.114-.522 2.207-.642 3.228-1.747 1.459-3.35 3.091-4.799 4.863l-.222-1.947-.057-.535c.822-.53 1.305-1.534 1.017-2.637-.177-.677-.679-1.232-1.312-1.52l-.008-19.56h3.686zm-1.055 66.366v-15.108c0-.553-.448-1-1-1s-1 .447-1 1v13.7c-5.306-4.018-8.273-8.732-8.826-14.035-.644-6.176 2.101-12.051 4.654-16.049l-.339 2.995c-.134 1.187.794 2.226 1.988 2.225l1.819-.001c1.194 0 2.122-1.04 1.986-2.227l-1.004-8.801c1.747-2.409 3.772-4.582 6.056-6.446.208-.169.338-.414.363-.681.112-1.192.375-2.503.764-3.832h11.981c.552 0 1-.447 1-1s-.448-1-1-1h-14.387v-16.106h46.024v16.107h-14.262c-.552 0-1 .447-1 1s.448 1 1 1h12.061c.072.375.132.757.172 1.148.018.224.021 1.859.011 2.329-.006.328.149.64.416.831.005.004.661.475.964.734 2.421 2.084 4.53 4.544 6.268 7.312.029.047.062.091.099.133 2.783 3.135 15.945 19.447 1.781 32.72-.526.494-1.558 1.031-2.453 1.439v-13.495c0-.553-.448-1-1-1s-1 .447-1 1v14.614c-2.479 2.917-5.324 5.665-8.218 8.175-.434-.164-.898-.265-1.389-.265-1.988 0-3.622 1.477-3.903 3.387-.593-.355-1.279-.572-2.019-.572-2.184 0-3.961 1.777-3.961 3.961v2.15c-3.139 2.146-5.588 3.635-6.584 4.226-.998-.576-3.44-2.025-6.572-4.115v-2.26c0-2.184-1.777-3.961-3.961-3.961-.74 0-1.426.217-2.019.572-.281-1.911-1.915-3.387-3.903-3.387-.585 0-1.136.135-1.637.364-2.806-2.395-5.559-5.008-7.97-7.781zm11.567 14.655c0 1.081-.88 1.961-1.961 1.961s-1.961-.88-1.961-1.961v-3.278c0-1.081.88-1.961 1.961-1.961s1.961.88 1.961 1.961v2.815zm2 0v-.463c0-1.081.88-1.961 1.961-1.961s1.961.88 1.961 1.961v3.28c0 1.081-.88 1.961-1.961 1.961s-1.961-.88-1.961-1.961zm-32.696 9.276h11.594c.552 0 1-.447 1-1s-.448-1-1-1h-11.188c.061-.48.101-.971.101-1.472 0-.388-.028-.785-.069-1.185h17.504c.552 0 1-.447 1-1s-.448-1-1-1h-17.834c-.362-1.621-.891-3.105-1.243-3.999 8.645-4.371 17.955-3.615 25.91-1.24v2.62c0 2.184 1.777 3.961 3.961 3.961.74 0 1.426-.217 2.019-.572.28 1.911 1.915 3.388 3.903 3.388 1.75 0 3.222-1.149 3.744-2.726 2.787 1.83 4.916 3.089 5.825 3.614-2.169.314-4.049 1.67-5.043 3.698-.055.112-.175.186-.307.186h-39.678c.268-.617.56-1.398.801-2.273zm96.555 10.347h-45.124c-.567 0-1.08-.323-1.246-.786-.753-2.102-2.758-3.513-4.99-3.513s-4.237 1.411-4.99 3.512c-.166.464-.678.787-1.246.787h-45.122c-1.674 0-3.036-1.362-3.036-3.036s1.362-3.036 3.036-3.036h45.04c.889 0 1.715-.513 2.103-1.307.8-1.634 2.416-2.648 4.216-2.648s3.416 1.015 4.216 2.648c.389.794 1.214 1.307 2.104 1.307h45.04c1.674 0 3.036 1.362 3.036 3.036s-1.362 3.036-3.037 3.036z" fill="#3a2c60"/><circle cx="48.586" cy="51.688" fill="#3a2c60" r="6.578"/><circle cx="75.414" cy="51.688" fill="#3a2c60" r="6.578"/><path d="m61.487 70.896c.158.095.335.142.513.142s.355-.047.513-.142c.249-.148 6.101-3.698 6.101-8.348 0-1.567-.333-2.598-1.049-3.242-.981-.883-2.317-.742-3.733-.593-1.184.125-2.479.125-3.663 0-1.416-.148-2.751-.29-3.733.593-.715.645-1.049 1.675-1.049 3.242-.001 4.65 5.851 8.2 6.1 8.348zm-3.714-10.104c.159-.143.462-.19.845-.19.388 0 .857.049 1.34.101 1.227.129 2.856.129 4.083 0 .959-.103 1.866-.197 2.186.09.145.131.387.531.387 1.756 0 2.844-3.323 5.407-4.619 6.298-1.645-1.119-4.608-3.679-4.608-6.298-.001-1.225.241-1.626.386-1.757z" fill="#3a2c60"/><path d="m57.687 31.669h8.625c.552 0 1-.447 1-1s-.448-1-1-1h-8.625c-.552 0-1 .447-1 1s.448 1 1 1z" fill="#3a2c60"/></svg>