<svg width="500" height="533" viewBox="0 0 500 533" fill="none" xmlns="http://www.w3.org/2000/svg">
<g clip-path="url(#clip0)">
<path d="M476.912 112.558C506.663 146.509 503.285 207.234 491.11 255.95C478.8 304.789 457.566 341.765 427.816 385.911C398.065 430.057 359.822 481.479 309.21 493.366C258.598 505.253 195.87 477.473 140.695 433.327C85.5191 389.181 37.7686 328.423 25.0605 255.558C12.3609 182.554 34.526 97.2783 89.7099 63.3267C144.894 29.3752 233.198 46.7393 308.803 59.0184C384.264 71.4202 447.153 78.6062 476.912 112.558Z" fill="#F1F1F1"/>
<path d="M240.903 165.745C239.751 171.182 241.004 210.104 239.337 216.244C237.669 222.383 219.161 297.415 219.161 297.415L248.599 289.559C248.599 289.559 258.919 267.657 262.661 247.939C265.955 230.583 265.481 166.048 240.903 165.745Z" fill="#D18C65"/>
<path d="M212.329 182.93H193.229L182.29 142.871H201.399L212.329 182.93Z" fill="black"/>
<path d="M459.683 294.317H252.163V494.698H459.683V294.317Z" fill="#E0E0E0"/>
<path d="M290.592 354.494C302.142 354.494 311.504 345.453 311.504 334.301C311.504 323.149 302.142 314.109 290.592 314.109C279.043 314.109 269.68 323.149 269.68 334.301C269.68 345.453 279.043 354.494 290.592 354.494Z" fill="#A4A4A4"/>
<path d="M329.08 325.644H435.105" stroke="white" stroke-width="2.04" stroke-linecap="round" stroke-linejoin="round"/>
<path d="M329.08 342.951H376.086" stroke="white" stroke-width="2.04" stroke-linecap="round" stroke-linejoin="round"/>
<path d="M329.08 385.854H435.105" stroke="white" stroke-width="2.04" stroke-linecap="round" stroke-linejoin="round"/>
<path d="M329.08 403.161H376.086" stroke="white" stroke-width="2.04" stroke-linecap="round" stroke-linejoin="round"/>
<path d="M329.08 446.056H435.105" stroke="white" stroke-width="2.04" stroke-linecap="round" stroke-linejoin="round"/>
<path d="M329.08 463.363H376.086" stroke="white" stroke-width="2.04" stroke-linecap="round" stroke-linejoin="round"/>
<path d="M290.592 414.696C302.142 414.696 311.504 405.656 311.504 394.503C311.504 383.351 302.142 374.311 290.592 374.311C279.043 374.311 269.68 383.351 269.68 394.503C269.68 405.656 279.043 414.696 290.592 414.696Z" fill="white"/>
<path d="M290.592 474.906C302.142 474.906 311.504 465.866 311.504 454.714C311.504 443.561 302.142 434.521 290.592 434.521C279.043 434.521 269.68 443.561 269.68 454.714C269.68 465.866 279.043 474.906 290.592 474.906Z" fill="white"/>
<path d="M54.041 482.836L73.556 471.988L85.9001 493.815L63.1678 504.656L54.041 482.836Z" fill="#E49D75"/>
<path d="M197.216 471.988L201.568 496.113L227.958 491.78L219.254 464.401L197.216 471.988Z" fill="#E49D75"/>
<path d="M262.526 279.838C254.754 280.247 127.225 306.988 125.565 313.258C111.909 364.697 189.91 472.674 195.642 475.945C201.822 474.506 222.912 467.41 222.912 467.41L218.069 395.411L262.526 279.838Z" fill="#5FC5D1"/>
<path d="M68.9165 508.04L53.3383 476.599L10.9471 437.431L0 443.252L41.9679 520.916L68.9165 508.04Z" fill="black"/>
<path d="M229.956 486L194.414 492.115L144.005 521.112L146.909 532.86L235.62 514.515L229.956 486Z" fill="black"/>
<path d="M360.906 247.939C365.867 251.773 371.065 269.055 371.666 274.917C378.16 342.918 262.247 382.96 246.194 389.68C230.955 401.984 98.0324 496.603 89.9301 498.843C81.8277 501.083 68.5778 471.048 69.7377 467.034C70.8976 463.02 265.718 273.911 265.718 273.911L360.906 247.939Z" fill="#6BD5E1"/>
<path d="M267.699 125.532C251.3 117.708 236.136 160.62 237.593 165.533C239.049 170.446 254.102 171.852 257.912 171.852C261.722 171.852 267.699 125.532 267.699 125.532Z" fill="#FFC78E"/>
<path d="M299.143 100.916C359.001 100.916 364.648 238.709 363.97 248.11C357.925 267.273 285.419 290.294 263.102 277.696C227.687 197.514 244.002 100.916 299.143 100.916Z" fill="#FFD98E"/>
<path d="M358.857 168.852C362.201 174.362 369.397 210.267 368.678 214.952C367.958 219.636 356.825 231.458 352.862 231.719C296.527 235.414 235.425 213.677 224.004 207.57C200.112 205.73 185.973 197.4 185.973 185.219C185.973 178.025 190.104 172.841 192.382 172.841C196.7 172.841 204.37 180.027 205.302 182.128C203.439 178.433 197.597 171.648 202.406 171.648C203.744 171.648 214.598 186.298 220.49 189.854C226.383 193.41 311.428 196.394 328.479 202.378C326.303 198.193 320.208 183.02 320.106 180.829C320.004 178.638 358.857 168.852 358.857 168.852Z" fill="#E49D75"/>
<path d="M192.74 77.6175L160.886 83.7302C157.363 84.4061 155.075 87.7111 155.775 91.1121L162.106 121.871C162.806 125.272 166.229 127.481 169.751 126.805L201.605 120.692C205.127 120.016 207.415 116.711 206.715 113.31L200.385 82.5518C199.685 79.1508 196.262 76.9416 192.74 77.6175Z" fill="#0089EF"/>
<path d="M177.506 115.125L173.688 115.86C173.354 115.925 173.01 115.925 172.676 115.86C172.342 115.796 172.024 115.669 171.741 115.486C171.458 115.303 171.215 115.068 171.026 114.794C170.837 114.52 170.706 114.213 170.64 113.89L168.862 105.29C168.728 104.637 168.867 103.96 169.25 103.406C169.632 102.853 170.227 102.469 170.903 102.339L174.721 101.611M183.128 97.4418L182.112 92.5367C182.014 92.0524 181.818 91.5916 181.534 91.1808C181.251 90.77 180.887 90.4173 180.462 90.1431C180.037 89.8688 179.56 89.6783 179.059 89.5826C178.557 89.4869 178.041 89.4879 177.54 89.5854L174.721 101.627L177.506 115.141L191.899 112.386C192.515 112.276 193.068 111.955 193.457 111.481C193.846 111.008 194.045 110.415 194.016 109.811L193.5 98.3656C193.467 97.7011 193.162 97.0765 192.652 96.6289C192.143 96.1813 191.47 95.9473 190.782 95.9784C190.643 95.9867 190.504 96.0031 190.367 96.0275L183.128 97.4418Z" stroke="white" stroke-width="2.04" stroke-linecap="round" stroke-linejoin="round"/>
<path d="M187.768 133.838L191.73 122.572L179.64 124.894L187.768 133.838Z" fill="#0089EF"/>
<path d="M316.355 111.896C342.271 102.723 362.76 160.538 361.922 167.863C361.083 175.188 319.59 188.015 314.916 185.366C310.243 182.717 290.668 120.986 316.355 111.896Z" fill="#FFE4AD"/>
<path d="M300.836 75.8429C300.557 79.3174 302.75 98.7334 306.179 105.069C304.663 107.947 289.085 116.31 281.626 114.52C280.61 109.14 277.909 94.6949 275.7 90.2967C279.687 88.2856 300.836 75.8429 300.836 75.8429Z" fill="#D18C65"/>
<path d="M281.694 92.6976C299.835 88.0497 309.651 66.4835 303.618 44.5281C297.585 22.5727 277.988 8.54218 259.847 13.1901C241.705 17.8379 231.89 39.4041 237.923 61.3596C243.956 83.315 263.553 97.3455 281.694 92.6976Z" fill="#E49D75"/>
<path d="M286.731 52.4047C284.852 52.5028 277.681 48.9711 276.089 38.3761C270.916 37.5586 248.108 39.9048 236.153 49.0038C231.725 50.6389 228.136 52.0041 221.439 52.0041C218.264 52.0041 215.571 48.7994 215.571 46.6003C215.571 40.5425 218.264 34.6727 226.129 34.2803C219.508 34.1413 213.37 30.1927 213.37 27.2824C213.37 23.4155 222.471 11.5533 238.346 16.7527C234.621 14.153 230.413 11.6187 230.413 9.15798C230.413 4.94776 236.687 0.860168 247.659 0.860168C264.634 0.860168 283.133 7.65375 287.129 12.518C288.992 11.586 291.363 9.85287 295.901 9.85287C307.212 9.85287 311.005 45.2351 306.111 57.0972C304.899 57.849 303.543 58.3578 302.123 58.5933" fill="#FD8369"/>
<path d="M286.393 53.1813C286.954 51.6386 287.988 50.297 289.356 49.3342C290.725 48.3714 292.364 47.8328 294.057 47.7899C295.75 47.747 297.416 48.2016 298.836 49.0937C300.255 49.9858 301.36 51.2732 302.004 52.7853C302.649 54.2974 302.802 55.9629 302.444 57.5612C302.086 59.1594 301.234 60.6149 300 61.7349C298.767 62.8549 297.21 63.5866 295.535 63.8329C293.861 64.0792 292.149 63.8285 290.626 63.1142" fill="#E49D75"/>
</g>
<defs>
<clipPath id="clip0">
<rect width="500" height="532" fill="white" transform="translate(0 0.860168)"/>
</clipPath>
</defs>
</svg>
