<svg width="501" height="501" viewBox="0 0 501 501" fill="none" xmlns="http://www.w3.org/2000/svg">
<path d="M178.081 439.287L155.525 435.585L153.6 447.316L176.156 451.018L178.081 439.287Z" fill="#DE8E68"/>
<path d="M288.899 407.802L274.727 418.771L282.003 428.171L296.175 417.202L288.899 407.802Z" fill="#DE8E68"/>
<path d="M246.77 438.382V239.215" stroke="#FD8369" stroke-width="6" stroke-miterlimit="10" stroke-linecap="round"/>
<path d="M219.086 335.661C218.503 338.686 269.195 419.495 273.253 419.495C278.457 419.495 290.407 410.628 290.407 408.124C290.407 405.619 267.578 347.415 267.578 337.586C267.578 327.757 224.095 309.632 219.086 335.661Z" fill="#56CAD8"/>
<path d="M210.103 460.882V239.215" stroke="#FD8369" stroke-width="6" stroke-miterlimit="10" stroke-linecap="round"/>
<path d="M380.245 310.661C380.245 304.411 288.336 267.482 223.632 267.482C185.82 267.482 154.882 433.065 154.882 435.919C157.915 436.811 178.432 439.669 178.432 439.669C178.432 439.669 229.828 334.753 231.257 327.615C236.432 331.182 301.628 365.082 326.799 365.082C354.386 365.082 380.245 336.715 380.245 310.661Z" fill="#74D5DE"/>
<path d="M430.275 167.844L416.648 164.632L364.408 386.314L378.035 389.526L430.275 167.844Z" fill="#FD8369"/>
<path d="M378.023 389.549L381.234 375.923L253.719 345.873L250.508 359.5L378.023 389.549Z" fill="#FD8369"/>
<path d="M279.686 90.4653H210.103V137.549H279.686V90.4653Z" fill="#DFDFDF"/>
<path d="M292.395 114.007L261.145 106.715V121.299L292.395 114.007Z" fill="#DFDFDF"/>
<path d="M229.061 117.549C231.017 117.549 232.603 115.963 232.603 114.007C232.603 112.051 231.017 110.465 229.061 110.465C227.105 110.465 225.52 112.051 225.52 114.007C225.52 115.963 227.105 117.549 229.061 117.549Z" fill="white"/>
<path d="M244.895 117.549C246.851 117.549 248.436 115.963 248.436 114.007C248.436 112.051 246.851 110.465 244.895 110.465C242.939 110.465 241.353 112.051 241.353 114.007C241.353 115.963 242.939 117.549 244.895 117.549Z" fill="white"/>
<path d="M260.728 117.549C262.684 117.549 264.27 115.963 264.27 114.007C264.27 112.051 262.684 110.465 260.728 110.465C258.772 110.465 257.186 112.051 257.186 114.007C257.186 115.963 258.772 117.549 260.728 117.549Z" fill="white"/>
<path d="M376.353 137.549C395.52 137.549 403.436 157.549 403.436 171.715C403.436 237.132 389.97 302.599 382.186 307.549C368.436 316.299 304.22 295.465 298.436 281.715C291.77 265.882 305.936 137.549 376.353 137.549Z" fill="#FED385"/>
<path d="M380.52 105.882C380.103 108.382 380.936 129.632 386.77 142.965C384.686 146.299 365.52 153.799 356.353 146.299C357.186 139.632 357.603 128.799 356.77 122.549C355.936 116.299 370.936 103.382 370.936 103.382L380.52 105.882Z" fill="#D37C59"/>
<path d="M351.978 126.299C364.059 126.299 373.853 110.349 373.853 90.6737C373.853 70.9986 364.059 55.0487 351.978 55.0487C339.897 55.0487 330.103 70.9986 330.103 90.6737C330.103 110.349 339.897 126.299 351.978 126.299Z" fill="#DE8E68"/>
<path d="M345.103 29.2153C354.27 29.2153 361.145 37.9653 366.77 40.882C376.353 45.882 399.27 45.0487 399.27 62.5487C399.27 75.0487 394.686 78.382 394.686 84.2153C394.686 87.5487 395.52 88.7987 395.52 95.4653C395.52 104.215 386.77 108.382 382.186 108.382C365.936 108.382 361.849 89.782 360.103 85.4653C353.02 67.9653 339.686 70.0487 335.52 70.0487C333.436 73.7987 331.77 81.2987 331.77 81.2987C307.603 81.2987 304.27 65.0487 304.27 59.2153C304.27 43.7987 318.02 43.382 323.853 40.0487C330.495 36.2528 335.52 29.2153 345.103 29.2153Z" fill="#FD8369"/>
<path d="M370.311 102.132C374.568 102.132 378.02 98.6809 378.02 94.4237C378.02 90.1665 374.568 86.7153 370.311 86.7153C366.054 86.7153 362.603 90.1665 362.603 94.4237C362.603 98.6809 366.054 102.132 370.311 102.132Z" fill="#DE8E68"/>
<path d="M350.52 215.049C349.27 217.549 343.02 231.299 342.186 243.799C335.936 241.299 275.936 214.215 264.686 214.215C242.603 214.215 236.77 221.299 236.77 224.632C236.77 230.882 263.853 230.049 267.603 232.132C271.353 234.215 345.52 282.549 354.686 282.549C363.853 282.549 386.77 243.382 387.603 233.799" fill="#DE8E68"/>
<path d="M391.77 164.632C411.599 174.132 398.436 237.132 389.27 237.549C380.103 237.965 346.77 220.465 344.27 215.049C341.77 209.632 371.77 155.049 391.77 164.632Z" fill="#FED892"/>
<path d="M257.186 233.799H44.6862V242.132H257.186V233.799Z" fill="#FD8369"/>
<path d="M57.6029 460.882V239.215" stroke="#FD8369" stroke-width="6" stroke-miterlimit="10" stroke-linecap="round"/>
<path d="M95.9362 438.382V239.215" stroke="#FD8369" stroke-width="6" stroke-miterlimit="10" stroke-linecap="round"/>
<path d="M248.436 229.215H200.52V233.799H248.436V229.215Z" fill="#0089EF"/>
<path d="M178.03 170.475L199.975 231.933L201.274 231.47L179.329 170.012L178.03 170.475Z" fill="#0089EF"/>
<path d="M356.049 381.549L385.124 468.77" stroke="#FD8369" stroke-width="6" stroke-miterlimit="10" stroke-linecap="round"/>
<path d="M325.365 376.14L258.499 464.999" stroke="#FD8369" stroke-width="6" stroke-miterlimit="10" stroke-linecap="round"/>
<path d="M280.203 365.499L213.336 454.357" stroke="#FD8369" stroke-width="6" stroke-miterlimit="10" stroke-linecap="round"/>
<path d="M312.261 373.661L341.336 460.882" stroke="#FD8369" stroke-width="6" stroke-miterlimit="10" stroke-linecap="round"/>
<path d="M176.874 449.803L151.811 445.511L112.42 456.453L110.757 461.711L173.07 471.753L176.874 449.803Z" fill="black"/>
<path d="M293.286 413.682L278.72 427.753L263.132 466.032L265.707 469.728L305.695 426.715L293.286 413.682Z" fill="black"/>
</svg>
