<svg width="360" height="421" viewBox="0 0 360 421" fill="none" xmlns="http://www.w3.org/2000/svg">
<path d="M35.1036 325.248L46.3668 332.405C46.955 332.738 47.6062 332.912 48.2668 332.912C48.9274 332.912 49.5786 332.738 50.1668 332.405L138.98 275.57C140.022 274.905 140.022 273.827 138.98 273.17L127.58 266.072C126.991 265.742 126.34 265.57 125.68 265.57C125.02 265.57 124.369 265.742 123.78 266.072L35.1036 322.84C34.0624 323.505 34.0624 324.583 35.1036 325.248Z" fill="#E0E0E0"/>
<path d="M315.908 325.248L304.645 332.405C304.057 332.737 303.406 332.91 302.745 332.91C302.085 332.91 301.434 332.737 300.845 332.405L212.032 275.57C210.99 274.905 210.998 273.827 212.032 273.17L223.432 266.072C224.021 265.742 224.671 265.57 225.332 265.57C225.992 265.57 226.643 265.742 227.232 266.072L315.908 322.823C316.95 323.505 316.95 324.583 315.908 325.248Z" fill="#E0E0E0"/>
<path d="M307.001 289.85C307.001 289.85 307.548 277.094 312.656 266.847C317.763 256.6 325.203 249.906 332.454 248.735C339.704 247.565 346.035 254.562 338.534 260.237C331.032 265.912 317.489 272.118 312.253 291.669L307.001 289.85Z" fill="#90CAF9"/>
<g opacity="0.2">
<path opacity="0.2" d="M307.001 289.85C307.001 289.85 307.548 277.094 312.656 266.847C317.763 256.6 325.203 249.906 332.454 248.735C339.704 247.565 346.035 254.562 338.534 260.237C331.032 265.912 317.489 272.118 312.253 291.669L307.001 289.85Z" fill="black"/>
</g>
<path d="M308.947 286.406H308.863C308.815 286.388 308.77 286.36 308.731 286.322C308.693 286.285 308.661 286.24 308.639 286.189C308.616 286.138 308.603 286.083 308.6 286.026C308.596 285.969 308.603 285.913 308.62 285.859C315.065 264.312 329.186 254.486 335.752 252.297C335.853 252.263 335.961 252.276 336.054 252.331C336.147 252.386 336.216 252.48 336.246 252.592C336.276 252.703 336.265 252.824 336.215 252.926C336.165 253.029 336.081 253.105 335.98 253.139C329.543 255.286 315.703 264.927 309.38 286.154C309.343 286.243 309.28 286.316 309.202 286.361C309.124 286.407 309.034 286.423 308.947 286.406V286.406Z" fill="white"/>
<path d="M348.862 285.985C348.269 287.787 346.582 288.831 345.062 289.665C343.542 290.498 341.802 291.391 341.026 293.109C339.506 296.586 342.63 301.082 340.95 304.476C340.55 305.16 340.028 305.747 339.417 306.202C338.805 306.656 338.117 306.968 337.394 307.12C336.201 307.395 334.996 307.603 333.784 307.743C333.206 307.781 332.628 307.781 332.051 307.743C330.371 307.591 328.555 307.642 327.088 308.694C324.808 310.378 324.238 313.746 322.931 316.474C322.121 318.069 321.009 319.45 319.671 320.521C318.332 321.593 316.799 322.329 315.179 322.68C314.107 322.915 312.139 323.278 310.976 322.68C310.893 322.641 310.814 322.593 310.74 322.537V322.537C310.581 322.36 310.376 322.132 310.284 322.006C310.193 321.88 310.284 321.956 310.239 321.93C309.707 320.246 310.3 318.369 310.239 316.575C310.239 316.457 310.239 316.356 310.239 316.247C310.041 314.167 309.866 312.104 309.699 310.024C309.385 306.207 309.132 302.382 308.939 298.548C308.818 296.064 308.384 293.361 309.19 290.97C310.094 288.318 312.701 288.073 313.545 285.472C313.879 284.436 314.024 283.341 314.343 282.297C314.848 280.761 315.725 279.407 316.878 278.386C318.03 277.364 319.415 276.713 320.879 276.504C325.439 275.915 329.763 279.704 334.3 279.03C335.478 278.837 336.58 278.357 337.751 278.037C341.406 277.001 345.746 277.852 348.034 281.169C348.511 281.839 348.835 282.627 348.979 283.465C349.123 284.303 349.083 285.168 348.862 285.985V285.985Z" fill="#90CAF9"/>
<path d="M309.342 313.957H309.304C309.203 313.934 309.115 313.868 309.058 313.774C309.001 313.679 308.98 313.563 309 313.451C313.75 286.777 338.458 281.169 344.317 281.211C344.42 281.215 344.518 281.263 344.59 281.345C344.662 281.426 344.703 281.535 344.705 281.649C344.705 281.706 344.695 281.763 344.675 281.815C344.655 281.868 344.625 281.916 344.589 281.956C344.552 281.996 344.508 282.027 344.46 282.048C344.412 282.069 344.361 282.08 344.31 282.078C338.579 282.036 314.411 287.518 309.768 313.62C309.747 313.725 309.693 313.817 309.614 313.88C309.535 313.942 309.438 313.969 309.342 313.957Z" fill="white"/>
<path d="M336.246 298.657C336.167 298.644 336.093 298.606 336.033 298.548C333.601 296.505 330.791 295.083 327.805 294.381C324.819 293.679 321.73 293.717 318.758 294.49C318.708 294.502 318.657 294.503 318.607 294.493C318.556 294.483 318.508 294.462 318.465 294.432C318.422 294.401 318.385 294.362 318.356 294.315C318.326 294.269 318.306 294.216 318.295 294.161C318.284 294.106 318.283 294.049 318.292 293.993C318.301 293.937 318.319 293.884 318.347 293.836C318.375 293.789 318.41 293.747 318.452 293.715C318.494 293.683 318.541 293.66 318.591 293.648C321.684 292.848 324.898 292.815 328.003 293.55C331.109 294.285 334.03 295.77 336.558 297.9C336.619 297.962 336.661 298.045 336.678 298.135C336.694 298.226 336.685 298.32 336.65 298.404C336.616 298.488 336.558 298.558 336.485 298.603C336.413 298.649 336.329 298.668 336.246 298.657V298.657Z" fill="white"/>
<path d="M42.9316 287.004C42.5264 281.514 41.3839 276.122 39.542 271.006C36.502 262.771 30.7412 254.469 24.076 252.903C17.4108 251.337 14.576 256.313 15.982 261.197C17.198 265.407 22.1532 268.893 25.9152 272.564C29.6772 276.235 36.7072 285.101 38.6604 293.673L42.4224 294.127L42.9316 287.004Z" fill="#90CAF9"/>
<g opacity="0.15">
<path opacity="0.15" d="M42.9316 287.004C42.5264 281.514 41.3839 276.122 39.542 271.006C36.502 262.771 30.7412 254.469 24.076 252.903C17.4108 251.337 14.576 256.313 15.982 261.197C17.198 265.407 22.1532 268.893 25.9152 272.564C29.6772 276.235 36.7072 285.101 38.6604 293.673L42.4224 294.127L42.9316 287.004Z" fill="black"/>
</g>
<path d="M40.3628 290.869C40.2551 290.867 40.1521 290.82 40.0745 290.737C39.9969 290.654 39.9506 290.542 39.9448 290.423C39.2456 268.876 20.2304 256.835 20.0328 256.743C19.932 256.682 19.857 256.58 19.8242 256.459C19.7914 256.337 19.8036 256.206 19.858 256.094C19.9124 255.983 20.0047 255.9 20.1144 255.863C20.2242 255.827 20.3424 255.84 20.4432 255.901C20.6408 256.027 40.0664 268.329 40.7884 290.423C40.7905 290.546 40.7486 290.666 40.6719 290.756C40.5951 290.845 40.4896 290.898 40.378 290.903L40.3628 290.869Z" fill="white"/>
<path d="M40.5832 320.314C40.5832 320.314 36.692 323.033 30.6196 321.88C28.6568 321.595 26.8261 320.628 25.3908 319.118C23.8252 317.325 23.5744 315.523 23.1108 313.123C22.9905 312.122 22.6796 311.16 22.1988 310.302C20.8916 308.315 18.2924 308.349 16.1188 307.835C13.0788 307.103 10.2212 304.652 9.33199 301.318C8.44279 297.984 9.88679 293.909 12.7976 292.595L9.22559 290.069C8.11997 289.349 7.0989 288.481 6.18559 287.484C5.26979 286.465 4.72811 285.106 4.66559 283.67C4.72327 282.617 5.0486 281.604 5.60401 280.747C6.15943 279.89 6.92225 279.225 7.80439 278.828C9.58521 278.071 11.5159 277.853 13.398 278.197C15.301 278.448 17.1723 278.937 18.9764 279.654C19.4685 279.901 20.0016 280.033 20.542 280.041C21.2579 279.907 21.9277 279.561 22.48 279.039C26.5688 276.05 33.2264 276.277 35.4 281.91C35.7268 282.752 35.9168 283.594 36.2588 284.436C37.5356 287.467 41.1076 286.558 43.4104 287.972C44.1394 288.479 44.7586 289.157 45.2237 289.959C45.6887 290.761 45.9882 291.667 46.1008 292.612C46.5568 295.618 45.8044 299.036 45.3408 302.009C44.8772 304.981 44.2084 307.734 43.4788 310.546C42.886 312.87 42.2324 315.169 41.5332 317.451C41.3356 317.964 41.0088 320.011 40.5832 320.314Z" fill="#90CAF9"/>
<path d="M43 313.367C40.9587 307.157 37.6109 301.574 33.234 297.083C33.1889 296.977 33.1105 296.893 33.0136 296.847C31.7523 295.535 30.4306 294.295 29.054 293.134C28.5378 289.142 29.0025 285.07 30.3992 281.346C30.4226 281.291 30.436 281.231 30.4386 281.17C30.4412 281.109 30.4329 281.048 30.4142 280.99C30.3955 280.933 30.3667 280.88 30.3296 280.835C30.2925 280.79 30.2477 280.753 30.1978 280.727C30.1479 280.701 30.0938 280.686 30.0388 280.683C29.9837 280.68 29.9286 280.69 29.8768 280.71C29.8249 280.731 29.7772 280.763 29.7365 280.804C29.6957 280.845 29.6626 280.895 29.6392 280.95C28.2676 284.549 27.7445 288.475 28.1192 292.359C22.5209 287.889 16.3112 284.444 9.72718 282.154C9.67427 282.138 9.61893 282.133 9.56442 282.141C9.50991 282.149 9.45735 282.168 9.40987 282.199C9.36238 282.23 9.32092 282.27 9.28796 282.319C9.255 282.368 9.2312 282.423 9.21798 282.483C9.20302 282.541 9.19864 282.601 9.20511 282.661C9.21157 282.721 9.22875 282.779 9.25563 282.832C9.28251 282.884 9.31857 282.93 9.36169 282.967C9.40481 283.004 9.45413 283.031 9.50678 283.047C9.68158 283.106 21.5452 286.827 31.334 296.392C25.33 295.222 18.1556 298.438 17.8288 298.59C17.7386 298.63 17.6639 298.704 17.6176 298.799C17.5713 298.894 17.5563 299.004 17.5752 299.109C17.5941 299.215 17.6457 299.31 17.7212 299.378C17.7966 299.447 17.8911 299.483 17.9884 299.483C18.041 299.495 18.0953 299.495 18.148 299.483C18.2316 299.44 26.6524 295.668 32.588 297.714C36.9006 302.121 40.1995 307.606 42.2096 313.712C42.239 313.803 42.2926 313.881 42.3632 313.937C42.4338 313.992 42.5181 314.023 42.6048 314.024H42.7416C42.8003 314.004 42.8545 313.97 42.9004 313.925C42.9462 313.88 42.9827 313.824 43.0072 313.761C43.0318 313.699 43.0439 313.631 43.0426 313.563C43.0413 313.495 43.0268 313.428 43 313.367V313.367Z" fill="white"/>
<path d="M29.5328 152.528C28.4877 153.842 27.1361 154.813 25.6264 155.332L25.4668 155.374H25.3452L25.0792 155.425H24.7752H24.5776C24.5477 155.433 24.5163 155.433 24.4864 155.425C23.8802 155.427 23.2871 155.229 22.7833 154.856C22.2795 154.482 21.888 153.95 21.6592 153.328C21.4408 152.775 21.3023 152.186 21.2488 151.585C21.4844 151.467 21.72 151.324 21.9632 151.173C23.7164 149.906 25.1752 148.199 26.2211 146.19C27.267 144.181 27.8704 141.928 27.9824 139.612C27.9824 139.292 27.9824 138.989 27.9824 138.711C28.6463 138.361 29.3752 138.188 30.1104 138.206H30.2396H30.346C30.3836 138.198 30.4223 138.198 30.46 138.206C30.9816 138.293 31.4739 138.529 31.8883 138.891C32.3027 139.252 32.625 139.727 32.8236 140.269C34.0624 143.494 32.6032 148.941 29.5328 152.528Z" fill="#90CAF9"/>
<path d="M40.6668 142.407C40.6074 142.376 40.5427 142.359 40.4768 142.357L37.908 142.197C37.8519 142.199 37.7959 142.189 37.7434 142.167C37.6909 142.144 37.643 142.111 37.6026 142.067C37.5621 142.024 37.53 141.972 37.508 141.915C37.4861 141.858 37.4748 141.796 37.4748 141.734C37.5128 141.279 37.528 140.833 37.5356 140.403C37.5388 139.931 37.5185 139.459 37.4748 138.989C37.4829 138.68 37.5846 138.384 37.7636 138.147L40.6288 134.291C40.716 134.186 40.7778 134.058 40.8084 133.92C40.839 133.781 40.8373 133.637 40.8036 133.499L39.4432 130.131C39.4258 130.088 39.3965 130.053 39.3596 130.03V130.03C39.2811 130.001 39.1963 130 39.1172 130.027C39.0381 130.054 38.9687 130.108 38.9188 130.182L35.8788 133.28C35.7972 133.383 35.6863 133.451 35.5646 133.474C35.4429 133.497 35.3177 133.473 35.21 133.406C34.816 133.053 34.3751 132.769 33.9028 132.564C33.7974 132.521 33.7088 132.439 33.652 132.331C33.5952 132.224 33.5737 132.098 33.5912 131.975L34.5336 127.218C34.5482 127.154 34.5434 127.086 34.5201 127.025C34.4968 126.965 34.4561 126.914 34.4044 126.881C34.3167 126.836 34.2194 126.818 34.1232 126.83L31.0832 127.159C30.9453 127.178 30.8137 127.233 30.6998 127.321C30.5858 127.41 30.4931 127.527 30.4296 127.664L28.8032 132.497C28.6621 132.805 28.4319 133.051 28.1496 133.196C27.4969 133.535 26.8715 133.935 26.28 134.392C26.0216 134.577 25.7404 134.594 25.634 134.392L24.114 131.79C24.0076 131.605 23.7568 131.647 23.5592 131.874L20.2684 135.73C20.1738 135.834 20.1014 135.959 20.0566 136.098C20.0119 136.236 19.9959 136.384 20.01 136.53L20.9296 139.966C20.9682 140.26 20.9087 140.559 20.7624 140.808C20.2051 141.742 19.6976 142.712 19.2424 143.713C19.0816 144.005 18.8261 144.219 18.528 144.31L15.7084 145.06C15.5677 145.096 15.4366 145.168 15.3257 145.27C15.2148 145.372 15.1272 145.502 15.07 145.649L13.6488 150.937C13.6338 150.995 13.6318 151.055 13.6427 151.114C13.6537 151.173 13.6774 151.228 13.7118 151.274C13.7462 151.321 13.7903 151.357 13.8402 151.381C13.8901 151.404 13.9444 151.414 13.9984 151.408L16.5748 151.577C16.6312 151.573 16.6877 151.583 16.7407 151.605C16.7937 151.626 16.842 151.66 16.8827 151.704C16.9233 151.747 16.9555 151.799 16.977 151.857C16.9986 151.915 17.0092 151.977 17.008 152.04C16.9359 152.953 16.9359 153.872 17.008 154.785C17.0061 155.092 16.9096 155.389 16.7344 155.627L13.8616 159.483C13.7744 159.588 13.7126 159.716 13.682 159.854C13.6515 159.992 13.6531 160.137 13.6868 160.275L15.0472 163.643C15.0668 163.686 15.0955 163.724 15.1308 163.752C15.1654 163.764 15.2026 163.764 15.2372 163.752C15.3648 163.742 15.4842 163.679 15.5716 163.575L18.6116 160.468C18.6942 160.367 18.8056 160.3 18.9273 160.279C19.0489 160.257 19.1735 160.283 19.2804 160.35C19.6734 160.706 20.1146 160.99 20.5876 161.192C20.6945 161.236 20.7842 161.32 20.8412 161.429C20.8981 161.538 20.9187 161.666 20.8992 161.79L19.9492 166.548C19.9382 166.609 19.9447 166.673 19.9678 166.73C19.991 166.788 20.0296 166.836 20.0784 166.868V166.868C20.164 166.92 20.2626 166.941 20.3596 166.926L23.3996 166.598C23.5375 166.579 23.6692 166.524 23.7831 166.435C23.897 166.347 23.9898 166.23 24.0532 166.093L25.6796 161.26C25.8222 160.952 26.0517 160.703 26.3332 160.553C26.6615 160.387 26.9812 160.202 27.2908 159.997C27.5872 159.803 27.8912 159.593 28.1952 159.365C28.4992 159.138 28.7272 159.163 28.8336 159.365L30.3536 161.959C30.373 161.99 30.3991 162.016 30.4296 162.034C30.5512 162.127 30.7488 162.034 30.9084 161.874L34.1992 158.027C34.3001 157.92 34.3758 157.787 34.4195 157.64C34.4632 157.493 34.4737 157.337 34.45 157.185L33.538 153.741C33.4926 153.447 33.5526 153.145 33.7052 152.899C34.267 151.964 34.7747 150.991 35.2252 149.985C35.31 149.836 35.4209 149.707 35.5514 149.606C35.6819 149.504 35.8294 149.433 35.9852 149.396L38.7972 148.647C38.9379 148.611 39.069 148.539 39.1799 148.436C39.2908 148.334 39.3784 148.204 39.4356 148.057L40.8568 142.77C40.8629 142.695 40.8479 142.62 40.8139 142.555C40.7798 142.49 40.7284 142.439 40.6668 142.407ZM25.634 155.332L25.4668 155.374H25.3452L25.0792 155.425H24.7676H24.4864C23.8793 155.427 23.2856 155.227 22.7817 154.852C22.2778 154.477 21.8869 153.943 21.6592 153.32C21.44 152.767 21.3015 152.178 21.2488 151.577C21.2181 151.255 21.2029 150.932 21.2032 150.609C21.3873 147.07 22.7051 143.72 24.9196 141.161C25.5887 140.366 26.3564 139.68 27.1996 139.124C27.445 138.964 27.6988 138.821 27.9596 138.694C28.6253 138.35 29.3533 138.18 30.0876 138.197H30.2168H30.3232H30.4448C30.9651 138.286 31.4558 138.522 31.8688 138.884C32.2818 139.246 32.6029 139.72 32.8008 140.26C34.07 143.376 32.6108 148.815 29.5404 152.41C28.5105 153.77 27.1572 154.782 25.634 155.332Z" fill="#F5F5F5"/>
<path d="M28.7728 132.522C28.6227 132.813 28.3978 133.048 28.1268 133.196C27.4811 133.534 26.8631 133.934 26.28 134.392C26.0216 134.577 25.7404 134.594 25.634 134.392L24.114 131.798C24.0964 131.765 24.0698 131.738 24.038 131.722V131.722L21.1576 129.879C21.4672 129.674 21.7869 129.488 22.1152 129.323L22.2216 129.255C22.3351 129.177 22.4397 129.084 22.5332 128.978L22.6472 128.843C22.6726 128.813 22.6931 128.779 22.708 128.742L22.7536 128.649L28.7728 132.522Z" fill="#EBEBEB"/>
<path d="M20.96 140.092C20.9651 140.348 20.9016 140.6 20.7776 140.816C20.2216 141.752 19.7141 142.722 19.2576 143.721C19.22 143.804 19.1713 143.881 19.1132 143.948L13.0332 140.067C13.0654 140.035 13.0935 139.998 13.1168 139.957C13.147 139.922 13.1726 139.882 13.1928 139.839C13.6434 138.834 14.151 137.861 14.7128 136.926C14.7428 136.879 14.7682 136.828 14.7888 136.774C14.7888 136.774 14.7888 136.707 14.7888 136.673C14.7921 136.654 14.7921 136.634 14.7888 136.614C14.7888 136.614 14.7888 136.614 14.7888 136.614C14.7915 136.567 14.7915 136.519 14.7888 136.471C14.7999 136.399 14.7999 136.325 14.7888 136.252L20.96 140.092Z" fill="#EBEBEB"/>
<path d="M21.112 129.87L17.9656 127.849C17.9243 127.822 17.877 127.807 17.8288 127.807C17.7622 127.813 17.6974 127.833 17.6385 127.868C17.5796 127.903 17.5279 127.951 17.4868 128.009V128.009L15.5184 130.316L14.196 131.857C14.0879 131.987 14.0074 132.143 13.9604 132.312L18.5888 135.259L20.0252 136.168C20.0741 136.012 20.1517 135.869 20.2532 135.747L20.2988 135.697L23.544 131.891C23.5968 131.816 23.6678 131.76 23.7487 131.729C23.8295 131.697 23.9167 131.692 24 131.714L21.112 129.87Z" fill="#F5F5F5"/>
<path d="M34.3208 126.872C34.2413 126.827 34.1504 126.812 34.0624 126.83L31.0224 127.159C30.8377 127.183 30.6646 127.271 30.5284 127.411L24.4484 123.538C24.582 123.392 24.756 123.3 24.9424 123.277L27.9824 122.949C28.0844 122.931 28.1889 122.951 28.2788 123.008L29.0844 123.53L29.4872 123.782L32.056 125.466L32.6868 125.87L33.1504 126.165L34.3208 126.872Z" fill="#F5F5F5"/>
<path d="M19.0752 143.982C18.9183 144.155 18.7251 144.282 18.5128 144.352L15.6932 145.102C15.4875 145.156 15.3034 145.283 15.1688 145.464L9.08881 141.599C9.22693 141.41 9.41595 141.274 9.62841 141.212L12.448 140.462C12.6586 140.404 12.849 140.278 12.9952 140.1L19.0752 143.982Z" fill="#E6E6E6"/>
<path d="M16.9317 155.172C16.8814 155.339 16.807 155.495 16.7113 155.635L13.8385 159.492C13.7557 159.606 13.6937 159.738 13.6561 159.879L7.57611 155.997C7.60731 155.851 7.66988 155.715 7.75851 155.602L10.6313 151.745C10.7269 151.611 10.8015 151.46 10.8517 151.299L16.9317 155.172Z" fill="#E6E6E6"/>
<path d="M9.15717 148.394L9.24077 148.453L9.13437 148.377L8.92157 148.242L9.15717 148.394Z" fill="#E0E0E0"/>
<path d="M29.5328 152.528C28.4877 153.842 27.1361 154.813 25.6264 155.332L25.4668 155.374H25.3452L25.0792 155.425H24.7752H24.5776C24.5477 155.433 24.5163 155.433 24.4864 155.425C23.8802 155.427 23.2871 155.229 22.7833 154.856C22.2795 154.482 21.888 153.95 21.6592 153.328C21.4408 152.775 21.3023 152.186 21.2488 151.585C21.4844 151.467 21.72 151.324 21.9632 151.173C23.7164 149.906 25.1752 148.199 26.2211 146.19C27.267 144.181 27.8704 141.928 27.9824 139.612C27.9824 139.292 27.9824 138.989 27.9824 138.711C28.6463 138.361 29.3752 138.188 30.1104 138.206H30.2396H30.346C30.3836 138.198 30.4223 138.198 30.46 138.206C30.9816 138.293 31.4739 138.529 31.8883 138.891C32.3027 139.252 32.625 139.727 32.8236 140.269C34.0624 143.494 32.6032 148.941 29.5328 152.528Z" fill="#E0E0E0"/>
<path d="M20.96 140.092L14.88 136.219C14.8874 136.177 14.8874 136.134 14.88 136.092L13.9604 132.657C13.9311 132.544 13.9311 132.425 13.9604 132.312L18.5888 135.259L20.0252 136.168C19.9929 136.292 19.9929 136.423 20.0252 136.547L20.9448 139.982C20.9541 140.018 20.9592 140.055 20.96 140.092V140.092Z" fill="#E0E0E0"/>
<path d="M30.5664 127.411C30.4974 127.482 30.443 127.568 30.4068 127.664L28.7804 132.497L22.7004 128.615L24.3496 123.774C24.3815 123.678 24.4367 123.593 24.5092 123.53L30.5664 127.411Z" fill="#E0E0E0"/>
<path d="M39.3064 130.022C39.2302 130.003 39.1509 130.008 39.0772 130.037C39.0035 130.065 38.9382 130.115 38.8884 130.182L35.8484 133.289C35.7648 133.391 35.6526 133.458 35.5299 133.481C35.4073 133.504 35.2812 133.481 35.172 133.415C34.778 133.061 34.3371 132.777 33.8648 132.573C33.7594 132.53 33.6708 132.447 33.614 132.34C33.5571 132.232 33.5357 132.106 33.5532 131.983L34.4956 127.226C34.5115 127.162 34.5074 127.094 34.4839 127.033C34.4605 126.972 34.4191 126.921 34.3664 126.889V126.889L33.2188 126.148C33.2538 126.14 33.2902 126.14 33.3252 126.148L33.3936 126.199L39.3064 130.022Z" fill="#E0E0E0"/>
<path d="M40.6516 142.399C40.5922 142.367 40.5275 142.35 40.4616 142.348L37.8928 142.188C37.8366 142.191 37.7806 142.18 37.7282 142.158C37.6757 142.136 37.6278 142.102 37.5873 142.059C37.5469 142.016 37.5148 141.964 37.4928 141.907C37.4709 141.849 37.4596 141.788 37.4596 141.725C37.4976 141.271 37.5204 140.824 37.5204 140.387L40.6516 142.399Z" fill="#E0E0E0"/>
<path d="M13.0935 139.957C13.0704 139.998 13.0424 140.034 13.0104 140.067V140.067C13.0419 140.034 13.0699 139.997 13.0935 139.957V139.957Z" fill="#E0E0E0"/>
<path d="M9.0964 141.565C9.05476 141.627 9.02148 141.695 8.9976 141.768L8.8228 142.424L7.8956 145.876L7.584 147.055C7.56543 147.118 7.56543 147.186 7.584 147.249C7.59199 147.287 7.60478 147.324 7.622 147.358C7.64539 147.389 7.67079 147.417 7.698 147.443H7.7436L8.2224 147.754L8.3516 147.83L8.7316 148.066L8.9292 148.2L9.1648 148.352L9.2484 148.411L9.4992 148.562L10.8672 149.404L13.7552 151.257C13.6973 151.216 13.6532 151.155 13.6299 151.083C13.6065 151.012 13.6051 150.934 13.626 150.861L14.88 146.306L15.0548 145.649C15.0811 145.569 15.1196 145.495 15.1688 145.43L9.0964 141.565Z" fill="#E0E0E0"/>
<path d="M30.4372 162.043L27.2832 159.98C27.5796 159.786 27.8836 159.576 28.1876 159.348C28.4916 159.121 28.7196 159.146 28.826 159.348L30.346 161.95C30.3674 161.99 30.3992 162.023 30.4372 162.043V162.043Z" fill="#E0E0E0"/>
<path d="M20.96 161.79L20.01 166.556C19.999 166.618 20.0055 166.681 20.0286 166.739C20.0518 166.796 20.0904 166.844 20.1392 166.876L15.2752 163.761C15.4017 163.746 15.5197 163.683 15.6096 163.584L18.6496 160.485C18.731 160.382 18.8414 160.313 18.9628 160.289C19.0842 160.264 19.2096 160.286 19.3184 160.35C19.7098 160.708 20.1513 160.993 20.6256 161.192C20.7376 161.23 20.8335 161.311 20.8951 161.421C20.9567 161.531 20.9798 161.663 20.96 161.79V161.79Z" fill="#E0E0E0"/>
<path d="M16.9852 154.793C16.994 154.922 16.9758 155.052 16.932 155.172L10.852 151.299C10.8924 151.175 10.9104 151.043 10.9052 150.912C10.9052 150.449 10.852 149.977 10.852 149.489L13.74 151.341C13.8033 151.378 13.8736 151.398 13.9452 151.4L16.5216 151.56C16.5784 151.558 16.635 151.568 16.688 151.591C16.741 151.614 16.7893 151.648 16.8298 151.692C16.8704 151.737 16.9023 151.789 16.9238 151.848C16.9453 151.906 16.9559 151.969 16.9548 152.031C16.8919 152.951 16.9021 153.875 16.9852 154.793V154.793Z" fill="#E0E0E0"/>
<path d="M15.1001 163.718L13.8689 162.927L13.6333 162.784L11.6497 161.504L11.1101 161.167L9.07328 159.854C9.05499 159.844 9.03926 159.83 9.02768 159.812C9.00983 159.793 8.99672 159.77 8.98968 159.744L7.62168 156.376C7.59445 156.286 7.59445 156.189 7.62168 156.098C7.62168 156.098 7.62168 156.023 7.62168 155.98L13.7017 159.862C13.6592 159.99 13.6592 160.13 13.7017 160.258L15.0621 163.626C15.0691 163.659 15.0821 163.691 15.1001 163.718V163.718Z" fill="#E0E0E0"/>
<path d="M49.3384 74.4665C49.1393 74.8729 48.8276 75.1976 48.4492 75.3927C47.5632 75.8625 46.7119 76.4086 45.9032 77.0262C45.5536 77.2872 45.1432 77.3124 45.014 77.0262L42.9164 73.4645C42.8902 73.4152 42.8502 73.3767 42.8024 73.3551L40.72 72.0079C41.1608 71.73 41.594 71.469 42.0272 71.2501L42.1792 71.1574C42.3353 71.0522 42.4784 70.9248 42.6048 70.7785C42.6639 70.7202 42.7173 70.6554 42.7644 70.5849C42.7971 70.547 42.8252 70.5045 42.848 70.4586L42.9088 70.3323L49.3384 74.4665Z" fill="#EBEBEB"/>
<path d="M38.554 84.8652C38.5613 85.214 38.4739 85.5572 38.3032 85.8503C37.5394 87.1375 36.8441 88.4729 36.2208 89.8498C36.1668 89.9619 36.0976 90.0642 36.0156 90.1529L29.548 86.0187C29.5945 85.9745 29.6354 85.9235 29.6696 85.8672C29.7059 85.8165 29.7389 85.763 29.7684 85.7072C30.3795 84.3139 31.0726 82.9666 31.8432 81.674C31.885 81.6125 31.9183 81.5444 31.942 81.4719C31.9688 81.4259 31.9869 81.3744 31.9952 81.3204C31.9993 81.2953 31.9993 81.2696 31.9952 81.2446C31.9952 81.1772 31.9952 81.1099 31.9952 81.0509C32.0136 80.9509 32.0136 80.8478 31.9952 80.7478L38.554 84.8652Z" fill="#EBEBEB"/>
<path d="M40.72 72.0078L36.3956 69.2377C36.3406 69.2005 36.2777 69.1802 36.2132 69.1787C36.1193 69.1859 36.0278 69.2143 35.9442 69.2621C35.8605 69.3098 35.7866 69.376 35.7268 69.4566V69.4566L33.0212 72.6225L31.2048 74.7443C31.0569 74.9256 30.9478 75.1414 30.8856 75.3758L35.3772 78.2218L37.3532 79.4764C37.4165 79.2593 37.523 79.0608 37.6648 78.8954L37.7256 78.828L42.1868 73.5992C42.2584 73.4962 42.3553 73.4184 42.4659 73.3751C42.5764 73.3318 42.696 73.3248 42.81 73.355L40.72 72.0078Z" fill="#F5F5F5"/>
<path d="M56.9688 66.7032C56.857 66.6472 56.7333 66.6268 56.6116 66.6442L52.4848 67.0989C52.2331 67.136 51.9974 67.2563 51.8084 67.4441L45.3408 63.3099C45.5301 63.1161 45.7692 62.9925 46.0248 62.9563L50.1516 62.5016C50.2906 62.4779 50.4328 62.5076 50.5544 62.5858L51.664 63.3015L52.2112 63.6551L53.8756 64.7245L54.7496 65.2886C54.97 65.4149 55.1828 65.5581 55.3804 65.6844L56.9688 66.7032Z" fill="#F5F5F5"/>
<path d="M36.0156 90.1613C35.8084 90.4031 35.5456 90.5777 35.2556 90.6665L31.3796 91.7022C31.1006 91.7809 30.8525 91.9582 30.6728 92.2074L24.19 88.0816C24.3834 87.8165 24.6507 87.6299 24.95 87.5511L28.8184 86.5239C29.1075 86.4371 29.37 86.2654 29.5784 86.0271V86.0271L36.0156 90.1613Z" fill="#E6E6E6"/>
<path d="M33.0744 105.587C33.0074 105.817 32.9016 106.031 32.7628 106.218L28.826 111.514C28.7103 111.67 28.6249 111.851 28.5752 112.045L22.1152 107.911C22.1587 107.713 22.2418 107.529 22.3584 107.372L26.3104 102.076C26.4429 101.89 26.5433 101.679 26.6068 101.453L33.0744 105.587Z" fill="#E6E6E6"/>
<path d="M24.2508 97.4615L24.3724 97.5457L24.2204 97.4446L23.9316 97.2594L24.2508 97.4615Z" fill="#E0E0E0"/>
<path d="M50.3796 101.958C48.9573 103.755 47.1172 105.086 45.0596 105.806L44.8316 105.865C44.7786 105.872 44.725 105.872 44.672 105.865L44.3072 105.932C44.1662 105.957 44.0242 105.974 43.8816 105.983H43.4864C42.6526 105.991 41.836 105.72 41.1441 105.204C40.4522 104.689 39.9175 103.953 39.6104 103.094C39.3087 102.332 39.1163 101.523 39.0404 100.695C39.3596 100.535 39.6864 100.341 40.0208 100.139C44.5808 97.2089 48.2972 90.1024 48.2972 84.2505C48.2972 83.8126 48.2972 83.4085 48.2516 83.0043C49.164 82.5308 50.1628 82.2974 51.17 82.3223H51.3524H51.4968C51.5498 82.3141 51.6035 82.3141 51.6564 82.3223C52.3734 82.4382 53.0505 82.7604 53.6199 83.2569C54.1894 83.7533 54.6313 84.4066 54.9016 85.1514C56.6116 89.5382 54.6052 97.0236 50.3796 101.958Z" fill="#E0E0E0"/>
<path d="M38.554 84.8651L32.0864 80.7393C32.0941 80.6835 32.0941 80.6267 32.0864 80.5709L30.84 75.8473C30.7994 75.6933 30.7994 75.5297 30.84 75.3757L35.3316 78.2217L37.3076 79.4763C37.2493 79.6423 37.2335 79.823 37.262 79.9983L38.5236 84.7135C38.5418 84.7616 38.5521 84.813 38.554 84.8651V84.8651Z" fill="#E0E0E0"/>
<path d="M51.8084 67.4441C51.7117 67.5421 51.6364 67.663 51.588 67.7978L49.3536 74.4327L42.886 70.2985C42.886 70.2985 42.886 70.2985 42.886 70.248L45.1204 63.613C45.1651 63.483 45.2382 63.3673 45.3332 63.2762L51.8084 67.4441Z" fill="#E0E0E0"/>
<path d="M63.8164 71.0311C63.7094 71.0055 63.5981 71.0131 63.4948 71.0533C63.3915 71.0934 63.3003 71.1644 63.2312 71.2585L59.0284 75.519C58.9132 75.6582 58.7592 75.7504 58.5911 75.781C58.4229 75.8115 58.2504 75.7785 58.1012 75.6874C57.5608 75.1978 56.9526 74.8083 56.3 74.5339C56.1518 74.4702 56.0282 74.3513 55.9506 74.1976C55.8729 74.044 55.8459 73.8651 55.8744 73.6919L57.174 67.1663C57.1956 67.0777 57.1893 66.9835 57.1561 66.8993C57.123 66.8152 57.0649 66.746 56.9916 66.7033V66.7033L55.3804 65.676C55.433 65.664 55.4873 65.664 55.54 65.676L55.6312 65.735L63.8164 71.0311Z" fill="#E0E0E0"/>
<path d="M65.6632 88.0395C65.5835 87.9935 65.4947 87.9704 65.4048 87.9721L61.8708 87.7532C61.793 87.7555 61.7157 87.7403 61.6433 87.7086C61.571 87.677 61.5051 87.6294 61.4498 87.5689C61.3944 87.5083 61.3507 87.436 61.3211 87.3563C61.2916 87.2766 61.277 87.191 61.278 87.1048C61.3236 86.4902 61.354 85.8755 61.354 85.2777L65.6632 88.0395Z" fill="#E0E0E0"/>
<path d="M29.6684 85.8839C29.6345 85.9402 29.594 85.9912 29.548 86.0355L29.6684 85.8839Z" fill="#E0E0E0"/>
<path d="M24.1748 88.0815C24.0956 88.1756 24.036 88.2877 24 88.4099L23.7948 89.2519L22.5256 93.9924L22.0924 95.6174C22.0657 95.7019 22.0657 95.794 22.0924 95.8785C22.0986 95.9305 22.117 95.9798 22.1456 96.0216C22.1723 96.0668 22.2057 96.1066 22.2444 96.1395C22.2643 96.1606 22.2875 96.1777 22.3128 96.19L22.9588 96.611L23.1412 96.7205L23.658 97.0488L23.9392 97.2341L24.2584 97.4362L24.38 97.5204L24.722 97.7309L26.6068 98.9349L28.712 100.282C28.6319 100.226 28.5712 100.141 28.5395 100.042C28.5079 99.9426 28.507 99.8346 28.5372 99.7348L30.2472 93.3609L30.4904 92.4684C30.5194 92.3539 30.5744 92.2496 30.65 92.1652L24.1748 88.0815Z" fill="#E0E0E0"/>
<path d="M51.626 115.017L47.294 112.23C47.6968 111.969 48.1224 111.674 48.5328 111.388C48.9432 111.102 49.2928 111.11 49.4144 111.388L51.5196 114.958C51.5521 114.984 51.588 115.004 51.626 115.017Z" fill="#E0E0E0"/>
<path d="M38.554 114.68L37.2544 121.248C37.2345 121.333 37.2409 121.423 37.2726 121.504C37.3043 121.585 37.3594 121.652 37.4292 121.694C37.1632 121.534 33.0896 118.916 30.7412 117.408C30.913 117.389 31.0738 117.306 31.1972 117.173L35.4 112.878C35.5137 112.74 35.6659 112.647 35.8324 112.615C35.999 112.583 36.1704 112.614 36.3196 112.702C36.8597 113.196 37.4678 113.591 38.1208 113.872C38.2671 113.929 38.3907 114.041 38.4699 114.189C38.5491 114.337 38.5788 114.511 38.554 114.68V114.68Z" fill="#E0E0E0"/>
<path d="M33.12 105.065C33.1287 105.243 33.1028 105.421 33.044 105.587L26.5764 101.453C26.6366 101.284 26.6651 101.103 26.66 100.922C26.6039 100.276 26.5786 99.6264 26.584 98.9771L28.6892 100.324C28.7757 100.378 28.8717 100.409 28.9704 100.417L32.512 100.636C32.5891 100.634 32.6659 100.648 32.7377 100.68C32.8096 100.711 32.875 100.758 32.9303 100.817C32.9856 100.877 33.0295 100.948 33.0594 101.027C33.0894 101.106 33.1048 101.19 33.1048 101.276C33.0064 102.537 33.0115 103.805 33.12 105.065V105.065Z" fill="#E0E0E0"/>
<path d="M30.5588 117.333L28.864 116.246L28.5448 116.036L25.8164 114.293C25.558 114.125 25.3148 113.965 25.0564 113.821L24.1216 113.207C24.0961 113.191 24.073 113.172 24.0532 113.148C24.0303 113.121 24.0122 113.09 24 113.055L22.1228 108.458C22.0873 108.335 22.0873 108.202 22.1228 108.079C22.1197 108.026 22.1197 107.972 22.1228 107.919L28.5828 112.053C28.5261 112.233 28.5261 112.429 28.5828 112.609L30.4524 117.198C30.4781 117.251 30.5145 117.297 30.5588 117.333V117.333Z" fill="#E0E0E0"/>
<path d="M298.178 92.081C299.216 93.3993 300.567 94.3703 302.076 94.8849H302.244H302.358L302.624 94.9354H302.935H303.125C303.155 94.944 303.186 94.944 303.216 94.9354C303.823 94.9381 304.416 94.7399 304.919 94.3663C305.423 93.9927 305.815 93.4608 306.044 92.8388C306.263 92.2856 306.401 91.6973 306.454 91.0959C306.226 90.978 305.983 90.8349 305.747 90.6833C303.992 89.4185 302.531 87.7121 301.483 85.7031C300.436 83.6941 299.832 81.4394 299.72 79.1226C299.72 78.8027 299.72 78.508 299.72 78.2217C299.056 77.8713 298.328 77.6983 297.592 77.7165H297.463H297.357H297.243C296.721 77.8036 296.229 78.0396 295.814 78.4013C295.4 78.7629 295.078 79.2379 294.879 79.7794C293.64 83.0464 295.1 88.4941 298.178 92.081Z" fill="#90CAF9"/>
<path d="M286.884 82.3812L288.305 87.6689C288.362 87.8158 288.45 87.9457 288.561 88.0481C288.672 88.1505 288.803 88.2225 288.944 88.2583L291.763 89.0077C292.062 89.093 292.318 89.3046 292.478 89.5971C292.931 90.6011 293.439 91.574 293.998 92.5104C294.149 92.757 294.209 93.0584 294.165 93.3524L293.253 96.7878C293.229 96.9402 293.24 97.0967 293.283 97.2435C293.327 97.3903 293.403 97.523 293.504 97.6298L296.802 101.478C296.962 101.671 297.152 101.73 297.273 101.646C297.304 101.628 297.33 101.602 297.349 101.57L298.869 98.9686C298.976 98.7833 299.264 98.8002 299.515 98.9686C299.766 99.137 300.116 99.4148 300.42 99.6085C300.724 99.8022 301.058 99.9958 301.37 100.164C301.652 100.31 301.882 100.556 302.023 100.863L303.65 105.696C303.714 105.834 303.808 105.952 303.923 106.041C304.038 106.129 304.172 106.184 304.311 106.201L307.305 106.53C307.402 106.544 307.501 106.523 307.586 106.471V106.471C307.635 106.44 307.674 106.391 307.696 106.334C307.718 106.276 307.722 106.212 307.708 106.151L306.758 101.394C306.74 101.269 306.761 101.142 306.818 101.033C306.875 100.924 306.964 100.841 307.07 100.796C307.545 100.593 307.989 100.309 308.384 99.9537C308.492 99.8883 308.617 99.8653 308.739 99.8882C308.86 99.9111 308.971 99.9787 309.053 100.08L312.093 103.179C312.181 103.281 312.3 103.344 312.428 103.355C312.463 103.364 312.499 103.364 312.534 103.355V103.355C312.573 103.331 312.603 103.293 312.618 103.246L313.978 99.8779C314.012 99.7404 314.013 99.5956 313.983 99.4572C313.952 99.3188 313.89 99.1912 313.803 99.0865L310.938 95.2301C310.758 94.9947 310.658 94.6966 310.657 94.3881C310.733 93.4751 310.733 92.5562 310.657 91.6432C310.657 91.5809 310.668 91.5193 310.69 91.462C310.712 91.4047 310.744 91.3528 310.785 91.3096C310.825 91.2664 310.873 91.2326 310.925 91.2104C310.978 91.1881 311.034 91.1778 311.09 91.1801L313.666 91.0201C313.721 91.0236 313.775 91.0128 313.825 90.9884C313.875 90.964 313.918 90.9268 313.953 90.8798C313.987 90.8329 314.01 90.7776 314.021 90.7185C314.032 90.6594 314.031 90.5983 314.016 90.5402L312.595 85.2524C312.538 85.1055 312.45 84.9756 312.339 84.8732C312.228 84.7709 312.097 84.6988 311.956 84.663L309.144 83.9136C308.846 83.8275 308.59 83.6161 308.43 83.3242C307.976 82.3203 307.469 81.3474 306.91 80.4109C306.762 80.163 306.702 79.8628 306.743 79.5689L307.662 76.1251C307.678 75.9787 307.663 75.8303 307.618 75.6914C307.573 75.5526 307.5 75.4272 307.404 75.3252L304.113 71.4689C303.916 71.2415 303.672 71.2078 303.558 71.3931L302.038 73.9864C301.932 74.1717 301.651 74.1548 301.4 73.9864C300.809 73.5336 300.186 73.1338 299.538 72.7908C299.256 72.6454 299.025 72.3994 298.884 72.0919L297.258 67.2589C297.196 67.121 297.103 67.0026 296.989 66.9144C296.875 66.8262 296.743 66.7709 296.604 66.7537L293.61 66.4253C293.511 66.4136 293.412 66.431 293.321 66.4758C293.269 66.5087 293.229 66.5594 293.206 66.6202C293.182 66.681 293.177 66.7485 293.192 66.8126L294.172 71.5699C294.191 71.693 294.171 71.8194 294.115 71.9281C294.06 72.0369 293.973 72.1214 293.868 72.1677C293.392 72.3683 292.948 72.6526 292.554 73.0097C292.445 73.0751 292.321 73.0982 292.199 73.0753C292.078 73.0523 291.967 72.9847 291.885 72.8834L288.845 69.7849C288.685 69.6249 288.518 69.5659 288.404 69.6333C288.371 69.6586 288.344 69.6936 288.328 69.7343L286.96 73.1023C286.926 73.2399 286.925 73.3846 286.955 73.5231C286.986 73.6615 287.048 73.7891 287.135 73.8938L290 77.6912C290.174 77.9306 290.272 78.2262 290.281 78.5332C290.238 79.0032 290.217 79.4754 290.22 79.9478C290.22 80.3772 290.22 80.7898 290.281 81.2782C290.281 81.3404 290.27 81.402 290.248 81.4594C290.226 81.5167 290.194 81.5685 290.153 81.6117C290.113 81.6549 290.065 81.6887 290.013 81.711C289.96 81.7332 289.904 81.7435 289.848 81.7413L287.279 81.9012C287.213 81.9041 287.149 81.9213 287.089 81.9518V81.9518C287.013 81.9824 286.95 82.0433 286.912 82.1227C286.874 82.202 286.864 82.2941 286.884 82.3812V82.3812ZM298.17 92.081C295.13 88.4941 293.61 83.0464 294.917 79.931C295.111 79.3877 295.431 78.9109 295.845 78.5486C296.259 78.1864 296.751 77.9516 297.273 77.8681H297.387H297.494H297.6C298.332 77.8516 299.057 78.0216 299.72 78.3648C299.971 78.4911 300.23 78.6343 300.48 78.7943C301.325 79.351 302.093 80.0401 302.76 80.8403C304.976 83.3945 306.294 86.7424 306.477 90.2791C306.485 90.6027 306.47 90.9265 306.431 91.2474C306.378 91.8488 306.24 92.4371 306.021 92.9904C305.793 93.6139 305.402 94.1476 304.898 94.5228C304.394 94.8979 303.801 95.0974 303.194 95.0954H302.92H302.608L302.342 95.0449H302.228L302.061 94.9943C300.545 94.4426 299.198 93.4338 298.17 92.081V92.081Z" fill="#F5F5F5"/>
<path d="M298.938 72.0752C299.076 72.3728 299.301 72.6101 299.576 72.7488C300.224 73.0918 300.847 73.4916 301.438 73.9445C301.689 74.1297 301.97 74.1465 302.076 73.9445L303.596 71.3511C303.614 71.3152 303.64 71.2859 303.672 71.2669V71.2669L306.553 69.4229C306.234 69.2208 305.914 69.0272 305.603 68.8672C305.562 68.8499 305.524 68.8273 305.489 68.7998C305.375 68.7214 305.271 68.6281 305.177 68.522L305.063 68.3873C305.04 68.3556 305.02 68.3218 305.002 68.2862L304.957 68.1936L298.938 72.0752Z" fill="#EBEBEB"/>
<path d="M306.788 79.6447C306.778 79.8976 306.839 80.1479 306.963 80.3604C307.522 81.2969 308.03 82.2698 308.483 83.2737C308.52 83.3577 308.571 83.4323 308.635 83.4926L314.715 79.611C314.681 79.5808 314.653 79.5436 314.632 79.5016C314.602 79.4693 314.576 79.4325 314.556 79.3921C314.105 78.3836 313.597 77.4078 313.036 76.4704C313.008 76.4255 312.985 76.3775 312.967 76.3272C312.948 76.2939 312.935 76.2567 312.929 76.2178C312.929 76.2178 312.929 76.2178 312.929 76.1588C312.929 76.0999 312.929 76.1588 312.929 76.1588C312.926 76.1112 312.926 76.0633 312.929 76.0157C312.911 75.9442 312.911 75.8683 312.929 75.7968L306.788 79.6447Z" fill="#EBEBEB"/>
<path d="M306.591 69.4229L309.737 67.4021C309.782 67.3889 309.829 67.3889 309.874 67.4021C309.942 67.4074 310.008 67.4281 310.068 67.4628C310.128 67.4976 310.181 67.5457 310.224 67.6042V67.6042L312.192 69.886L313.514 71.4269C313.624 71.5588 313.705 71.7174 313.75 71.89L309.122 74.8285L307.685 75.7379C307.64 75.5795 307.562 75.4352 307.457 75.3169L307.419 75.2664L304.166 71.4606C304.114 71.3851 304.043 71.3282 303.962 71.2968C303.881 71.2654 303.794 71.2608 303.71 71.2837L306.591 69.4229Z" fill="#F5F5F5"/>
<path d="M293.382 66.4253C293.467 66.4025 293.555 66.4025 293.64 66.4253L296.642 66.7537C296.828 66.7758 297.001 66.8645 297.136 67.0063L303.216 63.1331C303.081 62.9855 302.904 62.8934 302.715 62.8721L299.713 62.5437C299.611 62.5256 299.506 62.5464 299.416 62.6027L298.611 63.1247L298.216 63.3773L295.647 65.0613L295.008 65.4739L294.56 65.676L293.382 66.4253Z" fill="#F5F5F5"/>
<path d="M308.635 83.5011C308.79 83.6776 308.984 83.8054 309.198 83.8716L312.017 84.621C312.219 84.6807 312.399 84.807 312.534 84.983L318.614 81.1183C318.475 80.9298 318.286 80.7943 318.074 80.7309L315.262 79.9816C315.05 79.9211 314.858 79.7956 314.708 79.6195V79.6195L308.635 83.5011Z" fill="#E6E6E6"/>
<path d="M310.771 94.725C310.821 94.8935 310.898 95.0505 310.999 95.1881L313.864 99.0445C313.95 99.1573 314.012 99.2895 314.046 99.4318L320.126 95.5502C320.094 95.4046 320.031 95.2692 319.944 95.1544L317.071 91.2981C316.975 91.1657 316.903 91.0142 316.858 90.8518L310.771 94.725Z" fill="#E6E6E6"/>
<path d="M318.546 87.9469L318.462 88.0058L318.568 87.9384L318.781 87.8037L318.546 87.9469Z" fill="#E0E0E0"/>
<path d="M298.178 92.081C299.216 93.3993 300.567 94.3703 302.076 94.8849H302.244H302.358L302.624 94.9354H302.935H303.125C303.155 94.944 303.186 94.944 303.216 94.9354C303.823 94.9381 304.416 94.7399 304.919 94.3663C305.423 93.9927 305.815 93.4608 306.044 92.8388C306.263 92.2856 306.401 91.6973 306.454 91.0959C306.226 90.978 305.983 90.8349 305.747 90.6833C303.992 89.4185 302.531 87.7121 301.483 85.7031C300.436 83.6941 299.832 81.4394 299.72 79.1226C299.72 78.8027 299.72 78.508 299.72 78.2217C299.056 77.8713 298.328 77.6983 297.592 77.7165H297.463H297.357H297.243C296.721 77.8036 296.229 78.0396 295.814 78.4013C295.4 78.7629 295.078 79.2379 294.879 79.7794C293.64 83.0464 295.1 88.4941 298.178 92.081Z" fill="#E0E0E0"/>
<path d="M306.788 79.6447L312.868 75.7715C312.861 75.7327 312.861 75.6924 312.868 75.6536L313.788 72.2098C313.818 72.1 313.818 71.9829 313.788 71.873L309.16 74.8116L307.723 75.721C307.755 75.8448 307.755 75.9761 307.723 76.0999L306.811 79.5352C306.795 79.569 306.788 79.6067 306.788 79.6447V79.6447Z" fill="#E0E0E0"/>
<path d="M297.136 66.9643C297.206 67.0341 297.261 67.1204 297.296 67.2169L298.922 72.05L305.002 68.1683L303.376 63.3352C303.344 63.2412 303.292 63.1573 303.224 63.0911L297.136 66.9643Z" fill="#E0E0E0"/>
<path d="M288.396 69.5744C288.474 69.5589 288.553 69.5654 288.628 69.5934C288.702 69.6214 288.769 69.6699 288.822 69.7343L291.862 72.8413C291.944 72.944 292.055 73.0125 292.176 73.0355C292.298 73.0585 292.423 73.0345 292.531 72.9676C292.925 72.6105 293.369 72.3262 293.846 72.1256C293.951 72.0806 294.039 71.9963 294.095 71.8872C294.15 71.7781 294.169 71.6511 294.15 71.5278L293.207 66.7705C293.193 66.7064 293.197 66.6389 293.221 66.5781C293.244 66.5173 293.285 66.4666 293.336 66.4337V66.4337L294.56 65.6759C294.522 65.6673 294.484 65.6673 294.446 65.6759C294.423 65.6715 294.4 65.6715 294.378 65.6759L288.396 69.5744Z" fill="#E0E0E0"/>
<path d="M287.049 81.9518C287.109 81.9202 287.174 81.903 287.239 81.9013L289.816 81.7413C289.872 81.7436 289.927 81.7333 289.979 81.711C290.031 81.6886 290.079 81.6547 290.119 81.6114C290.159 81.568 290.19 81.5161 290.211 81.4588C290.232 81.4015 290.243 81.3401 290.241 81.2782C290.241 80.8236 290.188 80.3773 290.188 79.9479L287.049 81.9518Z" fill="#E0E0E0"/>
<path d="M314.609 79.51C314.63 79.5521 314.658 79.5892 314.692 79.6195V79.6195L314.609 79.51Z" fill="#E0E0E0"/>
<path d="M318.606 81.1183C318.652 81.1799 318.686 81.2517 318.705 81.3288L318.88 81.9771L319.807 85.4293L320.126 86.6166C320.142 86.68 320.142 86.7467 320.126 86.8102C320.12 86.8465 320.107 86.8809 320.088 86.9113C320.07 86.9431 320.047 86.9715 320.02 86.9955H319.967L319.496 87.307L319.359 87.3828L318.986 87.627L318.781 87.7617L318.546 87.9048L318.462 87.9638L318.211 88.1153L316.843 88.9573L313.955 90.8097C314.015 90.7683 314.06 90.7059 314.083 90.6325C314.107 90.5592 314.107 90.4792 314.084 90.4056L312.8 85.884L312.625 85.2357C312.602 85.1518 312.563 85.0742 312.511 85.0083L318.606 81.1183Z" fill="#E0E0E0"/>
<path d="M297.266 101.596L300.42 99.5665C300.131 99.3728 299.819 99.1623 299.523 98.935C299.226 98.7076 298.991 98.7329 298.884 98.935L297.364 101.537C297.337 101.566 297.303 101.586 297.266 101.596V101.596Z" fill="#E0E0E0"/>
<path d="M306.788 101.343L307.731 106.109C307.744 106.17 307.739 106.235 307.716 106.293C307.692 106.351 307.652 106.399 307.602 106.429C307.792 106.311 310.763 104.416 312.473 103.313C312.346 103.301 312.227 103.239 312.139 103.137L309.099 100.038C309.018 99.934 308.907 99.8644 308.785 99.8414C308.663 99.8183 308.537 99.8432 308.43 99.9117C308.034 100.267 307.591 100.551 307.115 100.754C307.006 100.792 306.913 100.873 306.853 100.981C306.793 101.089 306.77 101.218 306.788 101.343V101.343Z" fill="#E0E0E0"/>
<path d="M310.718 94.3461C310.711 94.4752 310.729 94.6043 310.771 94.725L316.851 90.8518C316.807 90.7285 316.786 90.5968 316.79 90.4645C316.831 89.9944 316.848 89.5222 316.843 89.0499L313.955 90.9023C313.892 90.9396 313.822 90.9597 313.75 90.9613L311.174 91.1297C311.117 91.1274 311.061 91.1377 311.009 91.16C310.956 91.1822 310.909 91.216 310.868 91.2592C310.828 91.3024 310.796 91.3543 310.774 91.4116C310.752 91.4689 310.74 91.5305 310.74 91.5928C310.805 92.5095 310.798 93.4308 310.718 94.3461V94.3461Z" fill="#E0E0E0"/>
<path d="M312.602 103.271L313.834 102.488L314.069 102.337L316.06 101.065L316.592 100.72L318.637 99.4065C318.652 99.4117 318.668 99.4117 318.682 99.4065L318.728 99.3392L320.088 95.9712C320.113 95.8805 320.113 95.784 320.088 95.6933V95.5754L314.008 99.4571C314.051 99.5877 314.051 99.7306 314.008 99.8612L312.648 103.229C312.635 103.246 312.62 103.26 312.602 103.271V103.271Z" fill="#E0E0E0"/>
<path d="M309.996 126.637L311.949 133.903C312.024 134.11 312.142 134.295 312.294 134.441C312.446 134.587 312.627 134.692 312.823 134.745L316.691 135.781C317.108 135.907 317.463 136.209 317.679 136.623C318.296 138.002 318.989 139.338 319.754 140.622C319.956 140.956 320.04 141.361 319.99 141.759L318.728 146.483C318.707 146.683 318.727 146.885 318.788 147.075C318.848 147.265 318.947 147.437 319.078 147.577L323.6 152.873C323.82 153.134 324.086 153.219 324.261 153.101C324.301 153.073 324.335 153.036 324.36 152.991L326.472 149.421C326.617 149.169 327.012 149.186 327.354 149.421C327.696 149.657 328.182 150.028 328.593 150.263C329.003 150.499 329.467 150.802 329.9 151.021C330.287 151.229 330.604 151.568 330.804 151.989L333.039 158.624C333.123 158.817 333.251 158.982 333.409 159.104C333.567 159.226 333.751 159.302 333.943 159.323L338.062 159.778C338.195 159.795 338.33 159.769 338.45 159.702C338.45 159.702 338.45 159.702 338.45 159.702C338.52 159.66 338.575 159.593 338.607 159.512C338.638 159.431 338.645 159.341 338.625 159.256L337.325 152.722C337.292 152.548 337.317 152.367 337.395 152.212C337.473 152.057 337.6 151.939 337.751 151.88C338.402 151.599 339.01 151.207 339.552 150.718C339.7 150.629 339.871 150.597 340.038 150.628C340.204 150.658 340.357 150.749 340.472 150.886L344.682 155.155C344.804 155.292 344.965 155.378 345.138 155.399V155.399C345.188 155.399 345.238 155.384 345.282 155.357C345.335 155.327 345.376 155.276 345.396 155.214L347.274 150.625C347.315 150.436 347.315 150.238 347.273 150.049C347.23 149.86 347.147 149.685 347.03 149.539L343.086 144.243C342.843 143.915 342.709 143.505 342.706 143.081C342.809 141.826 342.809 140.564 342.706 139.309C342.706 139.223 342.721 139.139 342.751 139.06C342.781 138.981 342.825 138.91 342.88 138.85C342.936 138.791 343.001 138.744 343.073 138.713C343.145 138.682 343.222 138.667 343.299 138.669L346.833 138.45C346.908 138.458 346.984 138.445 347.054 138.412C347.123 138.38 347.185 138.329 347.233 138.264C347.281 138.2 347.314 138.123 347.329 138.041C347.344 137.959 347.341 137.874 347.319 137.793L345.389 130.51C345.309 130.31 345.189 130.134 345.037 129.995C344.886 129.856 344.707 129.759 344.515 129.71L340.646 128.674C340.23 128.548 339.876 128.245 339.658 127.832C339.041 126.454 338.348 125.118 337.584 123.833C337.378 123.501 337.294 123.094 337.348 122.696L338.61 117.973C338.631 117.773 338.611 117.57 338.551 117.38C338.49 117.19 338.391 117.018 338.26 116.878L333.738 111.582C333.464 111.27 333.122 111.211 332.978 111.464L330.865 115.034C330.721 115.287 330.333 115.27 329.984 115.034C329.171 114.416 328.318 113.867 327.43 113.392C327.043 113.192 326.727 112.854 326.533 112.432L324.299 105.797C324.215 105.606 324.089 105.442 323.932 105.32C323.775 105.197 323.593 105.121 323.402 105.098L319.275 104.644C319.142 104.631 319.009 104.657 318.888 104.719C318.816 104.764 318.76 104.834 318.727 104.917C318.694 105.001 318.686 105.094 318.705 105.183L320.005 111.716C320.037 111.889 320.012 112.068 319.936 112.223C319.859 112.377 319.735 112.496 319.587 112.558C318.933 112.834 318.325 113.227 317.786 113.72C317.636 113.811 317.462 113.842 317.294 113.81C317.126 113.778 316.973 113.684 316.858 113.544L312.648 109.283C312.578 109.186 312.483 109.115 312.376 109.079C312.269 109.043 312.154 109.044 312.048 109.081C312 109.118 311.961 109.167 311.934 109.224L310.064 113.821C310.019 114.01 310.017 114.208 310.058 114.397C310.099 114.587 310.182 114.762 310.3 114.908L314.244 120.195C314.491 120.521 314.628 120.932 314.632 121.357C314.578 121.989 314.556 122.637 314.556 123.302C314.556 123.968 314.594 124.506 314.639 125.13C314.64 125.215 314.626 125.3 314.596 125.379C314.566 125.458 314.522 125.529 314.467 125.588C314.411 125.647 314.345 125.693 314.273 125.723C314.2 125.753 314.123 125.766 314.046 125.761L310.512 125.988C310.422 125.987 310.334 126.01 310.254 126.056V126.056C310.154 126.101 310.073 126.185 310.025 126.292C309.978 126.399 309.967 126.522 309.996 126.637V126.637ZM325.5 139.966C321.282 135.031 319.275 127.555 321.023 123.269C321.292 122.523 321.732 121.869 322.3 121.371C322.868 120.873 323.544 120.549 324.261 120.431H324.42H324.572H324.755C325.762 120.406 326.761 120.64 327.673 121.113C328.03 121.288 328.378 121.485 328.714 121.703C329.868 122.469 330.917 123.413 331.83 124.506C335 128.211 336.922 133.339 336.945 137.482C336.95 137.926 336.927 138.371 336.877 138.812C336.803 139.637 336.614 140.444 336.314 141.203C336.007 142.064 335.471 142.8 334.778 143.316C334.084 143.831 333.266 144.102 332.431 144.091H332.043L331.618 144.049L331.253 143.982L331.086 143.94L330.858 143.872C328.781 143.142 326.927 141.79 325.5 139.966V139.966Z" fill="#F5F5F5"/>
<path d="M326.548 112.474C326.745 112.88 327.054 113.205 327.43 113.4C328.32 113.871 329.173 114.42 329.984 115.042C330.326 115.303 330.744 115.32 330.865 115.042L332.97 111.472C332.998 111.427 333.034 111.39 333.077 111.363H333.115L335.205 110.016C334.764 109.729 334.323 109.477 333.898 109.258L333.738 109.157C333.583 109.05 333.44 108.923 333.312 108.778C333.258 108.72 333.207 108.658 333.16 108.593C333.127 108.553 333.099 108.507 333.077 108.458L333.016 108.332L326.548 112.474Z" fill="#EBEBEB"/>
<path d="M337.333 122.873C337.326 123.224 337.414 123.57 337.584 123.867C338.346 125.152 339.041 126.484 339.666 127.858C339.718 127.971 339.788 128.074 339.871 128.161L346.339 124.027C346.292 123.982 346.251 123.931 346.217 123.875C346.179 123.829 346.146 123.778 346.118 123.723C345.502 122.341 344.809 121.003 344.044 119.715C344 119.652 343.967 119.581 343.945 119.505C343.916 119.463 343.898 119.414 343.892 119.362C343.887 119.334 343.887 119.306 343.892 119.278C343.892 119.278 343.892 119.278 343.892 119.278C343.892 119.278 343.892 119.143 343.854 119.084C343.835 118.984 343.835 118.881 343.854 118.781L337.333 122.873Z" fill="#EBEBEB"/>
<path d="M335.205 110.024L339.529 107.245C339.584 107.208 339.647 107.188 339.712 107.187C339.805 107.196 339.895 107.226 339.977 107.275C340.06 107.325 340.132 107.392 340.19 107.473V107.473L342.896 110.639L344.712 112.761C344.86 112.939 344.969 113.152 345.032 113.384L340.532 116.238L338.564 117.493C338.5 117.276 338.393 117.078 338.252 116.912L338.192 116.844L333.73 111.615C333.661 111.51 333.564 111.43 333.453 111.387C333.342 111.343 333.221 111.338 333.107 111.371L335.205 110.024Z" fill="#F5F5F5"/>
<path d="M318.918 104.711C319.031 104.66 319.154 104.64 319.275 104.652L323.394 105.115C323.651 105.143 323.891 105.265 324.078 105.46L330.546 101.326C330.359 101.127 330.119 101 329.862 100.964L325.735 100.51C325.596 100.489 325.455 100.519 325.332 100.594L324.215 101.309L323.676 101.663L322.004 102.741L321.137 103.297C320.917 103.431 320.704 103.574 320.499 103.692L318.918 104.711Z" fill="#F5F5F5"/>
<path d="M339.871 128.169C340.08 128.41 340.342 128.587 340.631 128.683L344.5 129.71C344.779 129.794 345.028 129.97 345.214 130.215L351.697 126.089C351.501 125.829 351.234 125.646 350.937 125.567L347.068 124.532C346.779 124.445 346.517 124.273 346.308 124.035V124.035L339.871 128.169Z" fill="#E6E6E6"/>
<path d="M342.805 143.595C342.876 143.825 342.982 144.042 343.116 144.235L347.061 149.531C347.177 149.686 347.262 149.867 347.312 150.061L353.772 145.927C353.727 145.726 353.641 145.539 353.521 145.38L349.576 140.084C349.441 139.898 349.338 139.687 349.272 139.46L342.805 143.595Z" fill="#E6E6E6"/>
<path d="M351.628 135.469L351.514 135.553L351.666 135.461L351.955 135.276L351.628 135.469Z" fill="#E0E0E0"/>
<path d="M325.5 139.966C326.933 141.774 328.79 143.109 330.865 143.822L331.086 143.881L331.245 143.923L331.618 143.99L332.043 144.032H332.309C332.349 144.041 332.391 144.041 332.431 144.032C333.266 144.043 334.084 143.773 334.778 143.257C335.471 142.741 336.007 142.005 336.314 141.144C336.615 140.385 336.807 139.578 336.884 138.753C336.565 138.585 336.238 138.399 335.904 138.189C331.344 135.259 327.628 128.161 327.628 122.309C327.628 121.863 327.628 121.467 327.673 121.063C326.76 120.583 325.758 120.347 324.747 120.372H324.572H324.42H324.261C323.544 120.49 322.868 120.814 322.3 121.312C321.732 121.81 321.292 122.464 321.023 123.21C319.275 127.555 321.282 135.031 325.5 139.966Z" fill="#E0E0E0"/>
<path d="M337.333 122.873L343.793 118.747C343.781 118.692 343.781 118.634 343.793 118.579L345.054 113.855C345.099 113.702 345.099 113.537 345.054 113.384L340.555 116.238L338.587 117.493C338.635 117.66 338.635 117.839 338.587 118.006L337.333 122.73C337.324 122.777 337.324 122.826 337.333 122.873V122.873Z" fill="#E0E0E0"/>
<path d="M324.078 105.461C324.174 105.556 324.249 105.674 324.299 105.806L326.533 112.449L333.001 108.315L330.766 101.672C330.721 101.545 330.648 101.432 330.554 101.343L324.078 105.461Z" fill="#E0E0E0"/>
<path d="M312.04 109.047C312.145 109.02 312.255 109.027 312.357 109.065C312.459 109.104 312.549 109.174 312.618 109.266L316.828 113.527C316.943 113.666 317.097 113.758 317.265 113.789C317.433 113.819 317.606 113.786 317.755 113.695C318.296 113.21 318.901 112.821 319.549 112.542C319.7 112.482 319.826 112.364 319.904 112.209C319.983 112.054 320.008 111.873 319.974 111.7L318.682 105.166C318.66 105.078 318.665 104.985 318.697 104.9C318.729 104.816 318.785 104.747 318.857 104.703V104.703L320.438 103.684C320.388 103.671 320.336 103.671 320.286 103.684L320.195 103.751L312.04 109.047Z" fill="#E0E0E0"/>
<path d="M310.224 126.047C310.305 126.005 310.393 125.982 310.482 125.98L314.016 125.761C314.171 125.761 314.319 125.694 314.43 125.575C314.541 125.455 314.605 125.292 314.609 125.121C314.563 124.498 314.525 123.883 314.525 123.286L310.224 126.047Z" fill="#E0E0E0"/>
<path d="M346.24 123.883C346.274 123.94 346.314 123.991 346.36 124.035V124.035L346.24 123.883Z" fill="#E0E0E0"/>
<path d="M351.712 126.089C351.775 126.173 351.821 126.271 351.849 126.376L352.092 127.277L353.361 132.017L353.794 133.642C353.821 133.73 353.821 133.824 353.794 133.912C353.785 133.96 353.767 134.006 353.741 134.046C353.719 134.095 353.685 134.136 353.642 134.164L353.574 134.215L352.92 134.636L352.746 134.754L352.221 135.09L351.948 135.276L351.621 135.469L351.507 135.554L351.165 135.764L349.28 136.968L347.175 138.324C347.256 138.268 347.318 138.184 347.352 138.085C347.385 137.986 347.387 137.877 347.357 137.776L345.647 131.394L345.404 130.502C345.373 130.388 345.318 130.284 345.244 130.198L351.712 126.089Z" fill="#E0E0E0"/>
<path d="M324.253 153.033L328.593 150.246C328.182 149.977 327.764 149.682 327.354 149.404C326.944 149.127 326.594 149.127 326.472 149.404L324.36 152.975C324.328 153.002 324.292 153.022 324.253 153.033V153.033Z" fill="#E0E0E0"/>
<path d="M337.333 152.697L338.632 159.239C338.65 159.323 338.643 159.411 338.612 159.491C338.58 159.57 338.526 159.635 338.458 159.677C338.716 159.517 342.797 156.907 345.146 155.391C344.971 155.374 344.807 155.291 344.682 155.155L340.479 150.895C340.366 150.756 340.213 150.664 340.047 150.632C339.88 150.6 339.709 150.63 339.56 150.718C339.016 151.209 338.405 151.601 337.751 151.88C337.606 151.94 337.485 152.055 337.408 152.204C337.332 152.354 337.305 152.528 337.333 152.697V152.697Z" fill="#E0E0E0"/>
<path d="M342.736 143.073C342.724 143.25 342.747 143.428 342.805 143.595L349.272 139.46C349.213 139.292 349.187 139.111 349.196 138.93C349.25 138.283 349.273 137.634 349.265 136.985L347.16 138.341C347.075 138.398 346.978 138.43 346.878 138.433L343.337 138.652C343.259 138.649 343.182 138.663 343.11 138.694C343.038 138.724 342.972 138.771 342.916 138.831C342.861 138.891 342.817 138.963 342.787 139.042C342.758 139.121 342.743 139.206 342.744 139.292C342.845 140.55 342.842 141.815 342.736 143.073Z" fill="#E0E0E0"/>
<path d="M345.32 155.341C345.457 155.256 346.126 154.835 347.023 154.254L347.342 154.052L350.07 152.301L350.83 151.829L351.773 151.223C351.8 151.211 351.823 151.19 351.841 151.164C351.861 151.138 351.879 151.11 351.894 151.08L353.764 146.508C353.8 146.382 353.8 146.247 353.764 146.121V145.969L347.304 150.103C347.361 150.283 347.361 150.479 347.304 150.659L345.427 155.24C345.402 155.285 345.365 155.32 345.32 155.341V155.341Z" fill="#E0E0E0"/>
<path d="M219.122 75.4685V271.292C219.177 272.387 219.463 273.453 219.956 274.403C220.45 275.354 221.138 276.163 221.965 276.765L300.344 326.89C301.909 327.9 303.186 327.075 303.186 325.063V129.247C303.131 128.152 302.846 127.087 302.352 126.136C301.858 125.186 301.171 124.377 300.344 123.774L221.965 73.6498C220.399 72.6394 219.122 73.4561 219.122 75.4685ZM223.219 98.8424C223.219 97.1584 224.313 96.4175 225.666 97.2847L296.924 142.854C297.635 143.37 298.228 144.064 298.653 144.88C299.078 145.696 299.324 146.611 299.371 147.552V300.939C299.371 302.674 298.269 303.364 296.924 302.505L225.666 256.928C224.313 256.086 223.219 254.966 223.219 253.248V98.8424Z" fill="#90CAF9"/>
<path opacity="0.5" d="M219.122 75.4685V271.292C219.177 272.387 219.463 273.453 219.956 274.403C220.45 275.354 221.138 276.163 221.965 276.765L300.344 326.89C301.909 327.9 303.186 327.075 303.186 325.063V129.247C303.131 128.152 302.846 127.087 302.352 126.136C301.858 125.186 301.171 124.377 300.344 123.774L221.965 73.6498C220.399 72.6394 219.122 73.4561 219.122 75.4685ZM223.219 98.8424C223.219 97.1584 224.313 96.4175 225.666 97.2847L296.924 142.854C297.635 143.37 298.228 144.064 298.653 144.88C299.078 145.696 299.324 146.611 299.371 147.552V300.939C299.371 302.674 298.269 303.364 296.924 302.505L225.666 256.928C224.313 256.086 223.219 254.966 223.219 253.248V98.8424Z" fill="black"/>
<path d="M300.693 327.083C301.54 327.479 302.454 327.667 303.372 327.633C304.291 327.6 305.192 327.346 306.013 326.89L309.274 324.802C310.106 324.204 310.799 323.397 311.296 322.446C311.793 321.494 312.079 320.426 312.131 319.329V123.521C312.116 122.706 311.947 121.903 311.637 121.164C311.538 120.905 311.426 120.652 311.303 120.406V120.406L302.335 126.14C302.524 126.514 302.689 126.902 302.829 127.302C303.042 127.927 303.158 128.588 303.171 129.255V325.071C303.186 326.923 302.099 327.765 300.693 327.083Z" fill="#90CAF9"/>
<path opacity="0.7" d="M300.693 327.083C301.54 327.479 302.454 327.667 303.372 327.633C304.291 327.6 305.192 327.346 306.013 326.89L309.274 324.802C310.106 324.204 310.799 323.397 311.296 322.446C311.793 321.494 312.079 320.426 312.131 319.329V123.521C312.116 122.706 311.947 121.903 311.637 121.164C311.538 120.905 311.426 120.652 311.303 120.406V120.406L302.335 126.14C302.524 126.514 302.689 126.902 302.829 127.302C303.042 127.927 303.158 128.588 303.171 129.255V325.071C303.186 326.923 302.099 327.765 300.693 327.083Z" fill="black"/>
<path d="M260.474 284.596C257.989 283.013 255.975 284.301 255.975 287.476C256.059 289.206 256.51 290.89 257.292 292.391C258.074 293.892 259.164 295.168 260.474 296.115C262.959 297.697 264.973 296.409 264.973 293.235C264.889 291.504 264.438 289.82 263.656 288.319C262.874 286.818 261.784 285.543 260.474 284.596Z" stroke="#E6E6E6" stroke-miterlimit="10"/>
<path d="M261.12 102.935C260.071 102.261 259.212 102.808 259.212 104.155C259.25 104.89 259.442 105.604 259.773 106.242C260.104 106.879 260.566 107.422 261.12 107.827C262.176 108.5 263.035 107.953 263.035 106.597C262.999 105.863 262.806 105.148 262.473 104.512C262.141 103.875 261.677 103.335 261.12 102.935V102.935Z" fill="black"/>
<path d="M268.53 115.809L253.778 106.37C252.897 105.814 252.182 106.21 252.182 107.262C252.221 107.857 252.386 108.433 252.663 108.943C252.94 109.454 253.323 109.885 253.778 110.201L268.53 119.631C269.412 120.195 270.126 119.8 270.126 118.739C270.086 118.146 269.921 117.572 269.644 117.063C269.366 116.554 268.985 116.124 268.53 115.809V115.809Z" fill="black"/>
<path d="M223.219 253.248C223.219 254.932 224.313 256.069 225.666 256.928L296.924 302.505C298.269 303.347 299.371 302.674 299.371 300.939V147.552C299.324 146.611 299.078 145.696 298.653 144.88C298.228 144.064 297.635 143.37 296.924 142.854L225.666 97.2847C224.313 96.4427 223.219 97.1163 223.219 98.8424V253.248Z" fill="#90CAF9"/>
<path opacity="0.5" d="M223.219 253.248C223.219 254.932 224.313 256.069 225.666 256.928L296.924 302.505C298.269 303.347 299.371 302.674 299.371 300.939V147.552C299.324 146.611 299.078 145.696 298.653 144.88C298.228 144.064 297.635 143.37 296.924 142.854L225.666 97.2847C224.313 96.4427 223.219 97.1163 223.219 98.8424V253.248Z" fill="white"/>
<path d="M227.984 110.445V109.005C227.984 108.694 228.098 108.509 228.235 108.593L228.303 108.643C228.39 108.735 228.457 108.846 228.501 108.97C228.544 109.094 228.562 109.227 228.554 109.359V110.799C228.554 111.11 228.44 111.296 228.303 111.203H228.235C228.144 111.106 228.074 110.988 228.03 110.856C227.987 110.725 227.971 110.584 227.984 110.445Z" fill="#455A64"/>
<path d="M229.116 111.144V108.618C229.116 108.306 229.223 108.121 229.36 108.214H229.428C229.515 108.307 229.582 108.42 229.625 108.545C229.668 108.67 229.687 108.804 229.679 108.938V111.422C229.679 111.733 229.565 111.91 229.428 111.826L229.36 111.784C229.207 111.613 229.12 111.384 229.116 111.144Z" fill="#455A64"/>
<path d="M230.241 111.885V108.349C230.241 108.037 230.355 107.86 230.492 107.944L230.56 107.986C230.647 108.08 230.714 108.193 230.757 108.318C230.8 108.443 230.819 108.577 230.811 108.711V112.247C230.811 112.559 230.697 112.735 230.56 112.651H230.492C230.401 112.553 230.331 112.433 230.287 112.3C230.244 112.167 230.228 112.025 230.241 111.885V111.885Z" fill="#455A64"/>
<path d="M231.374 112.601V106.505C231.374 106.193 231.48 106.008 231.617 106.1H231.685C231.771 106.194 231.838 106.307 231.882 106.432C231.925 106.557 231.943 106.691 231.936 106.825V112.921C231.936 113.232 231.822 113.417 231.685 113.325H231.617C231.531 113.231 231.465 113.118 231.423 112.992C231.381 112.867 231.364 112.734 231.374 112.601V112.601Z" fill="#455A64"/>
<path d="M234.429 114.975C234.402 114.903 234.389 114.826 234.391 114.748V113.855L233.129 113.013C233.097 112.994 233.069 112.968 233.047 112.936C233.024 112.904 233.009 112.867 233 112.828V112.508C232.994 112.455 232.994 112.401 233 112.348C233.01 112.308 233.023 112.269 233.038 112.23L234.383 109.881C234.383 109.881 234.429 109.814 234.452 109.805C234.474 109.797 234.497 109.805 234.535 109.805L234.71 109.923C234.765 109.953 234.808 110.004 234.832 110.066C234.845 110.144 234.845 110.224 234.832 110.302V113.434L235.113 113.611C235.162 113.643 235.202 113.689 235.227 113.746C235.24 113.827 235.24 113.909 235.227 113.99V114.2C235.243 114.261 235.243 114.325 235.227 114.386C235.227 114.386 235.166 114.386 235.113 114.386L234.832 114.209V115.101C234.848 115.162 234.848 115.226 234.832 115.287C234.832 115.287 234.771 115.287 234.71 115.287L234.497 115.152C234.458 115.103 234.434 115.041 234.429 114.975V114.975ZM234.474 113.148V110.917L233.555 112.601L234.474 113.148Z" fill="#455A64"/>
<path d="M235.926 115.396C235.665 114.662 235.538 113.878 235.554 113.089C235.497 112.451 235.628 111.811 235.926 111.262C236.179 110.942 236.529 110.925 236.975 111.211C237.349 111.446 237.659 111.79 237.872 112.205C237.883 112.246 237.883 112.29 237.872 112.331C237.874 112.359 237.874 112.387 237.872 112.415L237.758 112.735C237.758 112.735 237.758 112.786 237.712 112.777C237.689 112.757 237.671 112.731 237.659 112.702C237.498 112.412 237.276 112.169 237.013 111.994C236.709 111.801 236.466 111.809 236.298 112.036C236.085 112.453 235.994 112.933 236.04 113.409C236.024 113.983 236.109 114.555 236.291 115.093C236.418 115.483 236.658 115.815 236.975 116.036C237.072 116.102 237.177 116.153 237.286 116.188C237.369 116.211 237.455 116.211 237.537 116.188V114.765L237.013 114.428C236.961 114.395 236.921 114.345 236.899 114.285C236.885 114.207 236.885 114.127 236.899 114.049V113.847C236.899 113.746 236.899 113.687 236.899 113.662C236.899 113.636 236.96 113.662 237.013 113.662L237.849 114.2C237.909 114.237 237.955 114.297 237.978 114.369C238.005 114.458 238.017 114.552 238.016 114.647V116.718C238.022 116.774 238.022 116.831 238.016 116.886C238.01 116.917 237.994 116.944 237.97 116.962C237.803 117.027 237.623 117.045 237.447 117.012C237.272 116.98 237.107 116.899 236.967 116.777C236.494 116.454 236.129 115.969 235.926 115.396V115.396Z" fill="#455A64"/>
<path d="M293.602 146.508C293.523 146.174 293.347 145.878 293.101 145.666L289.301 143.241C288.974 143.031 288.723 143.443 288.723 144.184V147.35C288.727 147.787 288.799 148.22 288.936 148.63C288.991 148.794 289.059 148.952 289.141 149.101C289.216 149.242 289.317 149.362 289.438 149.455L293.238 151.88C293.564 152.082 293.823 151.669 293.823 150.928V147.788C293.816 147.35 293.741 146.918 293.602 146.508ZM289.088 148.402C289.03 148.224 289.002 148.036 289.004 147.847V144.706C289.004 144.159 289.21 143.822 289.445 143.982L293.245 146.407C293.311 146.45 293.366 146.511 293.405 146.584C293.43 146.632 293.45 146.683 293.466 146.735C293.523 146.916 293.552 147.107 293.549 147.299V150.432C293.549 150.979 293.344 151.316 293.108 151.156L289.308 148.731C289.196 148.649 289.117 148.522 289.088 148.377V148.402Z" fill="#455A64"/>
<path d="M291.474 145.818V149.531L289.438 148.192L289.369 148.133C289.374 148.091 289.374 148.049 289.369 148.007V145.186C289.369 144.79 289.529 144.538 289.704 144.647L291.474 145.818Z" fill="#455A64"/>
<path d="M294.005 147.906C294.15 147.99 294.264 148.588 294.264 149.228V149.809C294.264 150.457 294.15 150.92 294.005 150.844L293.747 150.71V147.746L294.005 147.906Z" fill="#455A64"/>
<path d="M284.604 145.169C284.604 145.86 284.277 146.213 283.844 145.952C283.606 145.749 283.413 145.487 283.282 145.188C283.15 144.888 283.082 144.559 283.084 144.226C283.084 143.536 283.411 143.19 283.844 143.443C284.083 143.646 284.276 143.907 284.408 144.207C284.54 144.506 284.607 144.836 284.604 145.169V145.169Z" fill="#455A64"/>
<path d="M283.867 141.397C283.723 141.283 283.557 141.209 283.382 141.181C283.207 141.153 283.029 141.171 282.862 141.236C282.695 141.3 282.544 141.408 282.423 141.551C282.302 141.693 282.213 141.866 282.164 142.054C282.135 142.165 282.127 142.281 282.14 142.395C282.153 142.51 282.187 142.62 282.24 142.719V142.719C282.377 142.988 282.582 143.056 282.666 142.837C282.697 142.701 282.757 142.576 282.842 142.473C282.927 142.37 283.034 142.292 283.153 142.246C283.273 142.2 283.4 142.188 283.525 142.21C283.649 142.232 283.767 142.289 283.867 142.374C284.476 142.855 284.904 143.569 285.068 144.378C285.151 144.698 285.356 144.9 285.501 144.799C285.561 144.721 285.601 144.626 285.614 144.525C285.628 144.423 285.615 144.32 285.577 144.226C285.332 143.086 284.725 142.082 283.867 141.397V141.397Z" fill="#455A64"/>
<path d="M283.867 139.393C283.656 139.223 283.414 139.107 283.158 139.054C282.902 139.001 282.638 139.012 282.386 139.088C282.135 139.163 281.901 139.3 281.704 139.488C281.506 139.676 281.349 139.912 281.245 140.176C281.209 140.291 281.196 140.412 281.206 140.533C281.217 140.654 281.251 140.77 281.306 140.875V140.875C281.435 141.144 281.632 141.212 281.724 141.018C281.808 140.802 281.935 140.61 282.096 140.455C282.257 140.301 282.447 140.189 282.652 140.128C282.857 140.066 283.073 140.057 283.282 140.1C283.491 140.144 283.688 140.239 283.859 140.378C284.903 141.194 285.66 142.384 286.002 143.746C286.094 144.049 286.291 144.243 286.42 144.142C286.542 144.058 286.565 143.788 286.481 143.519C286.06 141.853 285.138 140.398 283.867 139.393V139.393Z" fill="#455A64"/>
<path d="M219.144 74.938C219.349 73.254 220.535 72.6983 221.964 73.6161L300.342 123.774C301.185 124.356 301.879 125.167 302.356 126.132L311.324 120.398C310.842 119.437 310.146 118.629 309.303 118.048L230.939 67.9157C230.055 67.4174 229.077 67.1576 228.085 67.1576C227.094 67.1576 226.116 67.4174 225.232 67.9157L221.964 69.9955C221.203 70.549 220.558 71.2764 220.071 72.1288C219.585 72.9813 219.269 73.9391 219.144 74.938V74.938Z" fill="#90CAF9"/>
<path opacity="0.2" d="M219.144 74.938C219.349 73.254 220.535 72.6983 221.964 73.6161L300.342 123.774C301.185 124.356 301.879 125.167 302.356 126.132L311.324 120.398C310.842 119.437 310.146 118.629 309.303 118.048L230.939 67.9157C230.055 67.4174 229.077 67.1576 228.085 67.1576C227.094 67.1576 226.116 67.4174 225.232 67.9157L221.964 69.9955C221.203 70.549 220.558 71.2764 220.071 72.1288C219.585 72.9813 219.269 73.9391 219.144 74.938V74.938Z" fill="black"/>
<path d="M130.035 73.6498L51.6564 123.774C50.8294 124.377 50.1415 125.186 49.6478 126.136C49.1542 127.087 48.8686 128.152 48.814 129.247V325.063C48.814 327.075 50.0908 327.9 51.6564 326.89L130.035 276.765C130.862 276.163 131.55 275.354 132.044 274.403C132.537 273.453 132.823 272.387 132.878 271.292V75.4685C132.878 73.4561 131.601 72.6394 130.035 73.6498ZM128.781 253.248C128.781 254.932 127.687 256.069 126.334 256.928L55.0764 302.505C53.7312 303.347 52.6292 302.674 52.6292 300.939V147.552C52.6762 146.611 52.9222 145.696 53.3473 144.88C53.7724 144.064 54.3647 143.37 55.0764 142.854L126.334 97.2847C127.687 96.4427 128.781 97.1163 128.781 98.8424V253.248Z" fill="#90CAF9"/>
<path opacity="0.5" d="M130.035 73.6498L51.6564 123.774C50.8294 124.377 50.1415 125.186 49.6478 126.136C49.1542 127.087 48.8686 128.152 48.814 129.247V325.063C48.814 327.075 50.0908 327.9 51.6564 326.89L130.035 276.765C130.862 276.163 131.55 275.354 132.044 274.403C132.537 273.453 132.823 272.387 132.878 271.292V75.4685C132.878 73.4561 131.601 72.6394 130.035 73.6498ZM128.781 253.248C128.781 254.932 127.687 256.069 126.334 256.928L55.0764 302.505C53.7312 303.347 52.6292 302.674 52.6292 300.939V147.552C52.6762 146.611 52.9222 145.696 53.3473 144.88C53.7724 144.064 54.3647 143.37 55.0764 142.854L126.334 97.2847C127.687 96.4427 128.781 97.1163 128.781 98.8424V253.248Z" fill="black"/>
<path d="M51.3068 327.083C50.4601 327.479 49.546 327.667 48.6276 327.633C47.7091 327.6 46.8081 327.346 45.9868 326.89L42.7264 324.802C41.8936 324.204 41.2005 323.397 40.7038 322.446C40.207 321.494 39.9209 320.426 39.8688 319.329V123.521C39.8845 122.706 40.0527 121.903 40.3628 121.164C40.462 120.905 40.5736 120.652 40.6972 120.406L49.6652 126.14C49.476 126.514 49.3109 126.902 49.1712 127.302C48.9581 127.927 48.8424 128.588 48.8292 129.255V325.071C48.814 326.923 49.9008 327.765 51.3068 327.083Z" fill="#90CAF9"/>
<path opacity="0.7" d="M51.3068 327.083C50.4601 327.479 49.546 327.667 48.6276 327.633C47.7091 327.6 46.8081 327.346 45.9868 326.89L42.7264 324.802C41.8936 324.204 41.2005 323.397 40.7038 322.446C40.207 321.494 39.9209 320.426 39.8688 319.329V123.521C39.8845 122.706 40.0527 121.903 40.3628 121.164C40.462 120.905 40.5736 120.652 40.6972 120.406L49.6652 126.14C49.476 126.514 49.3109 126.902 49.1712 127.302C48.9581 127.927 48.8424 128.588 48.8292 129.255V325.071C48.814 326.923 49.9008 327.765 51.3068 327.083Z" fill="black"/>
<path d="M91.526 284.596C94.0112 283.013 96.0252 284.301 96.0252 287.476C95.9411 289.206 95.4898 290.89 94.7081 292.391C93.9263 293.892 92.8362 295.168 91.526 296.115C89.0408 297.698 87.0268 296.409 87.0268 293.235C87.1109 291.505 87.5622 289.82 88.3439 288.319C89.1257 286.818 90.2159 285.543 91.526 284.596V284.596Z" stroke="#E6E6E6" stroke-miterlimit="10"/>
<path d="M90.88 102.935C91.9288 102.261 92.7876 102.808 92.7876 104.155C92.7501 104.89 92.5581 105.604 92.2268 106.242C91.8956 106.879 91.4344 107.422 90.88 107.827C89.8236 108.5 88.9648 107.953 88.9648 106.597C89.0013 105.863 89.1938 105.148 89.5266 104.512C89.8594 103.875 90.3231 103.335 90.88 102.935V102.935Z" fill="black"/>
<path d="M83.47 115.809L98.2216 106.37C99.1032 105.814 99.8176 106.21 99.8176 107.262C99.7788 107.857 99.6141 108.433 99.3368 108.943C99.0595 109.454 98.6774 109.885 98.2216 110.201L83.47 119.631C82.5884 120.195 81.874 119.8 81.874 118.739C81.9138 118.146 82.0791 117.572 82.3563 117.063C82.6336 116.554 83.0151 116.124 83.47 115.809V115.809Z" fill="black"/>
<path d="M128.781 253.248C128.781 254.932 127.687 256.069 126.334 256.928L55.0764 302.505C53.7312 303.347 52.6292 302.674 52.6292 300.939V147.552C52.6762 146.611 52.9222 145.696 53.3473 144.88C53.7723 144.064 54.3646 143.37 55.0764 142.854L126.334 97.2847C127.687 96.4427 128.781 97.1163 128.781 98.8424V253.248Z" fill="#90CAF9"/>
<path opacity="0.9" d="M128.781 253.248C128.781 254.932 127.687 256.069 126.334 256.928L55.0764 302.505C53.7312 303.347 52.6292 302.674 52.6292 300.939V147.552C52.6762 146.611 52.9222 145.696 53.3473 144.88C53.7723 144.064 54.3646 143.37 55.0764 142.854L126.334 97.2847C127.687 96.4427 128.781 97.1163 128.781 98.8424V253.248Z" fill="white"/>
<path d="M110.237 117.518C110.237 118.217 110.564 118.562 110.997 118.301C111.232 118.104 111.422 117.849 111.554 117.557C111.686 117.265 111.755 116.943 111.757 116.617C111.757 115.927 111.43 115.573 110.997 115.834C110.763 116.031 110.572 116.286 110.44 116.578C110.308 116.87 110.239 117.191 110.237 117.518V117.518Z" fill="#455A64"/>
<path d="M109.264 116.592C109.227 116.685 109.214 116.789 109.227 116.89C109.241 116.992 109.28 117.087 109.34 117.164V117.164C109.485 117.257 109.69 117.055 109.774 116.735C109.941 115.928 110.368 115.216 110.974 114.731C111.075 114.646 111.193 114.59 111.318 114.568C111.443 114.546 111.571 114.559 111.69 114.606C111.809 114.653 111.916 114.732 112.001 114.836C112.086 114.94 112.146 115.066 112.175 115.203C112.259 115.413 112.464 115.354 112.601 115.076C112.655 114.976 112.69 114.864 112.703 114.748C112.716 114.632 112.707 114.515 112.677 114.403C112.627 114.215 112.538 114.043 112.416 113.902C112.295 113.76 112.144 113.654 111.977 113.59C111.81 113.526 111.632 113.508 111.458 113.537C111.283 113.565 111.117 113.64 110.974 113.754C110.115 114.442 109.508 115.449 109.264 116.592V116.592Z" fill="#455A64"/>
<path d="M108.36 115.884C108.276 116.154 108.299 116.423 108.421 116.508C108.55 116.6 108.748 116.415 108.839 116.112C109.185 114.751 109.942 113.563 110.982 112.744C111.154 112.604 111.352 112.51 111.561 112.467C111.77 112.424 111.986 112.434 112.191 112.497C112.396 112.559 112.586 112.672 112.747 112.827C112.907 112.982 113.034 113.175 113.118 113.392C113.209 113.577 113.406 113.518 113.536 113.249C113.589 113.144 113.622 113.027 113.631 112.906C113.64 112.785 113.626 112.664 113.589 112.55C113.484 112.286 113.328 112.052 113.131 111.865C112.933 111.677 112.701 111.541 112.45 111.467C112.199 111.392 111.936 111.381 111.68 111.435C111.425 111.488 111.184 111.605 110.974 111.775C109.706 112.776 108.784 114.225 108.36 115.884V115.884Z" fill="#455A64"/>
<path d="M57.1359 152.234V150.987C57.1333 150.859 57.1572 150.731 57.2059 150.614C57.2547 150.498 57.3269 150.395 57.4171 150.314L57.5007 150.263C57.6527 150.162 57.7819 150.263 57.7819 150.566V151.813C57.7846 151.941 57.7607 152.069 57.7119 152.186C57.6632 152.302 57.591 152.405 57.5007 152.486L57.4171 152.537C57.2575 152.638 57.1359 152.503 57.1359 152.234Z" fill="#455A64"/>
<path d="M58.4356 151.4V149.245C58.4329 149.116 58.4568 148.988 58.5056 148.872C58.5543 148.755 58.6266 148.652 58.7168 148.571L58.8004 148.52C58.96 148.419 59.0892 148.52 59.0892 148.824V150.979C59.091 151.108 59.0658 151.236 59.0157 151.353C58.9657 151.47 58.892 151.573 58.8004 151.653L58.7168 151.703C58.5648 151.804 58.4356 151.67 58.4356 151.4Z" fill="#455A64"/>
<path d="M59.72 150.566V147.502C59.7194 147.374 59.745 147.247 59.7951 147.132C59.8451 147.017 59.9182 146.916 60.0088 146.836L60.0848 146.786C60.2444 146.685 60.3736 146.786 60.3736 147.089V150.146C60.3754 150.275 60.3502 150.403 60.3002 150.52C60.2501 150.636 60.1764 150.739 60.0848 150.819L60.0088 150.87C59.8644 150.971 59.72 150.836 59.72 150.566Z" fill="#455A64"/>
<path d="M61.0424 149.733V144.445C61.0408 144.318 61.0653 144.192 61.114 144.077C61.1627 143.962 61.2344 143.86 61.3236 143.78L61.4072 143.729C61.5668 143.628 61.696 143.729 61.696 144.033V149.312C61.6987 149.44 61.6747 149.568 61.626 149.685C61.5772 149.802 61.505 149.904 61.4148 149.985L61.3312 150.036C61.1716 150.137 61.0424 150.002 61.0424 149.733Z" fill="#455A64"/>
<path d="M64.5688 147.838C64.5688 147.838 64.5688 147.763 64.5688 147.687V146.912L63.102 147.847C63.026 147.897 62.988 147.847 62.988 147.754V147.476C62.9835 147.426 62.9835 147.375 62.988 147.325L63.0412 147.165L64.5612 143.393C64.5829 143.34 64.6083 143.289 64.6372 143.241C64.6671 143.206 64.7002 143.175 64.736 143.149L64.9412 143.022C65.002 142.977 65.0476 142.977 65.078 143.022C65.0967 143.076 65.0967 143.136 65.078 143.191V145.893L65.4048 145.691C65.4656 145.649 65.5036 145.641 65.534 145.691C65.5644 145.742 65.534 145.767 65.534 145.851V146.037C65.5474 146.103 65.5474 146.172 65.534 146.239C65.5026 146.296 65.458 146.342 65.4048 146.373L65.078 146.584V147.35C65.0843 147.421 65.0709 147.491 65.0397 147.553C65.0084 147.615 64.9607 147.665 64.9032 147.695L64.66 147.847C64.6372 147.847 64.5916 147.855 64.5688 147.838ZM64.622 146.154V144.218L63.5656 146.828L64.622 146.154Z" fill="#455A64"/>
<path d="M66.3016 146.255C66.0128 146.02 65.876 145.514 65.876 144.74C65.8662 144.024 66.0122 143.317 66.3016 142.677C66.5759 142.093 66.9952 141.608 67.51 141.279C67.6934 141.159 67.8901 141.065 68.0952 141.001C68.2436 140.95 68.4028 140.95 68.5512 141.001C68.5559 141.01 68.5583 141.02 68.5583 141.031C68.5583 141.041 68.5559 141.051 68.5512 141.06C68.5567 141.091 68.5567 141.122 68.5512 141.153L68.4144 141.574C68.4144 141.633 68.4144 141.666 68.3612 141.675H68.3004C68.0328 141.646 67.7644 141.721 67.5404 141.885C67.188 142.116 66.901 142.451 66.712 142.854C66.5034 143.328 66.4016 143.851 66.4156 144.378C66.4156 144.976 66.5144 145.363 66.7044 145.523C66.8944 145.683 67.168 145.666 67.5024 145.455C67.6279 145.373 67.7474 145.281 67.8596 145.178C67.9667 145.087 68.0636 144.982 68.1484 144.866V143.611L67.5404 143.999C67.4796 144.041 67.434 144.049 67.4112 143.999C67.3937 143.947 67.3937 143.89 67.4112 143.839V143.662C67.3966 143.593 67.3966 143.521 67.4112 143.452C67.4425 143.395 67.4872 143.348 67.5404 143.317L68.5132 142.702C68.5816 142.652 68.6272 142.652 68.6576 142.702C68.688 142.753 68.7032 142.795 68.7032 142.896V144.689C68.7083 144.745 68.7083 144.802 68.7032 144.858C68.6905 144.904 68.6699 144.947 68.6424 144.984C68.3375 145.452 67.9431 145.841 67.4872 146.121C66.9932 146.441 66.56 146.508 66.3016 146.255Z" fill="#455A64"/>
<path d="M121.972 105.898C121.898 105.813 121.8 105.759 121.694 105.747C121.588 105.735 121.482 105.765 121.394 105.831L117.016 108.618C116.802 108.807 116.63 109.048 116.514 109.322C116.398 109.597 116.341 109.898 116.348 110.201V112.912C116.336 113.064 116.352 113.217 116.395 113.362C116.438 113.506 116.507 113.64 116.598 113.754C116.662 113.827 116.744 113.877 116.834 113.897C116.952 113.921 117.075 113.894 117.176 113.822L121.554 111.026C121.768 110.838 121.94 110.596 122.056 110.322C122.172 110.047 122.229 109.746 122.222 109.443V106.732C122.233 106.582 122.216 106.43 122.173 106.287C122.13 106.144 122.062 106.012 121.972 105.898V105.898ZM116.758 113.375C116.686 113.263 116.653 113.125 116.667 112.988V110.302C116.665 110.072 116.709 109.844 116.797 109.636C116.885 109.427 117.015 109.243 117.176 109.098L121.554 106.303C121.608 106.264 121.672 106.247 121.736 106.252H121.812C121.884 106.364 121.917 106.502 121.903 106.639V109.351C121.905 109.581 121.861 109.809 121.773 110.017C121.684 110.225 121.555 110.409 121.394 110.555L117.016 113.35C116.91 113.434 116.819 113.443 116.758 113.375V113.375Z" fill="#455A64"/>
<path d="M119.517 108.062V111.279L117.161 112.786H117.085C117.089 112.75 117.089 112.713 117.085 112.676V110.302C117.085 110.131 117.119 109.963 117.185 109.809C117.251 109.655 117.346 109.518 117.465 109.409L119.517 108.062Z" fill="#455A64"/>
<path d="M122.443 106.597C122.602 106.496 122.732 106.867 122.732 107.439V107.944C122.77 108.378 122.664 108.812 122.435 109.165L122.146 109.376V106.85L122.443 106.597Z" fill="#455A64"/>
<path d="M132.855 74.9381C132.65 73.2541 131.464 72.6983 130.035 73.6161L51.6564 123.774C50.8137 124.356 50.1202 125.168 49.6424 126.132L40.6744 120.406C41.1573 119.446 41.853 118.637 42.696 118.057L121.06 67.9158C121.942 67.4175 122.919 67.1577 123.91 67.1577C124.9 67.1577 125.877 67.4175 126.76 67.9158L130.035 69.9955C130.796 70.549 131.441 71.2764 131.928 72.1289C132.414 72.9813 132.73 73.9391 132.855 74.9381Z" fill="#90CAF9"/>
<path opacity="0.2" d="M132.855 74.9381C132.65 73.2541 131.464 72.6983 130.035 73.6161L51.6564 123.774C50.8137 124.356 50.1202 125.168 49.6424 126.132L40.6744 120.406C41.1573 119.446 41.853 118.637 42.696 118.057L121.06 67.9158C121.942 67.4175 122.919 67.1577 123.91 67.1577C124.9 67.1577 125.877 67.4175 126.76 67.9158L130.035 69.9955C130.796 70.549 131.441 71.2764 131.928 72.1289C132.414 72.9813 132.73 73.9391 132.855 74.9381Z" fill="black"/>
<path d="M277.164 263.192C277.164 263.192 269.039 272.202 258.24 268.758C258.24 268.758 261.492 272.311 269.146 269.928C274.306 268.32 277.164 263.192 277.164 263.192Z" fill="#90CAF9"/>
<path d="M293.291 207.974C293.291 207.974 297.44 219.846 290.251 229.394C290.251 229.394 294.499 227.542 295.624 218.819C296.361 212.908 293.291 207.974 293.291 207.974Z" fill="#90CAF9"/>
<path d="M276.32 266.973C283.92 258.309 287.226 248.196 287.302 237.865C287.302 237.865 289.514 244.012 286.063 253.711C282.613 263.411 276.32 266.973 276.32 266.973Z" fill="#90CAF9"/>
<path d="M66.6588 254.444C66.6588 254.444 66.56 267.175 76.3488 273.296C76.3488 273.296 71.7888 273.212 67.9888 265.499C65.3668 260.296 66.6588 254.444 66.6588 254.444Z" fill="#90CAF9"/>
<path d="M64.1812 259.546C62.4918 248.776 64.7127 237.702 70.36 228.738C70.36 228.738 65.3592 232.35 63.14 242.488C60.9208 252.625 64.1812 259.546 64.1812 259.546Z" fill="#90CAF9"/>
<path d="M234.414 188.608L237.628 177.957C229.162 179.641 226.859 180.921 224.359 188.675L222.702 194.856L212.564 229.428C210.162 230.127 180.264 239.254 179.222 239.397C179.222 239.397 179.177 239.482 179.146 239.524C169.38 240.214 166.226 240.694 166.226 240.694C168.97 248.643 174.115 253.122 181.221 254.739V254.553V254.612C193.799 252.238 214.433 246.849 221.144 244.382C223.971 243.38 225.18 239.852 226.342 236.905C231.092 224.873 236.055 208.656 237.742 198.897C238.837 193.02 237.233 190.081 234.414 188.608Z" fill="#B16668"/>
<path d="M237.628 177.915C237.628 177.915 229.215 176.483 225.567 185.038C223.12 190.814 215.634 215.552 215.634 215.552C215.634 215.552 220.954 223.13 232.605 223.593C232.605 223.593 243.61 195.597 242.994 194.704C242.378 193.811 237.628 177.915 237.628 177.915Z" fill="#37474F"/>
<path d="M236.086 177.738C234.041 177.957 228.858 185.636 228.752 198.703C228.607 216.209 236.352 237.638 238.297 242.26C240.243 246.883 244.028 255.934 250.457 262.653C252.532 264.809 266.698 270.913 275.826 259.546C285.113 247.986 283.646 232.796 281.792 228.039C278.684 220.073 273.189 210.803 273.386 200.32C272.224 192.793 269.997 183.051 264.92 178.967C262.83 178.378 256.248 177.443 254.964 177.637L236.086 177.738Z" fill="#FAFAFA"/>
<path d="M262.838 191.631L260.246 195.234C261.006 200.952 264.92 209.212 269.472 215.805C273.022 220.949 280.242 226.254 283.152 235.339C283.071 232.843 282.627 230.378 281.838 228.039C278.729 220.073 273.234 210.803 273.432 200.32C273.242 199.074 273.014 197.794 272.756 196.439L270.324 193.997L262.838 191.631Z" fill="#EBEBEB"/>
<path d="M264.92 178.967C269.366 180.179 271.76 182.781 275.651 187.707C280.12 193.264 289.24 204.951 289.24 204.951C295.616 217.194 289.886 229.647 285.106 227.601C285.106 227.601 274.329 215.939 267.717 207.098C263.286 201.204 261.029 197.836 260.778 191.344C260.565 186.242 261.386 181.03 264.92 178.967Z" fill="#B16668"/>
<path d="M262.594 178.504C262.594 178.504 266.432 177.561 271.426 182.015C276.419 186.469 288.624 201.187 288.624 201.187C288.624 201.187 288.989 216.773 280.029 223.804C280.029 223.804 266.805 209.102 263.544 204.017C261.276 200.275 259.987 195.912 259.82 191.409C259.652 186.906 260.612 182.439 262.594 178.504V178.504Z" fill="#37474F"/>
<path d="M260.246 149.034C260.246 149.034 258.316 162.093 257.411 164.266C256.804 165.613 255.75 166.648 254.47 167.154L254.28 158.085L260.246 149.034Z" fill="#263238"/>
<path d="M253.976 130.081C253.976 130.081 257.16 128.304 259.342 130.552C261.523 132.8 261.667 140.53 260.026 150.541L254.538 150.221L253.976 130.081Z" fill="#263238"/>
<path d="M237.138 159.107C245.451 157.285 250.857 148.341 249.213 139.131C247.568 129.921 239.495 123.931 231.182 125.753C222.869 127.575 217.463 136.519 219.107 145.729C220.752 154.939 228.824 160.929 237.138 159.107Z" fill="#263238"/>
<path d="M254.432 131.402L259.182 126.569C258.911 126.209 258.576 125.913 258.199 125.699C257.821 125.486 257.409 125.36 256.986 125.328C256.563 125.297 256.139 125.361 255.739 125.516C255.34 125.672 254.972 125.915 254.66 126.233C254.029 126.896 253.653 127.804 253.611 128.767C253.568 129.73 253.862 130.674 254.432 131.402V131.402Z" fill="#263238"/>
<path d="M226.016 132.489C225.05 134.333 220.224 142.079 221.988 156.629C223.644 170.328 227.619 173.545 229.732 174.269C231.845 174.993 236.086 174.58 239.794 173.427L240.463 179.245C240.463 179.245 238.297 183.101 241.223 185.232C244.149 187.362 250.586 185.796 252.076 184.482C255.58 181.375 255.048 178.757 255.048 178.757L254.288 159.862C254.288 159.862 256.925 162.27 260.322 159.433C263.529 156.764 263.674 149.708 260.968 147.283C258.262 144.858 253.923 146.306 253.33 150.204C253.33 150.204 253.216 135.722 245.791 131.874C236.283 126.94 226.016 132.489 226.016 132.489Z" fill="#B16668"/>
<path d="M252.479 152.09C252.897 151.846 253.611 147.973 255.671 146.659C257.563 145.447 253.991 128.135 253.976 128.051C253.763 126.78 252.585 125.29 251.818 124.363C250.658 123 249.204 121.985 247.592 121.416C245.377 120.667 243.032 120.511 240.752 120.962C237.21 121.568 233.813 123.201 230.234 123.218C226.836 123.218 223.591 121.762 220.262 121.029C219.625 120.807 218.937 120.858 218.332 121.172C218.022 121.409 217.78 121.739 217.633 122.124C217.214 123.238 217.177 124.483 217.526 125.626C217.891 126.758 218.403 127.825 219.046 128.792C217.861 128.178 216.189 128.127 215.505 129.356C214.965 130.325 215.3 131.588 215.794 132.581C217.876 136.724 221.577 138.543 225.468 139.528C227.104 139.835 228.758 140.004 230.416 140.033C234.611 140.294 238.639 138.433 242.508 136.614C243.572 136.109 245.646 135.25 246.809 136.294C248.253 137.591 248.185 141.784 248.618 145.228C249.279 150.625 250.898 153.033 252.479 152.09Z" fill="#263238"/>
<path d="M239.08 162.506L234.847 164.603C234.959 164.919 235.128 165.208 235.343 165.45C235.558 165.693 235.816 165.885 236.1 166.015C236.384 166.144 236.688 166.209 236.995 166.205C237.302 166.201 237.606 166.129 237.887 165.992C238.452 165.692 238.891 165.162 239.113 164.513C239.335 163.864 239.323 163.146 239.08 162.506V162.506Z" fill="#9A4A4D"/>
<path d="M223.88 151.316C223.91 151.656 224.031 151.979 224.226 152.244C224.421 152.51 224.682 152.705 224.976 152.808C225.271 152.91 225.586 152.913 225.883 152.818C226.179 152.723 226.444 152.534 226.644 152.273C226.844 152.012 226.97 151.692 227.007 151.353C227.044 151.013 226.99 150.669 226.852 150.363C226.714 150.057 226.497 149.803 226.23 149.633C225.962 149.462 225.655 149.383 225.347 149.404C224.924 149.443 224.532 149.666 224.257 150.024C223.982 150.383 223.846 150.847 223.88 151.316V151.316Z" fill="#263238"/>
<path d="M236.086 150.482C236.116 150.823 236.236 151.145 236.431 151.411C236.626 151.676 236.887 151.872 237.182 151.974C237.476 152.076 237.792 152.08 238.088 151.985C238.385 151.89 238.65 151.7 238.85 151.439C239.05 151.179 239.176 150.859 239.213 150.519C239.25 150.18 239.196 149.835 239.058 149.53C238.919 149.224 238.703 148.97 238.435 148.799C238.168 148.629 237.861 148.549 237.552 148.571C237.343 148.589 237.138 148.653 236.951 148.759C236.763 148.865 236.596 149.011 236.46 149.188C236.324 149.366 236.22 149.572 236.156 149.794C236.092 150.016 236.068 150.25 236.086 150.482Z" fill="#263238"/>
<path d="M231.951 150.853L231.67 161.302L226.707 159.584L231.951 150.853Z" fill="#9A4A4D"/>
<path d="M239.794 173.452C242.91 172.66 249.006 169.756 250.161 167.23C250.161 167.23 250.275 168.838 248.428 171.28C246.581 173.721 240.106 176.163 240.106 176.163L239.794 173.452Z" fill="#9A4A4D"/>
<path d="M222.641 147.687L226.16 146.003C225.942 145.481 225.551 145.073 225.069 144.862C224.586 144.652 224.048 144.657 223.568 144.874C223.338 144.988 223.13 145.151 222.958 145.355C222.786 145.559 222.652 145.8 222.566 146.062C222.479 146.325 222.441 146.604 222.454 146.883C222.467 147.162 222.531 147.435 222.641 147.687Z" fill="#263238"/>
<path d="M237.036 145.169L240.395 147.19C240.634 146.68 240.685 146.087 240.536 145.537C240.387 144.986 240.05 144.522 239.597 144.243C239.375 144.11 239.131 144.028 238.88 144.002C238.629 143.977 238.376 144.008 238.136 144.095C237.896 144.182 237.675 144.322 237.486 144.506C237.297 144.691 237.143 144.917 237.036 145.169V145.169Z" fill="#263238"/>
<path d="M135.88 176.163H109.69C103.437 176.161 97.4388 173.412 93.0112 168.52C88.5837 163.627 86.0873 156.989 86.0692 150.061V145.506C86.0571 138.821 88.4418 132.405 92.6989 127.668C96.956 122.931 102.737 120.262 108.77 120.246H113.042C116.029 120.236 118.989 120.879 121.753 122.137C124.516 123.396 127.028 125.245 129.146 127.581C131.264 129.916 132.945 132.69 134.094 135.746C135.243 138.801 135.837 142.078 135.842 145.388L135.88 176.163Z" fill="#263238"/>
<path d="M114.204 177.797C123.598 177.014 129.518 181.838 129.716 191.513C129.822 196.388 126.007 215.796 126.007 215.796L114.204 177.797Z" fill="#FFA8A7"/>
<path d="M114.204 177.797C118.985 178.327 124.259 187.37 128.85 198.998C130.651 203.579 133.942 209.742 129.792 218.314C127.223 223.61 121.934 225.749 121.934 225.749C120.019 232.393 117.255 238.699 113.726 244.475C111.521 252.251 107.511 259.248 102.098 264.767C99.9696 266.855 86.966 279.611 76.4856 269.768C70.2536 263.916 68.08 254.612 68.7184 245.83C69.0908 240.669 70.1244 235.566 73.4 231.87C75.2885 229.741 77.0336 227.461 78.6212 225.05C80.2856 216.268 78.378 210.306 78.1804 199.79C79.3432 192.262 82.2236 185.88 87.3004 181.805C91.0604 180.156 95.0149 179.116 99.0424 178.714L114.204 177.797Z" fill="#90CAF9"/>
<path opacity="0.1" d="M114.045 243.953L113.406 238.286C113.406 238.286 91.3664 200.009 90.4316 198.931C89.8844 198.283 84.5948 194.376 80.4604 191.353C79.3782 194.04 78.6119 196.87 78.1804 199.773C78.378 210.256 80.2856 216.217 78.6212 225.033C78.6212 225.033 77.4888 226.81 75.6572 229.142C78.9252 230.085 84.2528 225.53 84.2528 225.53C84.2528 225.53 94.8928 242.193 99.5744 248.112C103.944 253.661 106.559 254.486 109.789 254.242C111.451 251.167 112.773 247.882 113.726 244.458C113.84 244.298 113.938 244.121 114.045 243.953Z" fill="black"/>
<path opacity="0.05" d="M129.792 218.314C130.012 217.851 130.218 217.396 130.4 216.941C126.121 220.579 123.142 218.019 119.555 217.253C115.846 216.461 113.095 222.305 106.156 221.581C97.036 220.604 93.73 214.247 93.73 214.247C93.73 214.247 93.4868 225.252 104.788 227.668C112.342 229.285 115.116 224.763 117.206 224.763C118.118 224.763 118.932 225.546 121.934 225.749C121.934 225.749 127.223 223.61 129.792 218.314Z" fill="black"/>
<path d="M127.231 133.878C128.173 135.68 132.855 143.199 131.145 157.319C129.534 170.614 125.673 172.778 123.621 173.486C121.569 174.193 117.457 173.78 113.855 172.644L113.042 180.643C113.042 180.643 116.538 186.149 115.846 189.77C115.154 193.391 108.17 192.927 103.792 188.759C101.157 186.197 99.4686 182.647 99.05 178.79L99.81 160.435C99.81 160.435 97.2488 162.775 93.9504 160.022C90.842 157.429 90.6976 150.583 93.3272 148.234C95.9568 145.885 100.167 147.283 100.737 151.063C100.737 151.063 108.884 153.151 116.097 149.379C125.3 144.597 126.646 137.667 127.231 133.878Z" fill="#FFA8A7"/>
<path d="M100.889 156.107L100.669 147.754C101.693 147.751 102.679 148.188 103.419 148.973C104.158 149.758 104.595 150.83 104.636 151.964C104.644 152.511 104.553 153.055 104.367 153.562C104.182 154.069 103.906 154.53 103.557 154.917C103.207 155.303 102.79 155.608 102.332 155.813C101.874 156.017 101.383 156.117 100.889 156.107V156.107Z" fill="#263238"/>
<path d="M117.366 163.668L121.47 165.706C121.36 166.011 121.196 166.289 120.988 166.523C120.779 166.757 120.531 166.942 120.256 167.068C119.982 167.193 119.688 167.257 119.391 167.254C119.094 167.251 118.801 167.183 118.529 167.053C117.977 166.765 117.548 166.251 117.331 165.62C117.114 164.989 117.127 164.289 117.366 163.668V163.668Z" fill="#F28F8F"/>
<path d="M129.298 152.276C129.298 152.506 129.256 152.733 129.174 152.944C129.092 153.156 128.972 153.346 128.821 153.504C128.67 153.661 128.492 153.783 128.297 153.862C128.101 153.94 127.894 153.973 127.687 153.96C127.276 153.921 126.895 153.704 126.629 153.355C126.363 153.006 126.232 152.554 126.266 152.099C126.292 151.652 126.477 151.235 126.781 150.94C126.931 150.794 127.106 150.682 127.295 150.611C127.485 150.539 127.685 150.51 127.884 150.524C128.084 150.539 128.279 150.596 128.459 150.694C128.638 150.792 128.798 150.928 128.93 151.095C129.062 151.261 129.163 151.455 129.228 151.665C129.292 151.875 129.319 152.097 129.306 152.318L129.298 152.276Z" fill="#263238"/>
<path d="M118.286 153.244C118.254 153.572 118.136 153.882 117.947 154.136C117.757 154.39 117.505 154.577 117.22 154.674C116.936 154.771 116.632 154.773 116.346 154.68C116.061 154.587 115.806 154.404 115.614 154.152C115.422 153.9 115.3 153.592 115.265 153.264C115.23 152.937 115.282 152.605 115.415 152.311C115.548 152.016 115.756 151.771 116.014 151.606C116.272 151.441 116.567 151.364 116.864 151.383C117.07 151.397 117.27 151.456 117.454 151.558C117.638 151.66 117.802 151.802 117.935 151.976C118.067 152.15 118.167 152.352 118.227 152.57C118.288 152.788 118.308 153.017 118.286 153.244Z" fill="#263238"/>
<path d="M122.694 152.166L122.967 162.312L127.786 160.645L122.694 152.166Z" fill="#F28F8F"/>
<path d="M113.855 172.61C110.815 171.844 104.917 169.023 103.792 166.573C103.792 166.573 103.686 168.139 105.48 170.505C107.273 172.871 113.589 175.203 113.589 175.203L113.855 172.61Z" fill="#F28F8F"/>
<path d="M129.784 147.754L126.372 146.121C126.585 145.615 126.964 145.22 127.432 145.016C127.901 144.813 128.422 144.816 128.888 145.026C129.112 145.136 129.313 145.294 129.48 145.492C129.648 145.69 129.777 145.924 129.861 146.178C129.945 146.433 129.981 146.704 129.968 146.975C129.955 147.246 129.892 147.511 129.784 147.754V147.754Z" fill="#263238"/>
<path d="M109.348 251.278L116.766 235.558C119.228 235.954 121.69 236.333 124.153 236.711C129.055 237.461 147.576 239.978 148.625 239.995C150.669 239.959 152.687 239.473 154.56 238.564C157.494 237.343 159.668 235.39 162.039 234.851C163.137 234.611 164.262 234.554 165.375 234.682C166.781 234.792 166.416 235.625 167.807 235.895C168.206 235.934 168.586 236.101 168.902 236.375C169.434 236.93 169.046 237.267 168.765 237.722C168.466 238.297 168.275 238.933 168.202 239.591C168.096 240.155 167.678 242.075 168.4 242.387C171.904 243.894 172.299 246.117 176.844 250.436C179.017 252.499 180.188 253.989 181.654 255.042C182.574 256.583 182.642 257.568 179.374 259.69C177.201 261.121 173.294 263.9 166.903 261.677C159.941 259.26 156.377 254.941 154.583 254.848C141.861 254.057 116.272 252.886 109.348 251.278Z" fill="#FFA8A7"/>
<path d="M116.766 235.558L98.024 201.516C98.024 201.516 94.946 182.495 87.308 181.838C87.308 181.838 80.316 183.834 78.72 188.482C76.7972 194.106 76.8884 199.613 82.6264 212.058C86.9584 221.488 98.7004 239.263 103.397 245.283C105.297 247.716 107.372 250.571 109.348 251.244" fill="#FFA8A7"/>
<path d="M154.811 254.873C155.53 255.074 156.199 255.448 156.772 255.968C157.944 255.735 159.037 255.153 159.934 254.284C163.445 251.446 175.514 257.147 172.542 260.809C170.384 263.47 168.278 264.177 164.836 262.99C159.759 261.273 154.348 258.704 154.811 254.873Z" fill="#B16668"/>
<path d="M166.515 235.154C162.518 235.92 158.368 239.153 156.202 240.13C154.036 241.107 151.802 241.688 153.793 243.801C155.784 245.915 160.633 243.801 163.984 242.488C166.264 241.578 169.145 242.488 170.429 243.077C171.372 243.506 170.87 240.686 170.87 240.686C170.11 239.456 179.542 240.686 179.23 239.473C174.244 239.709 169.738 234.337 166.515 235.154Z" fill="#B16668"/>
</svg>
